%TF.GenerationSoftware,Altium Limited,Altium Designer,24.4.1 (13)*%
G04 Layer_Color=128*
%FSLAX45Y45*%
%MOMM*%
%TF.SameCoordinates,4FF739F8-A24E-4C84-90D3-729B67262028*%
%TF.FilePolarity,Positive*%
%TF.FileFunction,Paste,Bot*%
%TF.Part,Single*%
G01*
G75*
%TA.AperFunction,ConnectorPad*%
%ADD10R,5.08000X1.52000*%
%TA.AperFunction,SMDPad,CuDef*%
%ADD11R,1.40000X0.55000*%
G04:AMPARAMS|DCode=26|XSize=1.57mm|YSize=0.41mm|CornerRadius=0.1025mm|HoleSize=0mm|Usage=FLASHONLY|Rotation=270.000|XOffset=0mm|YOffset=0mm|HoleType=Round|Shape=RoundedRectangle|*
%AMROUNDEDRECTD26*
21,1,1.57000,0.20500,0,0,270.0*
21,1,1.36500,0.41000,0,0,270.0*
1,1,0.20500,-0.10250,-0.68250*
1,1,0.20500,-0.10250,0.68250*
1,1,0.20500,0.10250,0.68250*
1,1,0.20500,0.10250,-0.68250*
%
%ADD26ROUNDEDRECTD26*%
%ADD27R,1.30000X1.10000*%
%ADD28R,1.40000X0.90000*%
%ADD29R,1.00000X0.85000*%
%ADD30R,3.25000X1.95000*%
%ADD31R,0.90000X1.95000*%
%ADD32R,0.85000X1.00000*%
%TA.AperFunction,NonConductor*%
%ADD49C,0.25400*%
G36*
X2904786Y4394680D02*
X2877553Y4399587D01*
X2825274Y4417744D01*
X2776449Y4443800D01*
X2732265Y4477125D01*
X2693794Y4516909D01*
X2661969Y4562186D01*
X2637564Y4611856D01*
X2621171Y4664715D01*
X2617180Y4692097D01*
X2617180Y4692097D01*
X2739519D01*
X2742992Y4676669D01*
X2753223Y4646764D01*
X2767649Y4618641D01*
X2785968Y4592884D01*
X2807801Y4570029D01*
X2832693Y4550551D01*
X2860127Y4534855D01*
X2889533Y4523267D01*
X2904786Y4519092D01*
Y4519092D01*
X2904786Y4394680D01*
D02*
G37*
G36*
X2617180Y4782714D02*
X2622087Y4809946D01*
X2640243Y4862226D01*
X2666300Y4911050D01*
X2699625Y4955235D01*
X2739409Y4993706D01*
X2784686Y5025530D01*
X2834356Y5049936D01*
X2887215Y5066328D01*
X2914597Y5070320D01*
X2914597D01*
Y4947981D01*
X2899169Y4944508D01*
X2869264Y4934277D01*
X2841141Y4919851D01*
X2815384Y4901532D01*
X2792529Y4879699D01*
X2773051Y4854807D01*
X2757355Y4827373D01*
X2745766Y4797967D01*
X2741592Y4782714D01*
X2741592Y4782714D01*
X2617180D01*
D02*
G37*
G36*
X3292820Y4682286D02*
X3287912Y4655053D01*
X3269756Y4602774D01*
X3243699Y4553949D01*
X3210375Y4509765D01*
X3170591Y4471294D01*
X3125314Y4439469D01*
X3075643Y4415064D01*
X3022784Y4398671D01*
X2995403Y4394680D01*
Y4394680D01*
X2995402Y4517019D01*
X3010830Y4520492D01*
X3040736Y4530723D01*
X3068859Y4545149D01*
X3094616Y4563468D01*
X3117471Y4585301D01*
X3136949Y4610193D01*
X3152645Y4637627D01*
X3164233Y4667033D01*
X3168408Y4682286D01*
D01*
X3292820Y4682286D01*
D02*
G37*
G36*
X3005214Y5070320D02*
X3032446Y5065413D01*
X3084726Y5047256D01*
X3133550Y5021200D01*
X3177735Y4987875D01*
X3216206Y4948091D01*
X3248030Y4902814D01*
X3272435Y4853143D01*
X3288828Y4800285D01*
X3292820Y4772903D01*
D01*
X3170481Y4772903D01*
X3167008Y4788331D01*
X3156777Y4818236D01*
X3142351Y4846359D01*
X3124032Y4872116D01*
X3102199Y4894971D01*
X3077307Y4914449D01*
X3049872Y4930145D01*
X3020466Y4941733D01*
X3005213Y4945908D01*
X3005214D01*
Y5070320D01*
D02*
G37*
G36*
X2887286Y12614680D02*
X2860053Y12619587D01*
X2807774Y12637743D01*
X2758950Y12663800D01*
X2714765Y12697125D01*
X2676294Y12736908D01*
X2644469Y12782186D01*
X2620064Y12831856D01*
X2603671Y12884715D01*
X2599680Y12912097D01*
X2599680Y12912097D01*
X2722019D01*
X2725492Y12896669D01*
X2735723Y12866763D01*
X2750149Y12838641D01*
X2768468Y12812885D01*
X2790301Y12790029D01*
X2815193Y12770551D01*
X2842627Y12754855D01*
X2872033Y12743266D01*
X2887286Y12739092D01*
Y12739092D01*
X2887286Y12614680D01*
D02*
G37*
G36*
X2599680Y13002715D02*
X2604587Y13029945D01*
X2622744Y13082227D01*
X2648800Y13131050D01*
X2682125Y13175235D01*
X2721909Y13213705D01*
X2767186Y13245531D01*
X2816856Y13269936D01*
X2869715Y13286328D01*
X2897097Y13290320D01*
X2897097D01*
Y13167981D01*
X2881669Y13164508D01*
X2851764Y13154276D01*
X2823641Y13139851D01*
X2797884Y13121532D01*
X2775029Y13099699D01*
X2755551Y13074808D01*
X2739855Y13047372D01*
X2728267Y13017966D01*
X2724092Y13002713D01*
X2724092Y13002715D01*
X2599680D01*
D02*
G37*
G36*
X3275320Y12902286D02*
X3270413Y12875053D01*
X3252256Y12822774D01*
X3226200Y12773949D01*
X3192875Y12729765D01*
X3153091Y12691294D01*
X3107814Y12659469D01*
X3058143Y12635064D01*
X3005285Y12618671D01*
X2977903Y12614680D01*
Y12614680D01*
X2977903Y12737019D01*
X2993331Y12740492D01*
X3023236Y12750723D01*
X3051359Y12765148D01*
X3077116Y12783468D01*
X3099971Y12805301D01*
X3119449Y12830193D01*
X3135145Y12857626D01*
X3146733Y12887033D01*
X3150908Y12902286D01*
D01*
X3275320Y12902286D01*
D02*
G37*
G36*
X2987714Y13290320D02*
X3014946Y13285413D01*
X3067226Y13267256D01*
X3116050Y13241199D01*
X3160235Y13207875D01*
X3198706Y13168091D01*
X3230530Y13122813D01*
X3254936Y13073143D01*
X3271328Y13020284D01*
X3275320Y12992903D01*
D01*
X3152981Y12992902D01*
X3149508Y13008330D01*
X3139277Y13038235D01*
X3124851Y13066359D01*
X3106532Y13092116D01*
X3084699Y13114970D01*
X3059807Y13134448D01*
X3032373Y13150145D01*
X3002967Y13161732D01*
X2987714Y13165907D01*
X2987714D01*
Y13290320D01*
D02*
G37*
G36*
X37114786Y4394680D02*
X37087552Y4399587D01*
X37035275Y4417744D01*
X36986450Y4443800D01*
X36942264Y4477125D01*
X36903793Y4516909D01*
X36871970Y4562186D01*
X36847565Y4611856D01*
X36831171Y4664715D01*
X36827179Y4692097D01*
X36827179Y4692097D01*
X36949518D01*
X36952991Y4676669D01*
X36963223Y4646764D01*
X36977649Y4618641D01*
X36995969Y4592884D01*
X37017801Y4570029D01*
X37042694Y4550551D01*
X37070126Y4534855D01*
X37099533Y4523267D01*
X37114786Y4519092D01*
Y4519092D01*
X37114786Y4394680D01*
D02*
G37*
G36*
X36827179Y4782714D02*
X36832086Y4809946D01*
X36850244Y4862226D01*
X36876300Y4911050D01*
X36909625Y4955235D01*
X36949408Y4993706D01*
X36994687Y5025530D01*
X37044357Y5049936D01*
X37097214Y5066328D01*
X37124597Y5070320D01*
X37124597D01*
Y4947981D01*
X37109167Y4944508D01*
X37079263Y4934277D01*
X37051141Y4919851D01*
X37025385Y4901532D01*
X37002530Y4879699D01*
X36983051Y4854807D01*
X36967355Y4827373D01*
X36955768Y4797967D01*
X36951593Y4782714D01*
X36951593Y4782714D01*
X36827179D01*
D02*
G37*
G36*
X37502820Y4682286D02*
X37497913Y4655053D01*
X37479755Y4602774D01*
X37453699Y4553949D01*
X37420374Y4509765D01*
X37380591Y4471294D01*
X37335315Y4439469D01*
X37285641Y4415064D01*
X37232785Y4398671D01*
X37205402Y4394680D01*
Y4394680D01*
X37205402Y4517019D01*
X37220831Y4520492D01*
X37250735Y4530723D01*
X37278860Y4545149D01*
X37304617Y4563468D01*
X37327472Y4585301D01*
X37346948Y4610193D01*
X37362646Y4637627D01*
X37374234Y4667033D01*
X37378409Y4682286D01*
D01*
X37502820Y4682286D01*
D02*
G37*
G36*
X37215213Y5070320D02*
X37242447Y5065413D01*
X37294727Y5047256D01*
X37343549Y5021200D01*
X37387735Y4987875D01*
X37426205Y4948091D01*
X37458029Y4902814D01*
X37482437Y4853143D01*
X37498828Y4800285D01*
X37502820Y4772903D01*
D01*
X37380481Y4772903D01*
X37377008Y4788331D01*
X37366776Y4818236D01*
X37352350Y4846359D01*
X37334033Y4872116D01*
X37312198Y4894971D01*
X37287308Y4914449D01*
X37259872Y4930145D01*
X37230466Y4941733D01*
X37215213Y4945908D01*
X37215213D01*
Y5070320D01*
D02*
G37*
G36*
X37114786Y12614680D02*
X37087552Y12619587D01*
X37035275Y12637743D01*
X36986450Y12663800D01*
X36942264Y12697125D01*
X36903793Y12736908D01*
X36871970Y12782186D01*
X36847565Y12831856D01*
X36831171Y12884715D01*
X36827179Y12912097D01*
X36827179Y12912097D01*
X36949518D01*
X36952991Y12896669D01*
X36963223Y12866763D01*
X36977649Y12838641D01*
X36995969Y12812885D01*
X37017801Y12790029D01*
X37042694Y12770551D01*
X37070126Y12754855D01*
X37099533Y12743266D01*
X37114786Y12739092D01*
Y12739092D01*
X37114786Y12614680D01*
D02*
G37*
G36*
X36827179Y13002715D02*
X36832086Y13029945D01*
X36850244Y13082227D01*
X36876300Y13131050D01*
X36909625Y13175235D01*
X36949408Y13213705D01*
X36994687Y13245531D01*
X37044357Y13269936D01*
X37097214Y13286328D01*
X37124597Y13290320D01*
X37124597D01*
Y13167981D01*
X37109167Y13164508D01*
X37079263Y13154276D01*
X37051141Y13139851D01*
X37025385Y13121532D01*
X37002530Y13099699D01*
X36983051Y13074808D01*
X36967355Y13047372D01*
X36955768Y13017966D01*
X36951593Y13002713D01*
X36951593Y13002715D01*
X36827179D01*
D02*
G37*
G36*
X37502820Y12902286D02*
X37497913Y12875053D01*
X37479755Y12822774D01*
X37453699Y12773949D01*
X37420374Y12729765D01*
X37380591Y12691294D01*
X37335315Y12659469D01*
X37285641Y12635064D01*
X37232785Y12618671D01*
X37205402Y12614680D01*
Y12614680D01*
X37205402Y12737019D01*
X37220831Y12740492D01*
X37250735Y12750723D01*
X37278860Y12765148D01*
X37304617Y12783468D01*
X37327472Y12805301D01*
X37346948Y12830193D01*
X37362646Y12857626D01*
X37374234Y12887033D01*
X37378409Y12902286D01*
D01*
X37502820Y12902286D01*
D02*
G37*
G36*
X37215213Y13290320D02*
X37242447Y13285413D01*
X37294727Y13267256D01*
X37343549Y13241199D01*
X37387735Y13207875D01*
X37426205Y13168091D01*
X37458029Y13122813D01*
X37482437Y13073143D01*
X37498828Y13020284D01*
X37502820Y12992903D01*
D01*
X37380481Y12992902D01*
X37377008Y13008330D01*
X37366776Y13038235D01*
X37352350Y13066359D01*
X37334033Y13092116D01*
X37312198Y13114970D01*
X37287308Y13134448D01*
X37259872Y13150145D01*
X37230466Y13161732D01*
X37215213Y13165907D01*
X37215213D01*
Y13290320D01*
D02*
G37*
D10*
X2841500Y9008500D02*
D03*
Y9856500D02*
D03*
X37283499Y8996000D02*
D03*
Y9844000D02*
D03*
D11*
X19827200Y5714100D02*
D03*
X19572200D02*
D03*
D26*
X20359700Y6344000D02*
D03*
X20424699D02*
D03*
X20489700D02*
D03*
X20554700D02*
D03*
X20619701D02*
D03*
X20684700D02*
D03*
X20749699D02*
D03*
X20814700D02*
D03*
X20879700D02*
D03*
X20944701D02*
D03*
Y5770000D02*
D03*
X20879700D02*
D03*
X20814700D02*
D03*
X20749699D02*
D03*
X20684700D02*
D03*
X20619701D02*
D03*
X20554700D02*
D03*
X20489700D02*
D03*
X20424699D02*
D03*
X20359700D02*
D03*
D27*
X20064642Y12460000D02*
D03*
Y12690000D02*
D03*
X19217500Y12460000D02*
D03*
Y12690000D02*
D03*
X19641071Y12460000D02*
D03*
Y12690000D02*
D03*
X20911784Y12460000D02*
D03*
Y12690000D02*
D03*
X20488214Y12460000D02*
D03*
Y12690000D02*
D03*
X21335358Y12460000D02*
D03*
Y12690000D02*
D03*
X21758928Y12460000D02*
D03*
Y12690000D02*
D03*
X22182500Y12460000D02*
D03*
Y12690000D02*
D03*
D28*
X20207700Y5684600D02*
D03*
Y5489600D02*
D03*
D29*
X20042599Y6571300D02*
D03*
Y6406300D02*
D03*
X20207700Y5834800D02*
D03*
Y5999800D02*
D03*
D30*
X19610800Y6530000D02*
D03*
D31*
X19380800Y5965000D02*
D03*
X19610800D02*
D03*
X19840800D02*
D03*
D32*
X19375800Y5714100D02*
D03*
X19210800D02*
D03*
D49*
X37124597Y4947981D02*
G03*
X36951593Y4782714I40403J-215481D01*
G01*
X37124597Y5070320D02*
G03*
X36827179Y4782714I51080J-350407D01*
G01*
X37380481Y4772903D02*
G03*
X37215213Y4945908I-215481J-40403D01*
G01*
X37502820Y4772903D02*
G03*
X37215213Y5070320I-350407J-51080D01*
G01*
X37205402Y4517019D02*
G03*
X37378409Y4682286I-40403J215481D01*
G01*
X37205402Y4394680D02*
G03*
X37502820Y4682286I-51080J350407D01*
G01*
X36949518Y4692097D02*
G03*
X37114786Y4519092I215481J40403D01*
G01*
X36827179Y4692097D02*
G03*
X37114786Y4394680I350407J51080D01*
G01*
X37205402Y12737019D02*
G03*
X37378409Y12902286I-40403J215481D01*
G01*
X37205402Y12614680D02*
G03*
X37502820Y12902286I-51080J350407D01*
G01*
X36949518Y12912097D02*
G03*
X37114786Y12739092I215481J40403D01*
G01*
X36827179Y12912097D02*
G03*
X37114786Y12614680I350407J51080D01*
G01*
X37124597Y13167981D02*
G03*
X36951593Y13002715I40403J-215481D01*
G01*
X37124597Y13290320D02*
G03*
X36827179Y13002715I51080J-350407D01*
G01*
X37380481Y12992903D02*
G03*
X37215213Y13165907I-215481J-40403D01*
G01*
X37502820Y12992903D02*
G03*
X37215213Y13290320I-350407J-51080D01*
G01*
X2617180Y4692097D02*
G03*
X2904786Y4394680I350407J51080D01*
G01*
X2739519Y4692097D02*
G03*
X2904786Y4519092I215481J40403D01*
G01*
X2995403Y4394680D02*
G03*
X3292820Y4682286I-51080J350407D01*
G01*
X2995403Y4517019D02*
G03*
X3168408Y4682286I-40403J215481D01*
G01*
X3292820Y4772903D02*
G03*
X3005214Y5070320I-350407J-51080D01*
G01*
X3170481Y4772903D02*
G03*
X3005214Y4945908I-215481J-40403D01*
G01*
X2914597Y5070320D02*
G03*
X2617180Y4782714I51080J-350407D01*
G01*
X2914597Y4947981D02*
G03*
X2741592Y4782714I40403J-215481D01*
G01*
X2599680Y12912097D02*
G03*
X2887286Y12614680I350407J51080D01*
G01*
X2722019Y12912097D02*
G03*
X2887286Y12739092I215481J40403D01*
G01*
X2977903Y12614680D02*
G03*
X3275320Y12902286I-51080J350407D01*
G01*
X2977903Y12737019D02*
G03*
X3150908Y12902286I-40403J215481D01*
G01*
X3275320Y12992903D02*
G03*
X2987714Y13290320I-350407J-51080D01*
G01*
X3152981Y12992903D02*
G03*
X2987714Y13165907I-215481J-40403D01*
G01*
X2897097Y13290320D02*
G03*
X2599680Y13002715I51080J-350407D01*
G01*
X2897097Y13167981D02*
G03*
X2724092Y13002715I40403J-215481D01*
G01*
X36827179Y4782714D02*
X36951593D01*
X37124597Y4947981D02*
Y5070320D01*
X37215213Y4945908D02*
Y5070320D01*
X37380481Y4772903D02*
X37502820D01*
X37378409Y4682286D02*
X37502820D01*
X37205402Y4394680D02*
Y4517019D01*
X37114786Y4394680D02*
Y4519092D01*
X36827179Y4692097D02*
X36949518D01*
X37378409Y12902286D02*
X37502820D01*
X37205402Y12614680D02*
Y12737019D01*
X37114786Y12614680D02*
Y12739092D01*
X36827179Y12912097D02*
X36949518D01*
X36827179Y13002715D02*
X36951593D01*
X37124597Y13167981D02*
Y13290320D01*
X37215213Y13165907D02*
Y13290320D01*
X37380481Y12992903D02*
X37502820D01*
X2617180Y4692097D02*
X2739519D01*
X2904786Y4394680D02*
Y4519092D01*
X2995403Y4394680D02*
Y4517019D01*
X3168408Y4682286D02*
X3292820D01*
X3170481Y4772903D02*
X3292820D01*
X3005214Y4945908D02*
Y5070320D01*
X2914597Y4947981D02*
Y5070320D01*
X2617180Y4782714D02*
X2741592D01*
X2599680Y12912097D02*
X2722019D01*
X2887286Y12614680D02*
Y12739092D01*
X2977903Y12614680D02*
Y12737019D01*
X3150908Y12902286D02*
X3275320D01*
X3152981Y12992903D02*
X3275320D01*
X2987714Y13165907D02*
Y13290320D01*
X2897097Y13167981D02*
Y13290320D01*
X2599680Y13002715D02*
X2724092D01*
%TF.MD5,c1e5c8070b113725a16fb9970cd94fed*%
M02*
