%TF.GenerationSoftware,Altium Limited,Altium Designer,24.4.1 (13)*%
G04 Layer_Physical_Order=2*
G04 Layer_Color=16776960*
%FSLAX45Y45*%
%MOMM*%
%TF.SameCoordinates,4FF739F8-A24E-4C84-90D3-729B67262028*%
%TF.FilePolarity,Positive*%
%TF.FileFunction,Copper,L2,Inr,Signal*%
%TF.Part,Single*%
G01*
G75*
%TA.AperFunction,ComponentPad*%
%ADD19C,6.99999*%
%ADD20C,1.50800*%
%TA.AperFunction,ViaPad*%
%ADD22C,1.00000*%
%ADD23C,1.50000*%
%ADD24C,0.40000*%
%ADD25C,0.50000*%
G36*
X37529510Y4372988D02*
X2580488D01*
Y13322012D01*
X37529510D01*
Y4372988D01*
D02*
G37*
%LPC*%
G36*
X10165631Y9065111D02*
X10147729D01*
X10131190Y9058260D01*
X10118531Y9045601D01*
X10111680Y9029062D01*
Y9011160D01*
X10118531Y8994621D01*
X10131190Y8981962D01*
X10147729Y8975111D01*
X10165631D01*
X10182170Y8981962D01*
X10194829Y8994621D01*
X10201680Y9011160D01*
Y9029062D01*
X10194829Y9045601D01*
X10182170Y9058260D01*
X10165631Y9065111D01*
D02*
G37*
G36*
X31267950Y9062000D02*
X31250049D01*
X31233508Y9055149D01*
X31220850Y9042490D01*
X31213998Y9025951D01*
Y9008049D01*
X31220850Y8991510D01*
X31233508Y8978851D01*
X31250049Y8972000D01*
X31267950D01*
X31284491Y8978851D01*
X31297147Y8991510D01*
X31303998Y9008049D01*
Y9025951D01*
X31297147Y9042490D01*
X31284491Y9055149D01*
X31267950Y9062000D01*
D02*
G37*
G36*
X28253333D02*
X28235431D01*
X28218893Y9055149D01*
X28206232Y9042490D01*
X28199380Y9025951D01*
Y9008049D01*
X28206232Y8991510D01*
X28218893Y8978851D01*
X28235431Y8972000D01*
X28253333D01*
X28269873Y8978851D01*
X28282532Y8991510D01*
X28289383Y9008049D01*
Y9025951D01*
X28282532Y9042490D01*
X28269873Y9055149D01*
X28253333Y9062000D01*
D02*
G37*
G36*
X25235451D02*
X25217549D01*
X25201010Y9055149D01*
X25188351Y9042490D01*
X25181500Y9025951D01*
Y9008049D01*
X25188351Y8991510D01*
X25201010Y8978851D01*
X25217549Y8972000D01*
X25235451D01*
X25251990Y8978851D01*
X25264648Y8991510D01*
X25271500Y9008049D01*
Y9025951D01*
X25264648Y9042490D01*
X25251990Y9055149D01*
X25235451Y9062000D01*
D02*
G37*
G36*
X22224100D02*
X22206197D01*
X22189658Y9055149D01*
X22176999Y9042490D01*
X22170148Y9025951D01*
Y9008049D01*
X22176999Y8991510D01*
X22189658Y8978851D01*
X22206197Y8972000D01*
X22224100D01*
X22240639Y8978851D01*
X22253297Y8991510D01*
X22260149Y9008049D01*
Y9025951D01*
X22253297Y9042490D01*
X22240639Y9055149D01*
X22224100Y9062000D01*
D02*
G37*
G36*
X19209482D02*
X19191580D01*
X19175041Y9055149D01*
X19162383Y9042490D01*
X19155531Y9025951D01*
Y9008049D01*
X19162383Y8991510D01*
X19175041Y8978851D01*
X19191580Y8972000D01*
X19209482D01*
X19226021Y8978851D01*
X19238680Y8991510D01*
X19245531Y9008049D01*
Y9025951D01*
X19238680Y9042490D01*
X19226021Y9055149D01*
X19209482Y9062000D01*
D02*
G37*
G36*
X16194865D02*
X16176962D01*
X16160423Y9055149D01*
X16147765Y9042490D01*
X16140913Y9025951D01*
Y9008049D01*
X16147765Y8991510D01*
X16160423Y8978851D01*
X16176962Y8972000D01*
X16194865D01*
X16211404Y8978851D01*
X16224063Y8991510D01*
X16230914Y9008049D01*
Y9025951D01*
X16224063Y9042490D01*
X16211404Y9055149D01*
X16194865Y9062000D01*
D02*
G37*
G36*
X13181451Y9055000D02*
X13163548D01*
X13147009Y9048149D01*
X13134351Y9035490D01*
X13127499Y9018951D01*
Y9001049D01*
X13134351Y8984510D01*
X13147009Y8971851D01*
X13163548Y8965000D01*
X13181451D01*
X13197990Y8971851D01*
X13210649Y8984510D01*
X13217500Y9001049D01*
Y9018951D01*
X13210649Y9035490D01*
X13197990Y9048149D01*
X13181451Y9055000D01*
D02*
G37*
G36*
X20406451Y6575000D02*
X20388548D01*
X20372009Y6568149D01*
X20359351Y6555490D01*
X20352499Y6538951D01*
Y6521049D01*
X20359351Y6504509D01*
X20372009Y6491851D01*
X20388548Y6485000D01*
X20406451D01*
X20422990Y6491851D01*
X20435649Y6504509D01*
X20442500Y6521049D01*
Y6538951D01*
X20435649Y6555490D01*
X20422990Y6568149D01*
X20406451Y6575000D01*
D02*
G37*
G36*
X19731451Y5940000D02*
X19713548D01*
X19697009Y5933149D01*
X19684351Y5920490D01*
X19677499Y5903951D01*
Y5886049D01*
X19684351Y5869509D01*
X19697009Y5856851D01*
X19713548Y5850000D01*
X19731451D01*
X19747990Y5856851D01*
X19760649Y5869509D01*
X19767500Y5886049D01*
Y5903951D01*
X19760649Y5920490D01*
X19747990Y5933149D01*
X19731451Y5940000D01*
D02*
G37*
G36*
X19503951D02*
X19486049D01*
X19469510Y5933149D01*
X19456851Y5920490D01*
X19450000Y5903951D01*
Y5886049D01*
X19456851Y5869509D01*
X19469510Y5856851D01*
X19486049Y5850000D01*
X19503951D01*
X19520491Y5856851D01*
X19533150Y5869509D01*
X19539999Y5886049D01*
Y5903951D01*
X19533150Y5920490D01*
X19520491Y5933149D01*
X19503951Y5940000D01*
D02*
G37*
G36*
X21765559Y5237900D02*
X21740440D01*
X21716177Y5231398D01*
X21694423Y5218839D01*
X21676662Y5201077D01*
X21664101Y5179323D01*
X21657600Y5155060D01*
Y5129940D01*
X21664101Y5105677D01*
X21676662Y5083923D01*
X21694423Y5066161D01*
X21716177Y5053602D01*
X21740440Y5047100D01*
X21765559D01*
X21789822Y5053602D01*
X21811577Y5066161D01*
X21829340Y5083923D01*
X21841898Y5105677D01*
X21848399Y5129940D01*
Y5155060D01*
X21841898Y5179323D01*
X21829340Y5201077D01*
X21811577Y5218839D01*
X21789822Y5231398D01*
X21765559Y5237900D01*
D02*
G37*
G36*
X21511559D02*
X21486440D01*
X21462177Y5231398D01*
X21440424Y5218839D01*
X21422661Y5201077D01*
X21410101Y5179323D01*
X21403600Y5155060D01*
Y5129940D01*
X21410101Y5105677D01*
X21422661Y5083923D01*
X21440424Y5066161D01*
X21462177Y5053602D01*
X21486440Y5047100D01*
X21511559D01*
X21535823Y5053602D01*
X21557578Y5066161D01*
X21575339Y5083923D01*
X21587898Y5105677D01*
X21594400Y5129940D01*
Y5155060D01*
X21587898Y5179323D01*
X21575339Y5201077D01*
X21557578Y5218839D01*
X21535823Y5231398D01*
X21511559Y5237900D01*
D02*
G37*
G36*
X21257559D02*
X21232440D01*
X21208177Y5231398D01*
X21186423Y5218839D01*
X21168661Y5201077D01*
X21156100Y5179323D01*
X21149600Y5155060D01*
Y5129940D01*
X21156100Y5105677D01*
X21168661Y5083923D01*
X21186423Y5066161D01*
X21208177Y5053602D01*
X21232440Y5047100D01*
X21257559D01*
X21281824Y5053602D01*
X21303577Y5066161D01*
X21321339Y5083923D01*
X21333897Y5105677D01*
X21340401Y5129940D01*
Y5155060D01*
X21333897Y5179323D01*
X21321339Y5201077D01*
X21303577Y5218839D01*
X21281824Y5231398D01*
X21257559Y5237900D01*
D02*
G37*
G36*
X21003558D02*
X20978439D01*
X20954176Y5231398D01*
X20932423Y5218839D01*
X20914661Y5201077D01*
X20902101Y5179323D01*
X20895599Y5155060D01*
Y5129940D01*
X20902101Y5105677D01*
X20914661Y5083923D01*
X20932423Y5066161D01*
X20954176Y5053602D01*
X20978439Y5047100D01*
X21003558D01*
X21027823Y5053602D01*
X21049577Y5066161D01*
X21067339Y5083923D01*
X21079898Y5105677D01*
X21086400Y5129940D01*
Y5155060D01*
X21079898Y5179323D01*
X21067339Y5201077D01*
X21049577Y5218839D01*
X21027823Y5231398D01*
X21003558Y5237900D01*
D02*
G37*
G36*
X20480060D02*
X20454941D01*
X20430676Y5231398D01*
X20408923Y5218839D01*
X20391161Y5201077D01*
X20378603Y5179323D01*
X20372099Y5155060D01*
Y5129940D01*
X20378603Y5105677D01*
X20391161Y5083923D01*
X20408923Y5066161D01*
X20430676Y5053602D01*
X20454941Y5047100D01*
X20480060D01*
X20504323Y5053602D01*
X20526077Y5066161D01*
X20543839Y5083923D01*
X20556400Y5105677D01*
X20562900Y5129940D01*
Y5155060D01*
X20556400Y5179323D01*
X20543839Y5201077D01*
X20526077Y5218839D01*
X20504323Y5231398D01*
X20480060Y5237900D01*
D02*
G37*
G36*
X20226060D02*
X20200941D01*
X20176677Y5231398D01*
X20154922Y5218839D01*
X20137161Y5201077D01*
X20124602Y5179323D01*
X20118100Y5155060D01*
Y5129940D01*
X20124602Y5105677D01*
X20137161Y5083923D01*
X20154922Y5066161D01*
X20176677Y5053602D01*
X20200941Y5047100D01*
X20226060D01*
X20250323Y5053602D01*
X20272076Y5066161D01*
X20289839Y5083923D01*
X20302399Y5105677D01*
X20308900Y5129940D01*
Y5155060D01*
X20302399Y5179323D01*
X20289839Y5201077D01*
X20272076Y5218839D01*
X20250323Y5231398D01*
X20226060Y5237900D01*
D02*
G37*
G36*
X19972060D02*
X19946941D01*
X19922678Y5231398D01*
X19900923Y5218839D01*
X19883160Y5201077D01*
X19870602Y5179323D01*
X19864101Y5155060D01*
Y5129940D01*
X19870602Y5105677D01*
X19883160Y5083923D01*
X19900923Y5066161D01*
X19922678Y5053602D01*
X19946941Y5047100D01*
X19972060D01*
X19996323Y5053602D01*
X20018077Y5066161D01*
X20035838Y5083923D01*
X20048399Y5105677D01*
X20054900Y5129940D01*
Y5155060D01*
X20048399Y5179323D01*
X20035838Y5201077D01*
X20018077Y5218839D01*
X19996323Y5231398D01*
X19972060Y5237900D01*
D02*
G37*
G36*
X19718060D02*
X19692941D01*
X19668677Y5231398D01*
X19646922Y5218839D01*
X19629161Y5201077D01*
X19616602Y5179323D01*
X19610100Y5155060D01*
Y5129940D01*
X19616602Y5105677D01*
X19629161Y5083923D01*
X19646922Y5066161D01*
X19668677Y5053602D01*
X19692941Y5047100D01*
X19718060D01*
X19742323Y5053602D01*
X19764078Y5066161D01*
X19781839Y5083923D01*
X19794398Y5105677D01*
X19800900Y5129940D01*
Y5155060D01*
X19794398Y5179323D01*
X19781839Y5201077D01*
X19764078Y5218839D01*
X19742323Y5231398D01*
X19718060Y5237900D01*
D02*
G37*
G36*
X19177560D02*
X19152440D01*
X19128177Y5231398D01*
X19106422Y5218839D01*
X19088661Y5201077D01*
X19076102Y5179323D01*
X19069600Y5155060D01*
Y5129940D01*
X19076102Y5105677D01*
X19088661Y5083923D01*
X19106422Y5066161D01*
X19128177Y5053602D01*
X19152440Y5047100D01*
X19177560D01*
X19201823Y5053602D01*
X19223576Y5066161D01*
X19241339Y5083923D01*
X19253899Y5105677D01*
X19260400Y5129940D01*
Y5155060D01*
X19253899Y5179323D01*
X19241339Y5201077D01*
X19223576Y5218839D01*
X19201823Y5231398D01*
X19177560Y5237900D01*
D02*
G37*
%LPD*%
D19*
X37164999Y4732500D02*
D03*
Y12952499D02*
D03*
X2955000Y4732500D02*
D03*
X2937500Y12952499D02*
D03*
D20*
X19164999Y5142500D02*
D03*
X18911000D02*
D03*
X19705499D02*
D03*
X19959500D02*
D03*
X20213499D02*
D03*
X20467500D02*
D03*
X20991000D02*
D03*
X21245000D02*
D03*
X21499001D02*
D03*
X21753000D02*
D03*
D22*
X37485001Y8997500D02*
D03*
X37262500Y9000000D02*
D03*
X37373749D02*
D03*
X37477499Y9847500D02*
D03*
X37254999Y9850000D02*
D03*
X37366251D02*
D03*
X2872500Y9852500D02*
D03*
X2650000Y9855000D02*
D03*
X2761250D02*
D03*
X2870000Y9005000D02*
D03*
X2647500Y9007500D02*
D03*
X2758750D02*
D03*
D23*
X19469598Y7025000D02*
D03*
X18889911D02*
D03*
X19083141D02*
D03*
X19276369D02*
D03*
X18503453D02*
D03*
X18696683D02*
D03*
X20822202D02*
D03*
X20435744D02*
D03*
X20049284D02*
D03*
X19856056D02*
D03*
X20628972D02*
D03*
X20242514D02*
D03*
X10194607D02*
D03*
X10001378D02*
D03*
X9808149D02*
D03*
X9614920D02*
D03*
X9421691D02*
D03*
X9228462D02*
D03*
X8842004D02*
D03*
X8648775D02*
D03*
X8262317D02*
D03*
X8069088D02*
D03*
X8455546D02*
D03*
X9035233D02*
D03*
X7875859D02*
D03*
X7682630D02*
D03*
X7102943D02*
D03*
X6909714D02*
D03*
X6523256D02*
D03*
X7489401D02*
D03*
X6716485D02*
D03*
X6330027D02*
D03*
X7296172D02*
D03*
X12320126D02*
D03*
X11740439D02*
D03*
X11933668D02*
D03*
X12126897D02*
D03*
X11547210D02*
D03*
X11353981D02*
D03*
X11160752D02*
D03*
X10774294D02*
D03*
X10581065D02*
D03*
X10387836D02*
D03*
X10967523D02*
D03*
X18310223D02*
D03*
X18116995D02*
D03*
X17923766D02*
D03*
X17730537D02*
D03*
X17537308D02*
D03*
X17344080D02*
D03*
X17150850D02*
D03*
X15411789D02*
D03*
X16957620D02*
D03*
X16571162D02*
D03*
X16377934D02*
D03*
X16184705D02*
D03*
X15991476D02*
D03*
X15798247D02*
D03*
X15605019D02*
D03*
X16764392D02*
D03*
X15218559D02*
D03*
X15025331D02*
D03*
X14832101D02*
D03*
X14638873D02*
D03*
X14445644D02*
D03*
X14252415D02*
D03*
X14059187D02*
D03*
X13865958D02*
D03*
X13479500D02*
D03*
X13286272D02*
D03*
X13093042D02*
D03*
X12899812D02*
D03*
X12706584D02*
D03*
X12513355D02*
D03*
X13672729D02*
D03*
X26619070D02*
D03*
X26425842D02*
D03*
X26232611D02*
D03*
X25652924D02*
D03*
X25459695D02*
D03*
X25846155D02*
D03*
X26039383D02*
D03*
X25266467D02*
D03*
X33188855D02*
D03*
X32995627D02*
D03*
X32802396D02*
D03*
X32609167D02*
D03*
X32415939D02*
D03*
X32222711D02*
D03*
X31836252D02*
D03*
X31643024D02*
D03*
X31449792D02*
D03*
X31256564D02*
D03*
X31063336D02*
D03*
X32029480D02*
D03*
X30870108D02*
D03*
X23720634D02*
D03*
X22947719D02*
D03*
X23334177D02*
D03*
X22754491D02*
D03*
X23140948D02*
D03*
X23527406D02*
D03*
X23913864D02*
D03*
X25073238D02*
D03*
X24880009D02*
D03*
X24686780D02*
D03*
X24493552D02*
D03*
X24300322D02*
D03*
X24107092D02*
D03*
X22561261D02*
D03*
X22368031D02*
D03*
X22174805D02*
D03*
X21981575D02*
D03*
X21595117D02*
D03*
X21401888D02*
D03*
X21208659D02*
D03*
X21015430D02*
D03*
X21788345D02*
D03*
X28551361D02*
D03*
X28164902D02*
D03*
X27971674D02*
D03*
X27778445D02*
D03*
X27585214D02*
D03*
X27391986D02*
D03*
X26812299D02*
D03*
X27005527D02*
D03*
X27198758D02*
D03*
X28358130D02*
D03*
X28744589D02*
D03*
X30676877D02*
D03*
X30483649D02*
D03*
X30290421D02*
D03*
X30097192D02*
D03*
X29903964D02*
D03*
X29710733D02*
D03*
X29324277D02*
D03*
X29131046D02*
D03*
X29517505D02*
D03*
X28937817D02*
D03*
X33575314D02*
D03*
X33382083D02*
D03*
X33768542Y7030000D02*
D03*
X33961771Y7027500D02*
D03*
X34154999Y7025000D02*
D03*
X19662827Y7030000D02*
D03*
X19655299Y11837500D02*
D03*
X34147473Y11832500D02*
D03*
X33954242Y11835000D02*
D03*
X33761014Y11837500D02*
D03*
X33374557Y11832500D02*
D03*
X33567786D02*
D03*
X28930289D02*
D03*
X29509976D02*
D03*
X29123520D02*
D03*
X29316748D02*
D03*
X29703207D02*
D03*
X29896436D02*
D03*
X30089664D02*
D03*
X30282892D02*
D03*
X30476123D02*
D03*
X30669351D02*
D03*
X28737061D02*
D03*
X28350604D02*
D03*
X27191229D02*
D03*
X26998001D02*
D03*
X26804770D02*
D03*
X27384457D02*
D03*
X27577686D02*
D03*
X27770917D02*
D03*
X27964145D02*
D03*
X28157373D02*
D03*
X28543832D02*
D03*
X21780818D02*
D03*
X21007903D02*
D03*
X21201131D02*
D03*
X21394360D02*
D03*
X21587589D02*
D03*
X21974046D02*
D03*
X22167276D02*
D03*
X22360506D02*
D03*
X22553734D02*
D03*
X24099567D02*
D03*
X24292795D02*
D03*
X24486024D02*
D03*
X24679253D02*
D03*
X24872482D02*
D03*
X25065710D02*
D03*
X23906337D02*
D03*
X23519879D02*
D03*
X23133421D02*
D03*
X22746964D02*
D03*
X23326649D02*
D03*
X22940192D02*
D03*
X23713107D02*
D03*
X30862579D02*
D03*
X32021954D02*
D03*
X31055807D02*
D03*
X31249039D02*
D03*
X31442267D02*
D03*
X31635495D02*
D03*
X31828726D02*
D03*
X32215182D02*
D03*
X32408411D02*
D03*
X32601642D02*
D03*
X32794870D02*
D03*
X32988098D02*
D03*
X33181329D02*
D03*
X25258940D02*
D03*
X26031854D02*
D03*
X25838626D02*
D03*
X25452168D02*
D03*
X25645398D02*
D03*
X26225085D02*
D03*
X26418314D02*
D03*
X26611542D02*
D03*
X13665201D02*
D03*
X12505827D02*
D03*
X12699056D02*
D03*
X12892285D02*
D03*
X13085513D02*
D03*
X13278743D02*
D03*
X13471973D02*
D03*
X13858430D02*
D03*
X14051659D02*
D03*
X14244888D02*
D03*
X14438116D02*
D03*
X14631346D02*
D03*
X14824574D02*
D03*
X15017804D02*
D03*
X15211034D02*
D03*
X16756865D02*
D03*
X15597491D02*
D03*
X15790720D02*
D03*
X15983949D02*
D03*
X16177177D02*
D03*
X16370407D02*
D03*
X16563635D02*
D03*
X16950095D02*
D03*
X15404262D02*
D03*
X17143323D02*
D03*
X17336552D02*
D03*
X17529781D02*
D03*
X17723010D02*
D03*
X17916238D02*
D03*
X18109467D02*
D03*
X18302696D02*
D03*
X10959995D02*
D03*
X10380308D02*
D03*
X10573537D02*
D03*
X10766766D02*
D03*
X11153224D02*
D03*
X11346453D02*
D03*
X11539682D02*
D03*
X12119369D02*
D03*
X11926140D02*
D03*
X11732911D02*
D03*
X12312598D02*
D03*
X7288645D02*
D03*
X6322500D02*
D03*
X6708958D02*
D03*
X7481874D02*
D03*
X6515729D02*
D03*
X6902187D02*
D03*
X7095416D02*
D03*
X7675103D02*
D03*
X7868332D02*
D03*
X9027706D02*
D03*
X8448019D02*
D03*
X8061561D02*
D03*
X8254790D02*
D03*
X8641248D02*
D03*
X8834477D02*
D03*
X9220935D02*
D03*
X9414164D02*
D03*
X9607393D02*
D03*
X9800621D02*
D03*
X9993850D02*
D03*
X10187079D02*
D03*
X20234985D02*
D03*
X20621445D02*
D03*
X19848528D02*
D03*
X20041757D02*
D03*
X20428215D02*
D03*
X20814673D02*
D03*
X18689154D02*
D03*
X18495924D02*
D03*
X19268842D02*
D03*
X19075612D02*
D03*
X18882384D02*
D03*
X19462070D02*
D03*
D24*
X22100012Y13000008D02*
D03*
X22000012Y12800008D02*
D03*
X21900012Y13000008D02*
D03*
X21800012Y12800008D02*
D03*
X21700012Y13000008D02*
D03*
X21600012Y12800008D02*
D03*
X21500012Y13000008D02*
D03*
X21400012Y12800008D02*
D03*
X21300012Y13000008D02*
D03*
X21200011Y12800008D02*
D03*
X21100011Y13000008D02*
D03*
X21000011Y12800008D02*
D03*
X20900011Y13000008D02*
D03*
X20800011Y12800008D02*
D03*
X20700011Y13000008D02*
D03*
X20600011Y12800008D02*
D03*
X20500011Y13000008D02*
D03*
X20400011Y12800008D02*
D03*
X20300011Y13000008D02*
D03*
X20200011Y12800008D02*
D03*
X20100011Y13000008D02*
D03*
X20000011Y12800008D02*
D03*
X19900011Y13000008D02*
D03*
X19800011Y12800008D02*
D03*
X19700011Y13000008D02*
D03*
X19600011Y12800008D02*
D03*
X19500011Y13000008D02*
D03*
X19400011Y12800008D02*
D03*
X19300011Y13000008D02*
D03*
X19200011Y12800008D02*
D03*
D25*
X19922501Y5902500D02*
D03*
X20085001Y6175000D02*
D03*
X20117500Y6402500D02*
D03*
X20287500Y6002500D02*
D03*
X20275000Y6402500D02*
D03*
X19852499Y6277500D02*
D03*
D03*
X19125000Y5405000D02*
D03*
X18935001Y5492500D02*
D03*
X19122501Y5727500D02*
D03*
X18755000Y5210000D02*
D03*
X18767500Y5720000D02*
D03*
X19495000Y5895000D02*
D03*
D03*
X19722501D02*
D03*
X20397501Y6530000D02*
D03*
X13172501Y9010000D02*
D03*
X16185915Y9017000D02*
D03*
X10156680Y9020111D02*
D03*
X31259000Y9017000D02*
D03*
X28244382D02*
D03*
X25226500D02*
D03*
X22215147D02*
D03*
X19200531D02*
D03*
%TF.MD5,b05925759d9c68e0d30ce6082c8cf406*%
M02*
