%TF.GenerationSoftware,Altium Limited,Altium Designer,24.4.1 (13)*%
G04 Layer_Color=0*
%FSLAX45Y45*%
%MOMM*%
%TF.SameCoordinates,4FF739F8-A24E-4C84-90D3-729B67262028*%
%TF.FilePolarity,Positive*%
%TF.FileFunction,Plated,1,2,Blind,Drill*%
%TF.Part,Single*%
G01*
G75*
%TA.AperFunction,ViaDrill,NotFilled*%
%ADD56C,1.00000*%
D56*
X19469598Y7025000D02*
D03*
X18889911D02*
D03*
X19083141D02*
D03*
X19276369D02*
D03*
X18503453D02*
D03*
X18696683D02*
D03*
X20822202D02*
D03*
X20435744D02*
D03*
X20049284D02*
D03*
X19856056D02*
D03*
X20628972D02*
D03*
X20242514D02*
D03*
X10194607D02*
D03*
X10001378D02*
D03*
X9808149D02*
D03*
X9614920D02*
D03*
X9421691D02*
D03*
X9228462D02*
D03*
X8842004D02*
D03*
X8648775D02*
D03*
X8262317D02*
D03*
X8069088D02*
D03*
X8455546D02*
D03*
X9035233D02*
D03*
X7875859D02*
D03*
X7682630D02*
D03*
X7102943D02*
D03*
X6909714D02*
D03*
X6523256D02*
D03*
X7489401D02*
D03*
X6716485D02*
D03*
X6330027D02*
D03*
X7296172D02*
D03*
X12320126D02*
D03*
X11740439D02*
D03*
X11933668D02*
D03*
X12126897D02*
D03*
X11547210D02*
D03*
X11353981D02*
D03*
X11160752D02*
D03*
X10774294D02*
D03*
X10581065D02*
D03*
X10387836D02*
D03*
X10967523D02*
D03*
X18310223D02*
D03*
X18116995D02*
D03*
X17923766D02*
D03*
X17730537D02*
D03*
X17537308D02*
D03*
X17344080D02*
D03*
X17150850D02*
D03*
X15411789D02*
D03*
X16957620D02*
D03*
X16571162D02*
D03*
X16377934D02*
D03*
X16184705D02*
D03*
X15991476D02*
D03*
X15798247D02*
D03*
X15605019D02*
D03*
X16764392D02*
D03*
X15218559D02*
D03*
X15025331D02*
D03*
X14832101D02*
D03*
X14638873D02*
D03*
X14445644D02*
D03*
X14252415D02*
D03*
X14059187D02*
D03*
X13865958D02*
D03*
X13479500D02*
D03*
X13286272D02*
D03*
X13093042D02*
D03*
X12899812D02*
D03*
X12706584D02*
D03*
X12513355D02*
D03*
X13672729D02*
D03*
X26619070D02*
D03*
X26425842D02*
D03*
X26232611D02*
D03*
X25652924D02*
D03*
X25459695D02*
D03*
X25846155D02*
D03*
X26039383D02*
D03*
X25266467D02*
D03*
X33188855D02*
D03*
X32995627D02*
D03*
X32802396D02*
D03*
X32609167D02*
D03*
X32415939D02*
D03*
X32222711D02*
D03*
X31836252D02*
D03*
X31643024D02*
D03*
X31449792D02*
D03*
X31256564D02*
D03*
X31063336D02*
D03*
X32029480D02*
D03*
X30870108D02*
D03*
X23720634D02*
D03*
X22947719D02*
D03*
X23334177D02*
D03*
X22754491D02*
D03*
X23140948D02*
D03*
X23527406D02*
D03*
X23913864D02*
D03*
X25073238D02*
D03*
X24880009D02*
D03*
X24686780D02*
D03*
X24493552D02*
D03*
X24300322D02*
D03*
X24107092D02*
D03*
X22561261D02*
D03*
X22368031D02*
D03*
X22174805D02*
D03*
X21981575D02*
D03*
X21595117D02*
D03*
X21401888D02*
D03*
X21208659D02*
D03*
X21015430D02*
D03*
X21788345D02*
D03*
X28551361D02*
D03*
X28164902D02*
D03*
X27971674D02*
D03*
X27778445D02*
D03*
X27585214D02*
D03*
X27391986D02*
D03*
X26812299D02*
D03*
X27005527D02*
D03*
X27198758D02*
D03*
X28358130D02*
D03*
X28744589D02*
D03*
X30676877D02*
D03*
X30483649D02*
D03*
X30290421D02*
D03*
X30097192D02*
D03*
X29903964D02*
D03*
X29710733D02*
D03*
X29324277D02*
D03*
X29131046D02*
D03*
X29517505D02*
D03*
X28937817D02*
D03*
X33575314D02*
D03*
X33382083D02*
D03*
X33768542Y7030000D02*
D03*
X33961771Y7027500D02*
D03*
X34154999Y7025000D02*
D03*
X19662827Y7030000D02*
D03*
X19655299Y11837500D02*
D03*
X34147473Y11832500D02*
D03*
X33954242Y11835000D02*
D03*
X33761014Y11837500D02*
D03*
X33374557Y11832500D02*
D03*
X33567786D02*
D03*
X28930289D02*
D03*
X29509976D02*
D03*
X29123520D02*
D03*
X29316748D02*
D03*
X29703207D02*
D03*
X29896436D02*
D03*
X30089664D02*
D03*
X30282892D02*
D03*
X30476123D02*
D03*
X30669351D02*
D03*
X28737061D02*
D03*
X28350604D02*
D03*
X27191229D02*
D03*
X26998001D02*
D03*
X26804770D02*
D03*
X27384457D02*
D03*
X27577686D02*
D03*
X27770917D02*
D03*
X27964145D02*
D03*
X28157373D02*
D03*
X28543832D02*
D03*
X21780818D02*
D03*
X21007903D02*
D03*
X21201131D02*
D03*
X21394360D02*
D03*
X21587589D02*
D03*
X21974046D02*
D03*
X22167276D02*
D03*
X22360506D02*
D03*
X22553734D02*
D03*
X24099567D02*
D03*
X24292795D02*
D03*
X24486024D02*
D03*
X24679253D02*
D03*
X24872482D02*
D03*
X25065710D02*
D03*
X23906337D02*
D03*
X23519879D02*
D03*
X23133421D02*
D03*
X22746964D02*
D03*
X23326649D02*
D03*
X22940192D02*
D03*
X23713107D02*
D03*
X30862579D02*
D03*
X32021954D02*
D03*
X31055807D02*
D03*
X31249039D02*
D03*
X31442267D02*
D03*
X31635495D02*
D03*
X31828726D02*
D03*
X32215182D02*
D03*
X32408411D02*
D03*
X32601642D02*
D03*
X32794870D02*
D03*
X32988098D02*
D03*
X33181329D02*
D03*
X25258940D02*
D03*
X26031854D02*
D03*
X25838626D02*
D03*
X25452168D02*
D03*
X25645398D02*
D03*
X26225085D02*
D03*
X26418314D02*
D03*
X26611542D02*
D03*
X13665201D02*
D03*
X12505827D02*
D03*
X12699056D02*
D03*
X12892285D02*
D03*
X13085513D02*
D03*
X13278743D02*
D03*
X13471973D02*
D03*
X13858430D02*
D03*
X14051659D02*
D03*
X14244888D02*
D03*
X14438116D02*
D03*
X14631346D02*
D03*
X14824574D02*
D03*
X15017804D02*
D03*
X15211034D02*
D03*
X16756865D02*
D03*
X15597491D02*
D03*
X15790720D02*
D03*
X15983949D02*
D03*
X16177177D02*
D03*
X16370407D02*
D03*
X16563635D02*
D03*
X16950095D02*
D03*
X15404262D02*
D03*
X17143323D02*
D03*
X17336552D02*
D03*
X17529781D02*
D03*
X17723010D02*
D03*
X17916238D02*
D03*
X18109467D02*
D03*
X18302696D02*
D03*
X10959995D02*
D03*
X10380308D02*
D03*
X10573537D02*
D03*
X10766766D02*
D03*
X11153224D02*
D03*
X11346453D02*
D03*
X11539682D02*
D03*
X12119369D02*
D03*
X11926140D02*
D03*
X11732911D02*
D03*
X12312598D02*
D03*
X7288645D02*
D03*
X6322500D02*
D03*
X6708958D02*
D03*
X7481874D02*
D03*
X6515729D02*
D03*
X6902187D02*
D03*
X7095416D02*
D03*
X7675103D02*
D03*
X7868332D02*
D03*
X9027706D02*
D03*
X8448019D02*
D03*
X8061561D02*
D03*
X8254790D02*
D03*
X8641248D02*
D03*
X8834477D02*
D03*
X9220935D02*
D03*
X9414164D02*
D03*
X9607393D02*
D03*
X9800621D02*
D03*
X9993850D02*
D03*
X10187079D02*
D03*
X20234985D02*
D03*
X20621445D02*
D03*
X19848528D02*
D03*
X20041757D02*
D03*
X20428215D02*
D03*
X20814673D02*
D03*
X18689154D02*
D03*
X18495924D02*
D03*
X19268842D02*
D03*
X19075612D02*
D03*
X18882384D02*
D03*
X19462070D02*
D03*
%TF.MD5,86926c27b416d497d31c80754312ce24*%
M02*
