%TF.GenerationSoftware,Altium Limited,Altium Designer,24.4.1 (13)*%
G04 Layer_Color=8421504*
%FSLAX45Y45*%
%MOMM*%
%TF.SameCoordinates,4FF739F8-A24E-4C84-90D3-729B67262028*%
%TF.FilePolarity,Positive*%
%TF.FileFunction,Paste,Top*%
%TF.Part,Single*%
G01*
G75*
%TA.AperFunction,ConnectorPad*%
%ADD10R,5.08000X1.52000*%
%TA.AperFunction,SMDPad,CuDef*%
%ADD11R,1.40000X0.55000*%
G36*
X11633414Y7867000D02*
X8673414D01*
Y10167000D01*
X11633414D01*
Y7867000D01*
D02*
G37*
G36*
X14648032D02*
X11688031D01*
Y10167000D01*
X14648032D01*
Y7867000D01*
D02*
G37*
G36*
X17662648D02*
X14702647D01*
Y10167000D01*
X17662648D01*
Y7867000D01*
D02*
G37*
G36*
X20677264D02*
X17717265D01*
Y10167000D01*
X20677264D01*
Y7867000D01*
D02*
G37*
G36*
X23691882D02*
X20731882D01*
Y10167000D01*
X23691882D01*
Y7867000D01*
D02*
G37*
G36*
X26706500D02*
X23746500D01*
Y10167000D01*
X26706500D01*
Y7867000D01*
D02*
G37*
G36*
X29724380D02*
X26764383D01*
Y10167000D01*
X29724380D01*
Y7867000D01*
D02*
G37*
G36*
X32738998D02*
X29778998D01*
Y10167000D01*
X32738998D01*
Y7867000D01*
D02*
G37*
%LPC*%
G36*
X11353414Y9897000D02*
X8953414D01*
Y8147000D01*
X11353414D01*
Y9897000D01*
D02*
G37*
%LPD*%
G36*
X11053414Y8417000D02*
X10303414D01*
Y8647000D01*
X10813414D01*
Y8917000D01*
X9503414D01*
Y8647000D01*
X10003414D01*
Y8417000D01*
X9253414D01*
Y9617000D01*
X10003414D01*
Y9387000D01*
X9503414D01*
Y9117000D01*
X10813414D01*
Y9387000D01*
X10303414D01*
Y9617000D01*
X11053414D01*
Y8417000D01*
D02*
G37*
%LPC*%
G36*
X14368031Y9897000D02*
X11968031D01*
Y8147000D01*
X14368031D01*
Y9897000D01*
D02*
G37*
%LPD*%
G36*
X14068031Y8417000D02*
X13318031D01*
Y8647000D01*
X13828030D01*
Y8917000D01*
X12518031D01*
Y8647000D01*
X13018031D01*
Y8417000D01*
X12268031D01*
Y9617000D01*
X13018031D01*
Y9387000D01*
X12518031D01*
Y9117000D01*
X13828030D01*
Y9387000D01*
X13318031D01*
Y9617000D01*
X14068031D01*
Y8417000D01*
D02*
G37*
%LPC*%
G36*
X17382648Y9897000D02*
X14982648D01*
Y8147000D01*
X17382648D01*
Y9897000D01*
D02*
G37*
%LPD*%
G36*
X17082648Y8417000D02*
X16332648D01*
Y8647000D01*
X16842648D01*
Y8917000D01*
X15532648D01*
Y8647000D01*
X16032648D01*
Y8417000D01*
X15282648D01*
Y9617000D01*
X16032648D01*
Y9387000D01*
X15532648D01*
Y9117000D01*
X16842648D01*
Y9387000D01*
X16332648D01*
Y9617000D01*
X17082648D01*
Y8417000D01*
D02*
G37*
%LPC*%
G36*
X20397266Y9897000D02*
X17997266D01*
Y8147000D01*
X20397266D01*
Y9897000D01*
D02*
G37*
%LPD*%
G36*
X20097266Y8417000D02*
X19347266D01*
Y8647000D01*
X19857265D01*
Y8917000D01*
X18547266D01*
Y8647000D01*
X19047266D01*
Y8417000D01*
X18297266D01*
Y9617000D01*
X19047266D01*
Y9387000D01*
X18547266D01*
Y9117000D01*
X19857265D01*
Y9387000D01*
X19347266D01*
Y9617000D01*
X20097266D01*
Y8417000D01*
D02*
G37*
%LPC*%
G36*
X23411882Y9897000D02*
X21011882D01*
Y8147000D01*
X23411882D01*
Y9897000D01*
D02*
G37*
%LPD*%
G36*
X23111882Y8417000D02*
X22361882D01*
Y8647000D01*
X22871883D01*
Y8917000D01*
X21561882D01*
Y8647000D01*
X22061882D01*
Y8417000D01*
X21311882D01*
Y9617000D01*
X22061882D01*
Y9387000D01*
X21561882D01*
Y9117000D01*
X22871883D01*
Y9387000D01*
X22361882D01*
Y9617000D01*
X23111882D01*
Y8417000D01*
D02*
G37*
%LPC*%
G36*
X26426498Y9897000D02*
X24026498D01*
Y8147000D01*
X26426498D01*
Y9897000D01*
D02*
G37*
%LPD*%
G36*
X26126498Y8417000D02*
X25376498D01*
Y8647000D01*
X25886499D01*
Y8917000D01*
X24576498D01*
Y8647000D01*
X25076498D01*
Y8417000D01*
X24326498D01*
Y9617000D01*
X25076498D01*
Y9387000D01*
X24576498D01*
Y9117000D01*
X25886499D01*
Y9387000D01*
X25376498D01*
Y9617000D01*
X26126498D01*
Y8417000D01*
D02*
G37*
%LPC*%
G36*
X29444382Y9897000D02*
X27044382D01*
Y8147000D01*
X29444382D01*
Y9897000D01*
D02*
G37*
%LPD*%
G36*
X29144382Y8417000D02*
X28394382D01*
Y8647000D01*
X28904382D01*
Y8917000D01*
X27594382D01*
Y8647000D01*
X28094382D01*
Y8417000D01*
X27344382D01*
Y9617000D01*
X28094382D01*
Y9387000D01*
X27594382D01*
Y9117000D01*
X28904382D01*
Y9387000D01*
X28394382D01*
Y9617000D01*
X29144382D01*
Y8417000D01*
D02*
G37*
%LPC*%
G36*
X32459000Y9897000D02*
X30059000D01*
Y8147000D01*
X32459000D01*
Y9897000D01*
D02*
G37*
%LPD*%
G36*
X32159000Y8417000D02*
X31409000D01*
Y8647000D01*
X31919000D01*
Y8917000D01*
X30609000D01*
Y8647000D01*
X31109000D01*
Y8417000D01*
X30359000D01*
Y9617000D01*
X31109000D01*
Y9387000D01*
X30609000D01*
Y9117000D01*
X31919000D01*
Y9387000D01*
X31409000D01*
Y9617000D01*
X32159000D01*
Y8417000D01*
D02*
G37*
D10*
X2841500Y9008500D02*
D03*
Y9432500D02*
D03*
Y9856500D02*
D03*
X37283499Y8996000D02*
D03*
Y9420000D02*
D03*
Y9844000D02*
D03*
D11*
X32437500Y9012500D02*
D03*
X32182501D02*
D03*
X27327499Y9015000D02*
D03*
X27072501D02*
D03*
X26407501Y9017500D02*
D03*
X26152499D02*
D03*
X9227500Y9015000D02*
D03*
X8972500D02*
D03*
X30337500Y9000000D02*
D03*
X30082501D02*
D03*
X29164999Y9012500D02*
D03*
X29420001D02*
D03*
X24050000Y9005000D02*
D03*
X24305000D02*
D03*
X23137500Y9020000D02*
D03*
X23392500D02*
D03*
X21287500Y9010000D02*
D03*
X21032500D02*
D03*
X20117500Y9025000D02*
D03*
X20372501D02*
D03*
X18277499Y9015000D02*
D03*
X18022501D02*
D03*
X17105000D02*
D03*
X17360001D02*
D03*
X15242500Y9010000D02*
D03*
X14987500D02*
D03*
X14092500D02*
D03*
X14347501D02*
D03*
X12247500Y9012500D02*
D03*
X11992500D02*
D03*
X11077500Y9022500D02*
D03*
X11332500D02*
D03*
%TF.MD5,e42cd714043e4c7ebaea0abf8ff9c904*%
M02*
