%TF.GenerationSoftware,Altium Limited,Altium Designer,24.4.1 (13)*%
G04 Layer_Physical_Order=4*
G04 Layer_Color=16711680*
%FSLAX45Y45*%
%MOMM*%
%TF.SameCoordinates,4FF739F8-A24E-4C84-90D3-729B67262028*%
%TF.FilePolarity,Positive*%
%TF.FileFunction,Copper,L4,Bot,Signal*%
%TF.Part,Single*%
G01*
G75*
%TA.AperFunction,ConnectorPad*%
%ADD10R,5.08000X1.52000*%
%TA.AperFunction,SMDPad,CuDef*%
%ADD11R,1.40000X0.55000*%
%TA.AperFunction,Conductor*%
%ADD18C,0.38100*%
%TA.AperFunction,ComponentPad*%
%ADD19C,6.99999*%
%ADD20C,1.50800*%
%ADD21R,1.50800X1.50800*%
%TA.AperFunction,ViaPad*%
%ADD22C,1.00000*%
%ADD24C,0.40000*%
%ADD25C,0.50000*%
%TA.AperFunction,SMDPad,CuDef*%
G04:AMPARAMS|DCode=26|XSize=1.57mm|YSize=0.41mm|CornerRadius=0.1025mm|HoleSize=0mm|Usage=FLASHONLY|Rotation=270.000|XOffset=0mm|YOffset=0mm|HoleType=Round|Shape=RoundedRectangle|*
%AMROUNDEDRECTD26*
21,1,1.57000,0.20500,0,0,270.0*
21,1,1.36500,0.41000,0,0,270.0*
1,1,0.20500,-0.10250,-0.68250*
1,1,0.20500,-0.10250,0.68250*
1,1,0.20500,0.10250,0.68250*
1,1,0.20500,0.10250,-0.68250*
%
%ADD26ROUNDEDRECTD26*%
%ADD27R,1.30000X1.10000*%
%ADD28R,1.40000X0.90000*%
%ADD29R,1.00000X0.85000*%
%ADD30R,3.25000X1.95000*%
%ADD31R,0.90000X1.95000*%
%ADD32R,0.85000X1.00000*%
G36*
X22282500Y12637500D02*
X19117500D01*
Y13245000D01*
X22282500D01*
Y12637500D01*
D02*
G37*
G36*
X20445000Y6269508D02*
X20435828Y6260725D01*
X20402499Y6262174D01*
Y6454000D01*
X20357500Y6490000D01*
X19935616Y6485411D01*
X19770000Y6320203D01*
Y5853800D01*
X19450000D01*
Y6628500D01*
X20445000D01*
Y6269508D01*
D02*
G37*
G36*
X20382108Y6444199D02*
Y6262174D01*
X20382799Y6258698D01*
X20383339Y6255196D01*
X20383572Y6254811D01*
X20383659Y6254370D01*
X20385629Y6251424D01*
X20387468Y6248395D01*
X20387831Y6248129D01*
X20388081Y6247755D01*
X20391026Y6245786D01*
X20393884Y6243691D01*
X20394322Y6243584D01*
X20394696Y6243334D01*
X20398174Y6242643D01*
X20401614Y6241801D01*
X20402499Y6241763D01*
Y5925000D01*
X20372893Y5895392D01*
X20277699D01*
Y5897300D01*
X20137700D01*
Y5895392D01*
X20130000D01*
X20122195Y5893840D01*
X20115581Y5889420D01*
X20111160Y5882804D01*
X20109608Y5875000D01*
Y5867500D01*
X19790392D01*
Y6311742D01*
X19944139Y6465111D01*
X20350446Y6469530D01*
X20382108Y6444199D01*
D02*
G37*
G36*
X20447501Y5640000D02*
X20130000Y5640000D01*
Y5875000D01*
X20447501D01*
Y5640000D01*
D02*
G37*
G36*
X19429608Y5853800D02*
X19430000Y5851830D01*
Y5820000D01*
X19695000D01*
Y5627500D01*
X19672501Y5605000D01*
X19337500D01*
X19289999Y5652500D01*
Y6082500D01*
X19429608D01*
Y5853800D01*
D02*
G37*
G36*
X19256335Y5468835D02*
X19045000Y5257500D01*
Y5117500D01*
X18992500Y5065000D01*
X18832500D01*
X18710001Y5187500D01*
Y5767500D01*
X19253783D01*
X19256335Y5468835D01*
D02*
G37*
G36*
X19902499Y5752500D02*
X20110001Y5545000D01*
X20282500Y5545000D01*
Y5437500D01*
X20279816Y5434815D01*
X19852499D01*
X19840862Y5432500D01*
X19587500D01*
X19217500Y5062500D01*
X19125000D01*
X19082500Y5105000D01*
X19082500Y5187500D01*
X19477499Y5582500D01*
X19692500D01*
X19722501Y5612500D01*
Y5730000D01*
X19745000Y5752500D01*
X19902499Y5752500D01*
D02*
G37*
D10*
X2841500Y9008500D02*
D03*
Y9856500D02*
D03*
X37283499Y8996000D02*
D03*
Y9844000D02*
D03*
D11*
X19827200Y5714100D02*
D03*
X19572200D02*
D03*
D18*
X13171297Y9008797D02*
X13172501Y9010000D01*
X13171297Y7851503D02*
Y9008797D01*
Y9011203D02*
X13172501Y9010000D01*
X13171297Y9011203D02*
Y9881297D01*
X20497501Y11165000D02*
Y12450714D01*
X19642500Y11105000D02*
Y12460000D01*
X20488214D02*
X20497501Y12450714D01*
X20907500Y12455715D02*
X20911784Y12460000D01*
X20755151Y6872317D02*
X20913434Y7030600D01*
X20755151Y6415506D02*
Y6872317D01*
X20751151Y6345450D02*
Y6411505D01*
X20755151Y6415506D01*
X20913434Y7030600D02*
X22063100D01*
X20749699Y6344000D02*
X20751151Y6345450D01*
X22215147Y7182648D02*
Y9017000D01*
X22063100Y7030600D02*
X22215147Y7182648D01*
X20881149Y6345450D02*
Y6801150D01*
X20944701Y6344000D02*
Y6744700D01*
X21022501Y6822500D01*
X20881149Y6801150D02*
X20977499Y6897500D01*
X21022501Y6822500D02*
X30245599D01*
X20977499Y6897500D02*
X26810001D01*
X20937500Y6972500D02*
X23842500D01*
X20814700Y6344000D02*
Y6849700D01*
X20937500Y6972500D01*
X23842500D02*
X25226500Y8356500D01*
X26810001Y6897500D02*
X28244382Y8331882D01*
X30245599Y6822500D02*
X31259000Y7835899D01*
X20683250Y6345450D02*
Y6411505D01*
Y6345450D02*
X20684700Y6344000D01*
X19349400Y7018100D02*
X20535266D01*
X19200531Y7166969D02*
X19349400Y7018100D01*
X20679250Y6415506D02*
X20683250Y6411505D01*
X20535266Y7018100D02*
X20679250Y6874117D01*
X19200531Y7166969D02*
Y9017000D01*
X20679250Y6415506D02*
Y6874117D01*
X20412500Y6822500D02*
X20488251Y6746750D01*
Y6345450D02*
Y6746750D01*
X20554700Y6344000D02*
Y6810300D01*
X14132800Y6889999D02*
X20475000D01*
X17560001Y6960000D02*
X20511200D01*
X11215800Y6822500D02*
X20412500D01*
X20475000Y6890000D02*
X20554700Y6810300D01*
X20614250Y6415505D02*
Y6856950D01*
X20511200Y6960000D02*
X20614250Y6856950D01*
X16185915Y8334086D02*
X17560001Y6960000D01*
X13171297Y7851503D02*
X14132800Y6889999D01*
X10156680Y7881620D02*
X11215800Y6822500D01*
X19200531Y9017000D02*
Y9868031D01*
X28244382Y8331882D02*
Y9017000D01*
Y9883118D01*
X16185915Y8334086D02*
Y9017000D01*
X25226500Y8356500D02*
Y9017000D01*
X19959500Y5142500D02*
Y5259500D01*
X20032500Y5332500D01*
X19710233Y5147232D02*
Y5252732D01*
X19852499Y5395000D02*
X20307500D01*
X19710233Y5252732D02*
X19852499Y5395000D01*
X20215172Y5252082D02*
X20237491Y5274400D01*
X20215172Y5144172D02*
Y5252082D01*
X20213499Y5142500D02*
X20215172Y5144172D01*
X20879700Y6344000D02*
X20881149Y6345450D01*
X19378300Y5962500D02*
X19380800Y5965000D01*
X20684700Y5494700D02*
Y5770000D01*
X20307500Y5395000D02*
X20489700Y5577200D01*
X20619701Y5542869D02*
Y5770000D01*
X20554700Y5560034D02*
Y5770000D01*
X20489700Y5577200D02*
Y5770000D01*
X21373100Y5396900D02*
X21499001Y5271000D01*
X21072501Y5455000D02*
X21564999D01*
X21183701Y5338800D02*
X21245000Y5277500D01*
X21028101Y5396900D02*
X21373100D01*
X20996201Y5338800D02*
X21183701D01*
X21564999Y5455000D02*
X21753000Y5267000D01*
X21245000Y5142500D02*
Y5277500D01*
X21499001Y5142500D02*
Y5271000D01*
X20991000Y5142500D02*
Y5261835D01*
X21753000Y5142500D02*
Y5267000D01*
X20488251Y6345450D02*
X20489700Y6344000D01*
X20614250Y6415505D02*
X20618250Y6411505D01*
Y6345450D02*
Y6411505D01*
Y6345450D02*
X20619701Y6344000D01*
X20879700Y5770000D02*
X20881149Y5768550D01*
X20946150Y5581350D02*
Y5768550D01*
Y5581350D02*
X21072501Y5455000D01*
X20881149Y5543850D02*
X21028101Y5396900D01*
X20749699Y5503135D02*
X20991000Y5261835D01*
X20944701Y5770000D02*
X20946150Y5768550D01*
X20749699Y5503135D02*
Y5770000D01*
X20881149Y5543850D02*
Y5768550D01*
X20820151Y5514850D02*
Y5698495D01*
X20816150Y5702495D02*
Y5768550D01*
X20814700Y5770000D02*
X20816150Y5768550D01*
X20820151Y5514850D02*
X20996201Y5338800D01*
X20816150Y5702495D02*
X20820151Y5698495D01*
X20032500Y5332500D02*
X20327167D01*
X20237491Y5274400D02*
X20351231D01*
X20467500Y5142500D02*
Y5277500D01*
X20684700Y5494700D01*
X20327167Y5332500D02*
X20554700Y5560034D01*
X20351231Y5274400D02*
X20619701Y5542869D01*
X19705499Y5142500D02*
X19710233Y5147232D01*
X19375800Y5714100D02*
X19378300Y5716600D01*
X16185915Y9017000D02*
Y9870914D01*
X21335358Y11249643D02*
X22089999Y10495000D01*
X24612500D02*
X25226500Y9881000D01*
X22089999Y10495000D02*
X24612500D01*
X22182500Y11490000D02*
X22337500Y11335000D01*
X29815497D01*
X31259000Y9891499D01*
X22182500Y11490000D02*
Y12460000D01*
X31259000Y9017000D02*
Y9891499D01*
X21758928Y11391072D02*
Y12452500D01*
Y11391072D02*
X22210001Y10940000D01*
X27187500D02*
X28244382Y9883118D01*
X22210001Y10940000D02*
X27187500D01*
X21335358Y11249643D02*
Y12460000D01*
X11620000Y11337500D02*
X19114999D01*
X10156680Y9020111D02*
Y9874180D01*
X11620000Y11337500D01*
X14235001Y10945000D02*
X19482500D01*
X13171297Y9881297D02*
X14235001Y10945000D01*
X16185915Y9870914D02*
X16805000Y10490000D01*
X19377499D01*
X20907500Y11177500D02*
X22215147Y9869852D01*
X20907500Y11177500D02*
Y12455715D01*
X22215147Y9017000D02*
Y9869852D01*
X25226500Y9017000D02*
Y9881000D01*
X19200531Y9868031D02*
X20497501Y11165000D01*
X19377499Y10490000D02*
X20064642Y11177143D01*
Y12460000D01*
X19482500Y10945000D02*
X19642500Y11105000D01*
X19217500Y11440000D02*
Y12460000D01*
X19114999Y11337500D02*
X19217500Y11440000D01*
X10156680Y7881620D02*
Y9020111D01*
X31259000Y7835899D02*
Y9017000D01*
D19*
X37164999Y4732500D02*
D03*
Y12952499D02*
D03*
X2955000Y4732500D02*
D03*
X2937500Y12952499D02*
D03*
D20*
X19164999Y5142500D02*
D03*
X19959500D02*
D03*
X20213499D02*
D03*
X20467500D02*
D03*
X21245000D02*
D03*
X21499001D02*
D03*
X21753000D02*
D03*
D21*
X18911000D02*
D03*
X19705499D02*
D03*
X20991000D02*
D03*
D22*
X37485001Y8997500D02*
D03*
X37262500Y9000000D02*
D03*
X37373749D02*
D03*
X37477499Y9847500D02*
D03*
X37254999Y9850000D02*
D03*
X37366251D02*
D03*
X2872500Y9852500D02*
D03*
X2650000Y9855000D02*
D03*
X2761250D02*
D03*
X2870000Y9005000D02*
D03*
X2647500Y9007500D02*
D03*
X2758750D02*
D03*
D24*
X22100012Y13000008D02*
D03*
X22000012Y12800008D02*
D03*
X21900012Y13000008D02*
D03*
X21800012Y12800008D02*
D03*
X21700012Y13000008D02*
D03*
X21600012Y12800008D02*
D03*
X21500012Y13000008D02*
D03*
X21400012Y12800008D02*
D03*
X21300012Y13000008D02*
D03*
X21200011Y12800008D02*
D03*
X21100011Y13000008D02*
D03*
X21000011Y12800008D02*
D03*
X20900011Y13000008D02*
D03*
X20800011Y12800008D02*
D03*
X20700011Y13000008D02*
D03*
X20600011Y12800008D02*
D03*
X20500011Y13000008D02*
D03*
X20400011Y12800008D02*
D03*
X20300011Y13000008D02*
D03*
X20200011Y12800008D02*
D03*
X20100011Y13000008D02*
D03*
X20000011Y12800008D02*
D03*
X19900011Y13000008D02*
D03*
X19800011Y12800008D02*
D03*
X19700011Y13000008D02*
D03*
X19600011Y12800008D02*
D03*
X19500011Y13000008D02*
D03*
X19400011Y12800008D02*
D03*
X19300011Y13000008D02*
D03*
X19200011Y12800008D02*
D03*
D25*
X19922501Y5902500D02*
D03*
X20085001Y6175000D02*
D03*
X20117500Y6402500D02*
D03*
X20287500Y6002500D02*
D03*
X20275000Y6402500D02*
D03*
X19852499Y6277500D02*
D03*
D03*
X19125000Y5405000D02*
D03*
X18935001Y5492500D02*
D03*
X19122501Y5727500D02*
D03*
X18755000Y5210000D02*
D03*
X18767500Y5720000D02*
D03*
X19495000Y5895000D02*
D03*
D03*
X19722501D02*
D03*
X20397501Y6530000D02*
D03*
X13172501Y9010000D02*
D03*
X16185915Y9017000D02*
D03*
X10156680Y9020111D02*
D03*
X31259000Y9017000D02*
D03*
X28244382D02*
D03*
X25226500D02*
D03*
X22215147D02*
D03*
X19200531D02*
D03*
D26*
X20359700Y6344000D02*
D03*
X20424699D02*
D03*
X20489700D02*
D03*
X20554700D02*
D03*
X20619701D02*
D03*
X20684700D02*
D03*
X20749699D02*
D03*
X20814700D02*
D03*
X20879700D02*
D03*
X20944701D02*
D03*
Y5770000D02*
D03*
X20879700D02*
D03*
X20814700D02*
D03*
X20749699D02*
D03*
X20684700D02*
D03*
X20619701D02*
D03*
X20554700D02*
D03*
X20489700D02*
D03*
X20424699D02*
D03*
X20359700D02*
D03*
D27*
X20064642Y12460000D02*
D03*
Y12690000D02*
D03*
X19217500Y12460000D02*
D03*
Y12690000D02*
D03*
X19641071Y12460000D02*
D03*
Y12690000D02*
D03*
X20911784Y12460000D02*
D03*
Y12690000D02*
D03*
X20488214Y12460000D02*
D03*
Y12690000D02*
D03*
X21335358Y12460000D02*
D03*
Y12690000D02*
D03*
X21758928Y12460000D02*
D03*
Y12690000D02*
D03*
X22182500Y12460000D02*
D03*
Y12690000D02*
D03*
D28*
X20207700Y5684600D02*
D03*
Y5489600D02*
D03*
D29*
X20042599Y6571300D02*
D03*
Y6406300D02*
D03*
X20207700Y5834800D02*
D03*
Y5999800D02*
D03*
D30*
X19610800Y6530000D02*
D03*
D31*
X19380800Y5965000D02*
D03*
X19610800D02*
D03*
X19840800D02*
D03*
D32*
X19375800Y5714100D02*
D03*
X19210800D02*
D03*
%TF.MD5,787eb247d6954cd52024d453702511f8*%
M02*
