%TF.GenerationSoftware,Altium Limited,Altium Designer,24.4.1 (13)*%
G04 Layer_Color=8388736*
%FSLAX45Y45*%
%MOMM*%
%TF.SameCoordinates,4FF739F8-A24E-4C84-90D3-729B67262028*%
%TF.FilePolarity,Negative*%
%TF.FileFunction,Soldermask,Top*%
%TF.Part,Single*%
G01*
G75*
%TA.AperFunction,ViaPad*%
%ADD25C,0.50000*%
%TA.AperFunction,ConnectorPad*%
%ADD37R,5.18000X1.62000*%
%TA.AperFunction,SMDPad,CuDef*%
%ADD38R,1.50000X0.65000*%
%TA.AperFunction,ComponentPad*%
%ADD39C,7.09999*%
%ADD40C,1.60800*%
%ADD41R,1.60800X1.60800*%
G36*
X11634394Y10171928D02*
X11635336Y10171642D01*
X11636205Y10171177D01*
X11636967Y10170553D01*
X11637591Y10169791D01*
X11638055Y10168923D01*
X11638341Y10167980D01*
X11638438Y10167000D01*
Y7867000D01*
X11638341Y7866020D01*
X11638055Y7865077D01*
X11637591Y7864209D01*
X11636967Y7863447D01*
X11636205Y7862823D01*
X11635336Y7862358D01*
X11634394Y7862072D01*
X11633414Y7861976D01*
X8673414D01*
X8672434Y7862072D01*
X8671492Y7862358D01*
X8670623Y7862823D01*
X8669862Y7863447D01*
X8669237Y7864209D01*
X8668773Y7865077D01*
X8668487Y7866020D01*
X8668390Y7867000D01*
Y10167000D01*
X8668487Y10167980D01*
X8668773Y10168923D01*
X8669237Y10169791D01*
X8669862Y10170553D01*
X8670623Y10171177D01*
X8671492Y10171642D01*
X8672434Y10171928D01*
X8673414Y10172024D01*
X11633414D01*
X11634394Y10171928D01*
D02*
G37*
G36*
X14649011D02*
X14649953Y10171642D01*
X14650822Y10171177D01*
X14651584Y10170553D01*
X14652208Y10169791D01*
X14652672Y10168923D01*
X14652959Y10167980D01*
X14653055Y10167000D01*
Y7867000D01*
X14652959Y7866020D01*
X14652672Y7865077D01*
X14652208Y7864209D01*
X14651584Y7863447D01*
X14650822Y7862823D01*
X14649953Y7862358D01*
X14649011Y7862072D01*
X14648032Y7861976D01*
X11688031D01*
X11687051Y7862072D01*
X11686109Y7862358D01*
X11685240Y7862823D01*
X11684479Y7863447D01*
X11683854Y7864209D01*
X11683390Y7865077D01*
X11683104Y7866020D01*
X11683007Y7867000D01*
Y10167000D01*
X11683104Y10167980D01*
X11683390Y10168923D01*
X11683854Y10169791D01*
X11684479Y10170553D01*
X11685240Y10171177D01*
X11686109Y10171642D01*
X11687051Y10171928D01*
X11688031Y10172024D01*
X14648032D01*
X14649011Y10171928D01*
D02*
G37*
G36*
X17663628D02*
X17664571Y10171642D01*
X17665439Y10171177D01*
X17666200Y10170553D01*
X17666824Y10169791D01*
X17667290Y10168923D01*
X17667577Y10167980D01*
X17667673Y10167000D01*
Y7867000D01*
X17667577Y7866020D01*
X17667290Y7865077D01*
X17666824Y7864209D01*
X17666200Y7863447D01*
X17665439Y7862823D01*
X17664571Y7862358D01*
X17663628Y7862072D01*
X17662648Y7861976D01*
X14702647D01*
X14701668Y7862072D01*
X14700726Y7862358D01*
X14699857Y7862823D01*
X14699097Y7863447D01*
X14698471Y7864209D01*
X14698007Y7865077D01*
X14697720Y7866020D01*
X14697624Y7867000D01*
Y10167000D01*
X14697720Y10167980D01*
X14698007Y10168923D01*
X14698471Y10169791D01*
X14699097Y10170553D01*
X14699857Y10171177D01*
X14700726Y10171642D01*
X14701668Y10171928D01*
X14702647Y10172024D01*
X17662648D01*
X17663628Y10171928D01*
D02*
G37*
G36*
X20678246D02*
X20679187Y10171642D01*
X20680057Y10171177D01*
X20680818Y10170553D01*
X20681442Y10169791D01*
X20681908Y10168923D01*
X20682193Y10167980D01*
X20682289Y10167000D01*
Y7867000D01*
X20682193Y7866020D01*
X20681908Y7865077D01*
X20681442Y7864209D01*
X20680818Y7863447D01*
X20680057Y7862823D01*
X20679187Y7862358D01*
X20678246Y7862072D01*
X20677264Y7861976D01*
X17717265D01*
X17716286Y7862072D01*
X17715343Y7862358D01*
X17714474Y7862823D01*
X17713713Y7863447D01*
X17713087Y7864209D01*
X17712624Y7865077D01*
X17712338Y7866020D01*
X17712241Y7867000D01*
Y10167000D01*
X17712338Y10167980D01*
X17712624Y10168923D01*
X17713087Y10169791D01*
X17713713Y10170553D01*
X17714474Y10171177D01*
X17715343Y10171642D01*
X17716286Y10171928D01*
X17717265Y10172024D01*
X20677264D01*
X20678246Y10171928D01*
D02*
G37*
G36*
X23692862D02*
X23693805Y10171642D01*
X23694673Y10171177D01*
X23695435Y10170553D01*
X23696059Y10169791D01*
X23696524Y10168923D01*
X23696809Y10167980D01*
X23696906Y10167000D01*
Y7867000D01*
X23696809Y7866020D01*
X23696524Y7865077D01*
X23696059Y7864209D01*
X23695435Y7863447D01*
X23694673Y7862823D01*
X23693805Y7862358D01*
X23692862Y7862072D01*
X23691882Y7861976D01*
X20731882D01*
X20730902Y7862072D01*
X20729961Y7862358D01*
X20729091Y7862823D01*
X20728329Y7863447D01*
X20727705Y7864209D01*
X20727242Y7865077D01*
X20726955Y7866020D01*
X20726859Y7867000D01*
Y10167000D01*
X20726955Y10167980D01*
X20727242Y10168923D01*
X20727705Y10169791D01*
X20728329Y10170553D01*
X20729091Y10171177D01*
X20729961Y10171642D01*
X20730902Y10171928D01*
X20731882Y10172024D01*
X23691882D01*
X23692862Y10171928D01*
D02*
G37*
G36*
X26707480D02*
X26708423Y10171642D01*
X26709290Y10171177D01*
X26710052Y10170553D01*
X26710675Y10169791D01*
X26711142Y10168923D01*
X26711426Y10167980D01*
X26711523Y10167000D01*
Y7867000D01*
X26711426Y7866020D01*
X26711142Y7865077D01*
X26710675Y7864209D01*
X26710052Y7863447D01*
X26709290Y7862823D01*
X26708423Y7862358D01*
X26707480Y7862072D01*
X26706500Y7861976D01*
X23746500D01*
X23745518Y7862072D01*
X23744577Y7862358D01*
X23743707Y7862823D01*
X23742947Y7863447D01*
X23742322Y7864209D01*
X23741858Y7865077D01*
X23741573Y7866020D01*
X23741475Y7867000D01*
Y10167000D01*
X23741573Y10167980D01*
X23741858Y10168923D01*
X23742322Y10169791D01*
X23742947Y10170553D01*
X23743707Y10171177D01*
X23744577Y10171642D01*
X23745518Y10171928D01*
X23746500Y10172024D01*
X26706500D01*
X26707480Y10171928D01*
D02*
G37*
G36*
X29725363D02*
X29726306Y10171642D01*
X29727173Y10171177D01*
X29727936Y10170553D01*
X29728558Y10169791D01*
X29729025Y10168923D01*
X29729309Y10167980D01*
X29729407Y10167000D01*
Y7867000D01*
X29729309Y7866020D01*
X29729025Y7865077D01*
X29728558Y7864209D01*
X29727936Y7863447D01*
X29727173Y7862823D01*
X29726306Y7862358D01*
X29725363Y7862072D01*
X29724380Y7861976D01*
X26764383D01*
X26763403Y7862072D01*
X26762460Y7862358D01*
X26761591Y7862823D01*
X26760831Y7863447D01*
X26760205Y7864209D01*
X26759741Y7865077D01*
X26759454Y7866020D01*
X26759357Y7867000D01*
Y10167000D01*
X26759454Y10167980D01*
X26759741Y10168923D01*
X26760205Y10169791D01*
X26760831Y10170553D01*
X26761591Y10171177D01*
X26762460Y10171642D01*
X26763403Y10171928D01*
X26764383Y10172024D01*
X29724380D01*
X29725363Y10171928D01*
D02*
G37*
G36*
X32739978D02*
X32740921Y10171642D01*
X32741791Y10171177D01*
X32742551Y10170553D01*
X32743176Y10169791D01*
X32743640Y10168923D01*
X32743927Y10167980D01*
X32744022Y10167000D01*
Y7867000D01*
X32743927Y7866020D01*
X32743640Y7865077D01*
X32743176Y7864209D01*
X32742551Y7863447D01*
X32741791Y7862823D01*
X32740921Y7862358D01*
X32739978Y7862072D01*
X32738998Y7861976D01*
X29778998D01*
X29778018Y7862072D01*
X29777078Y7862358D01*
X29776208Y7862823D01*
X29775446Y7863447D01*
X29774823Y7864209D01*
X29774359Y7865077D01*
X29774072Y7866020D01*
X29773975Y7867000D01*
Y10167000D01*
X29774072Y10167980D01*
X29774359Y10168923D01*
X29774823Y10169791D01*
X29775446Y10170553D01*
X29776208Y10171177D01*
X29777078Y10171642D01*
X29778018Y10171928D01*
X29778998Y10172024D01*
X32738998D01*
X32739978Y10171928D01*
D02*
G37*
%LPC*%
G36*
X11348390Y9891976D02*
X8958438D01*
Y8152024D01*
X11348390D01*
Y9891976D01*
D02*
G37*
%LPD*%
G36*
X11054394Y9621928D02*
X11055337Y9621642D01*
X11056205Y9621177D01*
X11056967Y9620553D01*
X11057591Y9619791D01*
X11058056Y9618923D01*
X11058342Y9617980D01*
X11058438Y9617000D01*
Y8417000D01*
X11058342Y8416020D01*
X11058056Y8415077D01*
X11057591Y8414209D01*
X11056967Y8413447D01*
X11056205Y8412823D01*
X11055337Y8412358D01*
X11054394Y8412072D01*
X11053414Y8411976D01*
X10303414D01*
X10302434Y8412072D01*
X10301491Y8412358D01*
X10300623Y8412823D01*
X10299861Y8413447D01*
X10299237Y8414209D01*
X10298772Y8415077D01*
X10298486Y8416020D01*
X10298390Y8417000D01*
Y8647000D01*
X10298486Y8647980D01*
X10298772Y8648923D01*
X10299237Y8649791D01*
X10299861Y8650553D01*
X10300623Y8651177D01*
X10301491Y8651642D01*
X10302434Y8651928D01*
X10303414Y8652024D01*
X10808390D01*
Y8911976D01*
X9508438D01*
Y8652024D01*
X10003414D01*
X10004394Y8651928D01*
X10005337Y8651642D01*
X10006205Y8651177D01*
X10006967Y8650553D01*
X10007591Y8649791D01*
X10008056Y8648923D01*
X10008342Y8647980D01*
X10008438Y8647000D01*
Y8417000D01*
X10008342Y8416020D01*
X10008056Y8415077D01*
X10007591Y8414209D01*
X10006967Y8413447D01*
X10006205Y8412823D01*
X10005337Y8412358D01*
X10004394Y8412072D01*
X10003414Y8411976D01*
X9253414D01*
X9252434Y8412072D01*
X9251492Y8412358D01*
X9250623Y8412823D01*
X9249861Y8413447D01*
X9249237Y8414209D01*
X9248772Y8415077D01*
X9248486Y8416020D01*
X9248390Y8417000D01*
Y9617000D01*
X9248486Y9617980D01*
X9248772Y9618923D01*
X9249237Y9619791D01*
X9249861Y9620553D01*
X9250623Y9621177D01*
X9251492Y9621642D01*
X9252434Y9621928D01*
X9253414Y9622024D01*
X10003414D01*
X10004394Y9621928D01*
X10005337Y9621642D01*
X10006205Y9621177D01*
X10006967Y9620553D01*
X10007591Y9619791D01*
X10008056Y9618923D01*
X10008342Y9617980D01*
X10008438Y9617000D01*
Y9387000D01*
X10008342Y9386020D01*
X10008056Y9385077D01*
X10007591Y9384209D01*
X10006967Y9383447D01*
X10006205Y9382823D01*
X10005337Y9382358D01*
X10004394Y9382072D01*
X10003414Y9381976D01*
X9508438D01*
Y9122024D01*
X10808390D01*
Y9381976D01*
X10303414D01*
X10302434Y9382072D01*
X10301491Y9382358D01*
X10300623Y9382823D01*
X10299861Y9383447D01*
X10299237Y9384209D01*
X10298772Y9385077D01*
X10298486Y9386020D01*
X10298390Y9387000D01*
Y9617000D01*
X10298486Y9617980D01*
X10298772Y9618923D01*
X10299237Y9619791D01*
X10299861Y9620553D01*
X10300623Y9621177D01*
X10301491Y9621642D01*
X10302434Y9621928D01*
X10303414Y9622024D01*
X11053414D01*
X11054394Y9621928D01*
D02*
G37*
%LPC*%
G36*
X14363007Y9891976D02*
X11973055D01*
Y8152024D01*
X14363007D01*
Y9891976D01*
D02*
G37*
%LPD*%
G36*
X14069011Y9621928D02*
X14069954Y9621642D01*
X14070822Y9621177D01*
X14071584Y9620553D01*
X14072208Y9619791D01*
X14072673Y9618923D01*
X14072958Y9617980D01*
X14073055Y9617000D01*
Y8417000D01*
X14072958Y8416020D01*
X14072673Y8415077D01*
X14072208Y8414209D01*
X14071584Y8413447D01*
X14070822Y8412823D01*
X14069954Y8412358D01*
X14069011Y8412072D01*
X14068031Y8411976D01*
X13318031D01*
X13317052Y8412072D01*
X13316109Y8412358D01*
X13315240Y8412823D01*
X13314478Y8413447D01*
X13313853Y8414209D01*
X13313390Y8415077D01*
X13313103Y8416020D01*
X13313007Y8417000D01*
Y8647000D01*
X13313103Y8647980D01*
X13313390Y8648923D01*
X13313853Y8649791D01*
X13314478Y8650553D01*
X13315240Y8651177D01*
X13316109Y8651642D01*
X13317052Y8651928D01*
X13318031Y8652024D01*
X13823007D01*
Y8911976D01*
X12523055D01*
Y8652024D01*
X13018031D01*
X13019011Y8651928D01*
X13019954Y8651642D01*
X13020822Y8651177D01*
X13021584Y8650553D01*
X13022208Y8649791D01*
X13022673Y8648923D01*
X13022958Y8647980D01*
X13023055Y8647000D01*
Y8417000D01*
X13022958Y8416020D01*
X13022673Y8415077D01*
X13022208Y8414209D01*
X13021584Y8413447D01*
X13020822Y8412823D01*
X13019954Y8412358D01*
X13019011Y8412072D01*
X13018031Y8411976D01*
X12268031D01*
X12267051Y8412072D01*
X12266109Y8412358D01*
X12265240Y8412823D01*
X12264478Y8413447D01*
X12263854Y8414209D01*
X12263389Y8415077D01*
X12263103Y8416020D01*
X12263007Y8417000D01*
Y9617000D01*
X12263103Y9617980D01*
X12263389Y9618923D01*
X12263854Y9619791D01*
X12264478Y9620553D01*
X12265240Y9621177D01*
X12266109Y9621642D01*
X12267051Y9621928D01*
X12268031Y9622024D01*
X13018031D01*
X13019011Y9621928D01*
X13019954Y9621642D01*
X13020822Y9621177D01*
X13021584Y9620553D01*
X13022208Y9619791D01*
X13022673Y9618923D01*
X13022958Y9617980D01*
X13023055Y9617000D01*
Y9387000D01*
X13022958Y9386020D01*
X13022673Y9385077D01*
X13022208Y9384209D01*
X13021584Y9383447D01*
X13020822Y9382823D01*
X13019954Y9382358D01*
X13019011Y9382072D01*
X13018031Y9381976D01*
X12523055D01*
Y9122024D01*
X13823007D01*
Y9381976D01*
X13318031D01*
X13317052Y9382072D01*
X13316109Y9382358D01*
X13315240Y9382823D01*
X13314478Y9383447D01*
X13313853Y9384209D01*
X13313390Y9385077D01*
X13313103Y9386020D01*
X13313007Y9387000D01*
Y9617000D01*
X13313103Y9617980D01*
X13313390Y9618923D01*
X13313853Y9619791D01*
X13314478Y9620553D01*
X13315240Y9621177D01*
X13316109Y9621642D01*
X13317052Y9621928D01*
X13318031Y9622024D01*
X14068031D01*
X14069011Y9621928D01*
D02*
G37*
%LPC*%
G36*
X17377625Y9891976D02*
X14987672D01*
Y8152024D01*
X17377625D01*
Y9891976D01*
D02*
G37*
%LPD*%
G36*
X17083627Y9621928D02*
X17084570Y9621642D01*
X17085439Y9621177D01*
X17086201Y9620553D01*
X17086826Y9619791D01*
X17087289Y9618923D01*
X17087576Y9617980D01*
X17087672Y9617000D01*
Y8417000D01*
X17087576Y8416020D01*
X17087289Y8415077D01*
X17086826Y8414209D01*
X17086201Y8413447D01*
X17085439Y8412823D01*
X17084570Y8412358D01*
X17083627Y8412072D01*
X17082648Y8411976D01*
X16332648D01*
X16331668Y8412072D01*
X16330727Y8412358D01*
X16329857Y8412823D01*
X16329095Y8413447D01*
X16328471Y8414209D01*
X16328006Y8415077D01*
X16327721Y8416020D01*
X16327625Y8417000D01*
Y8647000D01*
X16327721Y8647980D01*
X16328006Y8648923D01*
X16328471Y8649791D01*
X16329095Y8650553D01*
X16329857Y8651177D01*
X16330727Y8651642D01*
X16331668Y8651928D01*
X16332648Y8652024D01*
X16837624D01*
Y8911976D01*
X15537672D01*
Y8652024D01*
X16032648D01*
X16033627Y8651928D01*
X16034570Y8651642D01*
X16035439Y8651177D01*
X16036201Y8650553D01*
X16036826Y8649791D01*
X16037289Y8648923D01*
X16037576Y8647980D01*
X16037672Y8647000D01*
Y8417000D01*
X16037576Y8416020D01*
X16037289Y8415077D01*
X16036826Y8414209D01*
X16036201Y8413447D01*
X16035439Y8412823D01*
X16034570Y8412358D01*
X16033627Y8412072D01*
X16032648Y8411976D01*
X15282648D01*
X15281668Y8412072D01*
X15280727Y8412358D01*
X15279857Y8412823D01*
X15279095Y8413447D01*
X15278471Y8414209D01*
X15278008Y8415077D01*
X15277721Y8416020D01*
X15277625Y8417000D01*
Y9617000D01*
X15277721Y9617980D01*
X15278008Y9618923D01*
X15278471Y9619791D01*
X15279095Y9620553D01*
X15279857Y9621177D01*
X15280727Y9621642D01*
X15281668Y9621928D01*
X15282648Y9622024D01*
X16032648D01*
X16033627Y9621928D01*
X16034570Y9621642D01*
X16035439Y9621177D01*
X16036201Y9620553D01*
X16036826Y9619791D01*
X16037289Y9618923D01*
X16037576Y9617980D01*
X16037672Y9617000D01*
Y9387000D01*
X16037576Y9386020D01*
X16037289Y9385077D01*
X16036826Y9384209D01*
X16036201Y9383447D01*
X16035439Y9382823D01*
X16034570Y9382358D01*
X16033627Y9382072D01*
X16032648Y9381976D01*
X15537672D01*
Y9122024D01*
X16837624D01*
Y9381976D01*
X16332648D01*
X16331668Y9382072D01*
X16330727Y9382358D01*
X16329857Y9382823D01*
X16329095Y9383447D01*
X16328471Y9384209D01*
X16328006Y9385077D01*
X16327721Y9386020D01*
X16327625Y9387000D01*
Y9617000D01*
X16327721Y9617980D01*
X16328006Y9618923D01*
X16328471Y9619791D01*
X16329095Y9620553D01*
X16329857Y9621177D01*
X16330727Y9621642D01*
X16331668Y9621928D01*
X16332648Y9622024D01*
X17082648D01*
X17083627Y9621928D01*
D02*
G37*
%LPC*%
G36*
X20392241Y9891976D02*
X18002289D01*
Y8152024D01*
X20392241D01*
Y9891976D01*
D02*
G37*
%LPD*%
G36*
X20098245Y9621928D02*
X20099188Y9621642D01*
X20100056Y9621177D01*
X20100818Y9620553D01*
X20101442Y9619791D01*
X20101907Y9618923D01*
X20102193Y9617980D01*
X20102289Y9617000D01*
Y8417000D01*
X20102193Y8416020D01*
X20101907Y8415077D01*
X20101442Y8414209D01*
X20100818Y8413447D01*
X20100056Y8412823D01*
X20099188Y8412358D01*
X20098245Y8412072D01*
X20097266Y8411976D01*
X19347266D01*
X19346284Y8412072D01*
X19345343Y8412358D01*
X19344473Y8412823D01*
X19343712Y8413447D01*
X19343088Y8414209D01*
X19342622Y8415077D01*
X19342337Y8416020D01*
X19342241Y8417000D01*
Y8647000D01*
X19342337Y8647980D01*
X19342622Y8648923D01*
X19343088Y8649791D01*
X19343712Y8650553D01*
X19344473Y8651177D01*
X19345343Y8651642D01*
X19346284Y8651928D01*
X19347266Y8652024D01*
X19852242D01*
Y8911976D01*
X18552289D01*
Y8652024D01*
X19047266D01*
X19048245Y8651928D01*
X19049188Y8651642D01*
X19050056Y8651177D01*
X19050818Y8650553D01*
X19051442Y8649791D01*
X19051907Y8648923D01*
X19052193Y8647980D01*
X19052289Y8647000D01*
Y8417000D01*
X19052193Y8416020D01*
X19051907Y8415077D01*
X19051442Y8414209D01*
X19050818Y8413447D01*
X19050056Y8412823D01*
X19049188Y8412358D01*
X19048245Y8412072D01*
X19047266Y8411976D01*
X18297266D01*
X18296284Y8412072D01*
X18295343Y8412358D01*
X18294473Y8412823D01*
X18293712Y8413447D01*
X18293088Y8414209D01*
X18292624Y8415077D01*
X18292339Y8416020D01*
X18292241Y8417000D01*
Y9617000D01*
X18292339Y9617980D01*
X18292624Y9618923D01*
X18293088Y9619791D01*
X18293712Y9620553D01*
X18294473Y9621177D01*
X18295343Y9621642D01*
X18296284Y9621928D01*
X18297266Y9622024D01*
X19047266D01*
X19048245Y9621928D01*
X19049188Y9621642D01*
X19050056Y9621177D01*
X19050818Y9620553D01*
X19051442Y9619791D01*
X19051907Y9618923D01*
X19052193Y9617980D01*
X19052289Y9617000D01*
Y9387000D01*
X19052193Y9386020D01*
X19051907Y9385077D01*
X19051442Y9384209D01*
X19050818Y9383447D01*
X19050056Y9382823D01*
X19049188Y9382358D01*
X19048245Y9382072D01*
X19047266Y9381976D01*
X18552289D01*
Y9122024D01*
X19852242D01*
Y9381976D01*
X19347266D01*
X19346284Y9382072D01*
X19345343Y9382358D01*
X19344473Y9382823D01*
X19343712Y9383447D01*
X19343088Y9384209D01*
X19342622Y9385077D01*
X19342337Y9386020D01*
X19342241Y9387000D01*
Y9617000D01*
X19342337Y9617980D01*
X19342622Y9618923D01*
X19343088Y9619791D01*
X19343712Y9620553D01*
X19344473Y9621177D01*
X19345343Y9621642D01*
X19346284Y9621928D01*
X19347266Y9622024D01*
X20097266D01*
X20098245Y9621928D01*
D02*
G37*
%LPC*%
G36*
X23406857Y9891976D02*
X21016907D01*
Y8152024D01*
X23406857D01*
Y9891976D01*
D02*
G37*
%LPD*%
G36*
X23112862Y9621928D02*
X23113805Y9621642D01*
X23114673Y9621177D01*
X23115434Y9620553D01*
X23116058Y9619791D01*
X23116524Y9618923D01*
X23116811Y9617980D01*
X23116907Y9617000D01*
Y8417000D01*
X23116811Y8416020D01*
X23116524Y8415077D01*
X23116058Y8414209D01*
X23115434Y8413447D01*
X23114673Y8412823D01*
X23113805Y8412358D01*
X23112862Y8412072D01*
X23111882Y8411976D01*
X22361882D01*
X22360902Y8412072D01*
X22359959Y8412358D01*
X22359091Y8412823D01*
X22358328Y8413447D01*
X22357706Y8414209D01*
X22357240Y8415077D01*
X22356955Y8416020D01*
X22356857Y8417000D01*
Y8647000D01*
X22356955Y8647980D01*
X22357240Y8648923D01*
X22357706Y8649791D01*
X22358328Y8650553D01*
X22359091Y8651177D01*
X22359959Y8651642D01*
X22360902Y8651928D01*
X22361882Y8652024D01*
X22866858D01*
Y8911976D01*
X21566907D01*
Y8652024D01*
X22061882D01*
X22062862Y8651928D01*
X22063805Y8651642D01*
X22064673Y8651177D01*
X22065434Y8650553D01*
X22066058Y8649791D01*
X22066524Y8648923D01*
X22066811Y8647980D01*
X22066907Y8647000D01*
Y8417000D01*
X22066811Y8416020D01*
X22066524Y8415077D01*
X22066058Y8414209D01*
X22065434Y8413447D01*
X22064673Y8412823D01*
X22063805Y8412358D01*
X22062862Y8412072D01*
X22061882Y8411976D01*
X21311882D01*
X21310902Y8412072D01*
X21309959Y8412358D01*
X21309091Y8412823D01*
X21308328Y8413447D01*
X21307706Y8414209D01*
X21307240Y8415077D01*
X21306955Y8416020D01*
X21306857Y8417000D01*
Y9617000D01*
X21306955Y9617980D01*
X21307240Y9618923D01*
X21307706Y9619791D01*
X21308328Y9620553D01*
X21309091Y9621177D01*
X21309959Y9621642D01*
X21310902Y9621928D01*
X21311882Y9622024D01*
X22061882D01*
X22062862Y9621928D01*
X22063805Y9621642D01*
X22064673Y9621177D01*
X22065434Y9620553D01*
X22066058Y9619791D01*
X22066524Y9618923D01*
X22066811Y9617980D01*
X22066907Y9617000D01*
Y9387000D01*
X22066811Y9386020D01*
X22066524Y9385077D01*
X22066058Y9384209D01*
X22065434Y9383447D01*
X22064673Y9382823D01*
X22063805Y9382358D01*
X22062862Y9382072D01*
X22061882Y9381976D01*
X21566907D01*
Y9122024D01*
X22866858D01*
Y9381976D01*
X22361882D01*
X22360902Y9382072D01*
X22359959Y9382358D01*
X22359091Y9382823D01*
X22358328Y9383447D01*
X22357706Y9384209D01*
X22357240Y9385077D01*
X22356955Y9386020D01*
X22356857Y9387000D01*
Y9617000D01*
X22356955Y9617980D01*
X22357240Y9618923D01*
X22357706Y9619791D01*
X22358328Y9620553D01*
X22359091Y9621177D01*
X22359959Y9621642D01*
X22360902Y9621928D01*
X22361882Y9622024D01*
X23111882D01*
X23112862Y9621928D01*
D02*
G37*
%LPC*%
G36*
X26421475Y9891976D02*
X24031523D01*
Y8152024D01*
X26421475D01*
Y9891976D01*
D02*
G37*
%LPD*%
G36*
X26127478Y9621928D02*
X26128421Y9621642D01*
X26129291Y9621177D01*
X26130051Y9620553D01*
X26130676Y9619791D01*
X26131140Y9618923D01*
X26131427Y9617980D01*
X26131522Y9617000D01*
Y8417000D01*
X26131427Y8416020D01*
X26131140Y8415077D01*
X26130676Y8414209D01*
X26130051Y8413447D01*
X26129291Y8412823D01*
X26128421Y8412358D01*
X26127478Y8412072D01*
X26126498Y8411976D01*
X25376498D01*
X25375519Y8412072D01*
X25374577Y8412358D01*
X25373708Y8412823D01*
X25372946Y8413447D01*
X25372322Y8414209D01*
X25371858Y8415077D01*
X25371571Y8416020D01*
X25371475Y8417000D01*
Y8647000D01*
X25371571Y8647980D01*
X25371858Y8648923D01*
X25372322Y8649791D01*
X25372946Y8650553D01*
X25373708Y8651177D01*
X25374577Y8651642D01*
X25375519Y8651928D01*
X25376498Y8652024D01*
X25881476D01*
Y8911976D01*
X24581523D01*
Y8652024D01*
X25076498D01*
X25077480Y8651928D01*
X25078423Y8651642D01*
X25079289Y8651177D01*
X25080052Y8650553D01*
X25080676Y8649791D01*
X25081142Y8648923D01*
X25081427Y8647980D01*
X25081523Y8647000D01*
Y8417000D01*
X25081427Y8416020D01*
X25081142Y8415077D01*
X25080676Y8414209D01*
X25080052Y8413447D01*
X25079289Y8412823D01*
X25078423Y8412358D01*
X25077480Y8412072D01*
X25076498Y8411976D01*
X24326498D01*
X24325519Y8412072D01*
X24324577Y8412358D01*
X24323708Y8412823D01*
X24322948Y8413447D01*
X24322322Y8414209D01*
X24321858Y8415077D01*
X24321571Y8416020D01*
X24321475Y8417000D01*
Y9617000D01*
X24321571Y9617980D01*
X24321858Y9618923D01*
X24322322Y9619791D01*
X24322948Y9620553D01*
X24323708Y9621177D01*
X24324577Y9621642D01*
X24325519Y9621928D01*
X24326498Y9622024D01*
X25076498D01*
X25077480Y9621928D01*
X25078423Y9621642D01*
X25079289Y9621177D01*
X25080052Y9620553D01*
X25080676Y9619791D01*
X25081142Y9618923D01*
X25081427Y9617980D01*
X25081523Y9617000D01*
Y9387000D01*
X25081427Y9386020D01*
X25081142Y9385077D01*
X25080676Y9384209D01*
X25080052Y9383447D01*
X25079289Y9382823D01*
X25078423Y9382358D01*
X25077480Y9382072D01*
X25076498Y9381976D01*
X24581523D01*
Y9122024D01*
X25881476D01*
Y9381976D01*
X25376498D01*
X25375519Y9382072D01*
X25374577Y9382358D01*
X25373708Y9382823D01*
X25372946Y9383447D01*
X25372322Y9384209D01*
X25371858Y9385077D01*
X25371571Y9386020D01*
X25371475Y9387000D01*
Y9617000D01*
X25371571Y9617980D01*
X25371858Y9618923D01*
X25372322Y9619791D01*
X25372946Y9620553D01*
X25373708Y9621177D01*
X25374577Y9621642D01*
X25375519Y9621928D01*
X25376498Y9622024D01*
X26126498D01*
X26127478Y9621928D01*
D02*
G37*
%LPC*%
G36*
X29439359Y9891976D02*
X27049405D01*
Y8152024D01*
X29439359D01*
Y9891976D01*
D02*
G37*
%LPD*%
G36*
X29145361Y9621928D02*
X29146304Y9621642D01*
X29147174Y9621177D01*
X29147934Y9620553D01*
X29148560Y9619791D01*
X29149023Y9618923D01*
X29149310Y9617980D01*
X29149405Y9617000D01*
Y8417000D01*
X29149310Y8416020D01*
X29149023Y8415077D01*
X29148560Y8414209D01*
X29147934Y8413447D01*
X29147174Y8412823D01*
X29146304Y8412358D01*
X29145361Y8412072D01*
X29144382Y8411976D01*
X28394382D01*
X28393402Y8412072D01*
X28392459Y8412358D01*
X28391592Y8412823D01*
X28390829Y8413447D01*
X28390204Y8414209D01*
X28389740Y8415077D01*
X28389456Y8416020D01*
X28389359Y8417000D01*
Y8647000D01*
X28389456Y8647980D01*
X28389740Y8648923D01*
X28390204Y8649791D01*
X28390829Y8650553D01*
X28391592Y8651177D01*
X28392459Y8651642D01*
X28393402Y8651928D01*
X28394382Y8652024D01*
X28899359D01*
Y8911976D01*
X27599405D01*
Y8652024D01*
X28094382D01*
X28095361Y8651928D01*
X28096304Y8651642D01*
X28097174Y8651177D01*
X28097934Y8650553D01*
X28098560Y8649791D01*
X28099023Y8648923D01*
X28099310Y8647980D01*
X28099405Y8647000D01*
Y8417000D01*
X28099310Y8416020D01*
X28099023Y8415077D01*
X28098560Y8414209D01*
X28097934Y8413447D01*
X28097174Y8412823D01*
X28096304Y8412358D01*
X28095361Y8412072D01*
X28094382Y8411976D01*
X27344382D01*
X27343402Y8412072D01*
X27342459Y8412358D01*
X27341592Y8412823D01*
X27340829Y8413447D01*
X27340204Y8414209D01*
X27339740Y8415077D01*
X27339456Y8416020D01*
X27339359Y8417000D01*
Y9617000D01*
X27339456Y9617980D01*
X27339740Y9618923D01*
X27340204Y9619791D01*
X27340829Y9620553D01*
X27341592Y9621177D01*
X27342459Y9621642D01*
X27343402Y9621928D01*
X27344382Y9622024D01*
X28094382D01*
X28095361Y9621928D01*
X28096304Y9621642D01*
X28097174Y9621177D01*
X28097934Y9620553D01*
X28098560Y9619791D01*
X28099023Y9618923D01*
X28099310Y9617980D01*
X28099405Y9617000D01*
Y9387000D01*
X28099310Y9386020D01*
X28099023Y9385077D01*
X28098560Y9384209D01*
X28097934Y9383447D01*
X28097174Y9382823D01*
X28096304Y9382358D01*
X28095361Y9382072D01*
X28094382Y9381976D01*
X27599405D01*
Y9122024D01*
X28899359D01*
Y9381976D01*
X28394382D01*
X28393402Y9382072D01*
X28392459Y9382358D01*
X28391592Y9382823D01*
X28390829Y9383447D01*
X28390204Y9384209D01*
X28389740Y9385077D01*
X28389456Y9386020D01*
X28389359Y9387000D01*
Y9617000D01*
X28389456Y9617980D01*
X28389740Y9618923D01*
X28390204Y9619791D01*
X28390829Y9620553D01*
X28391592Y9621177D01*
X28392459Y9621642D01*
X28393402Y9621928D01*
X28394382Y9622024D01*
X29144382D01*
X29145361Y9621928D01*
D02*
G37*
%LPC*%
G36*
X32453976Y9891976D02*
X30064023D01*
Y8152024D01*
X32453976D01*
Y9891976D01*
D02*
G37*
%LPD*%
G36*
X32159979Y9621928D02*
X32160922Y9621642D01*
X32161789Y9621177D01*
X32162552Y9620553D01*
X32163177Y9619791D01*
X32163641Y9618923D01*
X32163928Y9617980D01*
X32164023Y9617000D01*
Y8417000D01*
X32163928Y8416020D01*
X32163641Y8415077D01*
X32163177Y8414209D01*
X32162552Y8413447D01*
X32161789Y8412823D01*
X32160922Y8412358D01*
X32159979Y8412072D01*
X32159000Y8411976D01*
X31409000D01*
X31408020Y8412072D01*
X31407077Y8412358D01*
X31406207Y8412823D01*
X31405447Y8413447D01*
X31404822Y8414209D01*
X31404358Y8415077D01*
X31404071Y8416020D01*
X31403976Y8417000D01*
Y8647000D01*
X31404071Y8647980D01*
X31404358Y8648923D01*
X31404822Y8649791D01*
X31405447Y8650553D01*
X31406207Y8651177D01*
X31407077Y8651642D01*
X31408020Y8651928D01*
X31409000Y8652024D01*
X31913974D01*
Y8911976D01*
X30614023D01*
Y8652024D01*
X31109000D01*
X31109979Y8651928D01*
X31110922Y8651642D01*
X31111789Y8651177D01*
X31112552Y8650553D01*
X31113177Y8649791D01*
X31113641Y8648923D01*
X31113928Y8647980D01*
X31114023Y8647000D01*
Y8417000D01*
X31113928Y8416020D01*
X31113641Y8415077D01*
X31113177Y8414209D01*
X31112552Y8413447D01*
X31111789Y8412823D01*
X31110922Y8412358D01*
X31109979Y8412072D01*
X31109000Y8411976D01*
X30359000D01*
X30358020Y8412072D01*
X30357077Y8412358D01*
X30356207Y8412823D01*
X30355447Y8413447D01*
X30354822Y8414209D01*
X30354358Y8415077D01*
X30354071Y8416020D01*
X30353976Y8417000D01*
Y9617000D01*
X30354071Y9617980D01*
X30354358Y9618923D01*
X30354822Y9619791D01*
X30355447Y9620553D01*
X30356207Y9621177D01*
X30357077Y9621642D01*
X30358020Y9621928D01*
X30359000Y9622024D01*
X31109000D01*
X31109979Y9621928D01*
X31110922Y9621642D01*
X31111789Y9621177D01*
X31112552Y9620553D01*
X31113177Y9619791D01*
X31113641Y9618923D01*
X31113928Y9617980D01*
X31114023Y9617000D01*
Y9387000D01*
X31113928Y9386020D01*
X31113641Y9385077D01*
X31113177Y9384209D01*
X31112552Y9383447D01*
X31111789Y9382823D01*
X31110922Y9382358D01*
X31109979Y9382072D01*
X31109000Y9381976D01*
X30614023D01*
Y9122024D01*
X31913974D01*
Y9381976D01*
X31409000D01*
X31408020Y9382072D01*
X31407077Y9382358D01*
X31406207Y9382823D01*
X31405447Y9383447D01*
X31404822Y9384209D01*
X31404358Y9385077D01*
X31404071Y9386020D01*
X31403976Y9387000D01*
Y9617000D01*
X31404071Y9617980D01*
X31404358Y9618923D01*
X31404822Y9619791D01*
X31405447Y9620553D01*
X31406207Y9621177D01*
X31407077Y9621642D01*
X31408020Y9621928D01*
X31409000Y9622024D01*
X32159000D01*
X32159979Y9621928D01*
D02*
G37*
D25*
X22100012Y13000008D02*
D03*
X22000012Y12800008D02*
D03*
X21900012Y13000008D02*
D03*
X21800012Y12800008D02*
D03*
X21700012Y13000008D02*
D03*
X21600012Y12800008D02*
D03*
X21500012Y13000008D02*
D03*
X21400012Y12800008D02*
D03*
X21300012Y13000008D02*
D03*
X21200011Y12800008D02*
D03*
X21100011Y13000008D02*
D03*
X21000011Y12800008D02*
D03*
X20900011Y13000008D02*
D03*
X20800011Y12800008D02*
D03*
X20700011Y13000008D02*
D03*
X20600011Y12800008D02*
D03*
X20500011Y13000008D02*
D03*
X20400011Y12800008D02*
D03*
X20300011Y13000008D02*
D03*
X20200011Y12800008D02*
D03*
X20100011Y13000008D02*
D03*
X20000011Y12800008D02*
D03*
X19900011Y13000008D02*
D03*
X19800011Y12800008D02*
D03*
X19700011Y13000008D02*
D03*
X19600011Y12800008D02*
D03*
X19500011Y13000008D02*
D03*
X19400011Y12800008D02*
D03*
X19300011Y13000008D02*
D03*
X19200011Y12800008D02*
D03*
D37*
X2841500Y9008500D02*
D03*
Y9432500D02*
D03*
Y9856500D02*
D03*
X37283499Y8996000D02*
D03*
Y9420000D02*
D03*
Y9844000D02*
D03*
D38*
X32437500Y9012500D02*
D03*
X32182501D02*
D03*
X27327499Y9015000D02*
D03*
X27072501D02*
D03*
X26407501Y9017500D02*
D03*
X26152499D02*
D03*
X9227500Y9015000D02*
D03*
X8972500D02*
D03*
X30337500Y9000000D02*
D03*
X30082501D02*
D03*
X29164999Y9012500D02*
D03*
X29420001D02*
D03*
X24050000Y9005000D02*
D03*
X24305000D02*
D03*
X23137500Y9020000D02*
D03*
X23392500D02*
D03*
X21287500Y9010000D02*
D03*
X21032500D02*
D03*
X20117500Y9025000D02*
D03*
X20372501D02*
D03*
X18277499Y9015000D02*
D03*
X18022501D02*
D03*
X17105000D02*
D03*
X17360001D02*
D03*
X15242500Y9010000D02*
D03*
X14987500D02*
D03*
X14092500D02*
D03*
X14347501D02*
D03*
X12247500Y9012500D02*
D03*
X11992500D02*
D03*
X11077500Y9022500D02*
D03*
X11332500D02*
D03*
D39*
X37164999Y4732500D02*
D03*
Y12952499D02*
D03*
X2955000Y4732500D02*
D03*
X2937500Y12952499D02*
D03*
D40*
X19164999Y5142500D02*
D03*
X19959500D02*
D03*
X20213499D02*
D03*
X20467500D02*
D03*
X21245000D02*
D03*
X21499001D02*
D03*
X21753000D02*
D03*
D41*
X18911000D02*
D03*
X19705499D02*
D03*
X20991000D02*
D03*
%TF.MD5,357187f837f22b5afbc3b9ca0aecdc36*%
M02*
