%TF.GenerationSoftware,Altium Limited,Altium Designer,24.4.1 (13)*%
G04 Layer_Color=32896*
%FSLAX45Y45*%
%MOMM*%
%TF.SameCoordinates,4FF739F8-A24E-4C84-90D3-729B67262028*%
%TF.FilePolarity,Positive*%
%TF.FileFunction,Legend,Bot*%
%TF.Part,Single*%
G01*
G75*
%TA.AperFunction,NonConductor*%
%ADD33C,0.10000*%
%ADD34C,0.20000*%
%ADD35C,0.12700*%
%ADD36C,0.25000*%
D33*
X19529700Y5656600D02*
G03*
X19529700Y5656600I-5000J0D01*
G01*
D34*
X20372200Y6477000D02*
G03*
X20372200Y6477000I-10000J0D01*
G01*
X20147701Y5572100D02*
Y5602100D01*
X20267700Y5572100D02*
Y5602100D01*
X19834700Y5771600D02*
Y5794100D01*
X19564700Y5771600D02*
Y5794100D01*
X19834700Y5634100D02*
Y5656600D01*
X19564700Y5634100D02*
Y5656600D01*
Y5794100D02*
X19834700D01*
X19564700Y5634100D02*
X19834700D01*
X20002600Y6478800D02*
Y6498800D01*
X20082600Y6478800D02*
Y6498800D01*
X20247701Y5907300D02*
Y5927300D01*
X20167700Y5907300D02*
Y5927300D01*
X19275800Y6092500D02*
Y6402500D01*
X19945799Y6092500D02*
Y6402500D01*
X19275800D02*
X19945799D01*
X19275800Y6092500D02*
X19945799D01*
X19283299Y5754100D02*
X19303300D01*
X19283299Y5674100D02*
X19303300D01*
D35*
X20307201Y5832000D02*
Y6282000D01*
X20997200Y5832000D02*
Y6282000D01*
X20157143Y12742501D02*
Y12770000D01*
X20124643D02*
X20157143D01*
X19310001Y12742501D02*
Y12770000D01*
X19277499D02*
X19310001D01*
X19733571Y12742501D02*
Y12770000D01*
X19701071D02*
X19733571D01*
X21004285Y12742501D02*
Y12770000D01*
X20971786D02*
X21004285D01*
X20580714Y12742501D02*
Y12770000D01*
X20548215D02*
X20580714D01*
X21427856Y12742501D02*
Y12770000D01*
X21395357D02*
X21427856D01*
X21851428Y12742501D02*
Y12770000D01*
X21818929D02*
X21851428D01*
X22275000Y12742501D02*
Y12770000D01*
X22242500D02*
X22275000D01*
X19223000Y4367800D02*
X19408000D01*
X19172200Y4418600D02*
X19223000Y4367800D01*
X18667999D02*
X18853000D01*
X18903799Y4418600D01*
X19304700Y5180600D02*
X19408000D01*
X18667999D02*
X18758600D01*
X18903799Y4418600D02*
X19172200D01*
X19408000Y4367800D02*
Y5180600D01*
X18667999Y4367800D02*
Y5180600D01*
X20396500Y4367800D02*
X20706500D01*
X20320300Y4444000D02*
X20396500Y4367800D01*
X19466499D02*
X19776500D01*
X19852699Y4444000D01*
X20594501Y5180600D02*
X20706500D01*
X19466499D02*
X19565800D01*
X19852699Y4444000D02*
X20320300D01*
X20706500Y4367800D02*
Y5180600D01*
X19466499Y4367800D02*
Y5180600D01*
X21682001Y4367800D02*
X21992000D01*
X21605800Y4444000D02*
X21682001Y4367800D01*
X20752000D02*
X21062000D01*
X21138200Y4444000D01*
X21880000Y5180600D02*
X21992000D01*
X20752000D02*
X20851300D01*
X21138200Y4444000D02*
X21605800D01*
X21992000Y4367800D02*
Y5180600D01*
X20752000Y4367800D02*
Y5180600D01*
X37487695Y13211913D02*
X37462305D01*
X37475000D01*
Y13288087D01*
X37487695Y13275392D01*
X37439609Y4999412D02*
X37490393D01*
X37439609Y5050196D01*
Y5062892D01*
X37452304Y5075588D01*
X37477695D01*
X37490393Y5062892D01*
X3385832Y4998720D02*
Y5074895D01*
X3423920Y5036808D01*
X3373137D01*
X3406140Y13281639D02*
X3393444Y13294334D01*
X3368052D01*
X3355357Y13281639D01*
Y13268942D01*
X3368052Y13256248D01*
X3380748D01*
X3368052D01*
X3355357Y13243552D01*
Y13230856D01*
X3368052Y13218159D01*
X3393444D01*
X3406140Y13230856D01*
X22268179Y12915875D02*
Y12865092D01*
X22242789Y12839700D01*
X22217397Y12865092D01*
Y12915875D01*
X22192004D02*
Y12839700D01*
X22153917D01*
X22141222Y12852396D01*
Y12903178D01*
X22153917Y12915875D01*
X22192004D01*
X22115829Y12903178D02*
X22103133Y12915875D01*
X22077740D01*
X22065047Y12903178D01*
Y12890483D01*
X22077740Y12877788D01*
X22065047Y12865092D01*
Y12852396D01*
X22077740Y12839700D01*
X22103133D01*
X22115829Y12852396D01*
Y12865092D01*
X22103133Y12877788D01*
X22115829Y12890483D01*
Y12903178D01*
X22103133Y12877788D02*
X22077740D01*
X21844000Y12915875D02*
Y12865092D01*
X21818608Y12839700D01*
X21793217Y12865092D01*
Y12915875D01*
X21767825D02*
Y12839700D01*
X21729736D01*
X21717041Y12852396D01*
Y12903178D01*
X21729736Y12915875D01*
X21767825D01*
X21691649D02*
X21640866D01*
Y12903178D01*
X21691649Y12852396D01*
Y12839700D01*
X21422360Y12915875D02*
Y12865092D01*
X21396968Y12839700D01*
X21371577Y12865092D01*
Y12915875D01*
X21346185D02*
Y12839700D01*
X21308096D01*
X21295401Y12852396D01*
Y12903178D01*
X21308096Y12915875D01*
X21346185D01*
X21219226D02*
X21244617Y12903178D01*
X21270009Y12877788D01*
Y12852396D01*
X21257314Y12839700D01*
X21231921D01*
X21219226Y12852396D01*
Y12865092D01*
X21231921Y12877788D01*
X21270009D01*
X20998180Y12915875D02*
Y12865092D01*
X20972787Y12839700D01*
X20947397Y12865092D01*
Y12915875D01*
X20922005D02*
Y12839700D01*
X20883917D01*
X20871220Y12852396D01*
Y12903178D01*
X20883917Y12915875D01*
X20922005D01*
X20795045D02*
X20845828D01*
Y12877788D01*
X20820438Y12890483D01*
X20807741D01*
X20795045Y12877788D01*
Y12852396D01*
X20807741Y12839700D01*
X20833133D01*
X20845828Y12852396D01*
X20574001Y12915875D02*
Y12865092D01*
X20548608Y12839700D01*
X20523216Y12865092D01*
Y12915875D01*
X20497826D02*
Y12839700D01*
X20459737D01*
X20447041Y12852396D01*
Y12903178D01*
X20459737Y12915875D01*
X20497826D01*
X20383562Y12839700D02*
Y12915875D01*
X20421649Y12877788D01*
X20370866D01*
X20149820Y12915875D02*
Y12865092D01*
X20124428Y12839700D01*
X20099037Y12865092D01*
Y12915875D01*
X20073645D02*
Y12839700D01*
X20035558D01*
X20022861Y12852396D01*
Y12903178D01*
X20035558Y12915875D01*
X20073645D01*
X19997469Y12903178D02*
X19984773Y12915875D01*
X19959381D01*
X19946686Y12903178D01*
Y12890483D01*
X19959381Y12877788D01*
X19972076D01*
X19959381D01*
X19946686Y12865092D01*
Y12852396D01*
X19959381Y12839700D01*
X19984773D01*
X19997469Y12852396D01*
X19728180Y12915875D02*
Y12865092D01*
X19702788Y12839700D01*
X19677397Y12865092D01*
Y12915875D01*
X19652005D02*
Y12839700D01*
X19613918D01*
X19601221Y12852396D01*
Y12903178D01*
X19613918Y12915875D01*
X19652005D01*
X19525046Y12839700D02*
X19575829D01*
X19525046Y12890483D01*
Y12903178D01*
X19537741Y12915875D01*
X19563133D01*
X19575829Y12903178D01*
X19303999Y12915875D02*
Y12865092D01*
X19278609Y12839700D01*
X19253217Y12865092D01*
Y12915875D01*
X19227824D02*
Y12839700D01*
X19189737D01*
X19177042Y12852396D01*
Y12903178D01*
X19189737Y12915875D01*
X19227824D01*
X19151649Y12839700D02*
X19126257D01*
X19138953D01*
Y12915875D01*
X19151649Y12903178D01*
X20428479Y6680588D02*
Y6617108D01*
X20415784Y6604412D01*
X20390392D01*
X20377696Y6617108D01*
Y6680588D01*
X20301520Y6604412D02*
X20352304D01*
X20301520Y6655196D01*
Y6667892D01*
X20314217Y6680588D01*
X20339607D01*
X20352304Y6667892D01*
X19954240Y6779235D02*
Y6715756D01*
X19941544Y6703060D01*
X19916151D01*
X19903458Y6715756D01*
Y6779235D01*
X19878065Y6703060D02*
X19852673D01*
X19865369D01*
Y6779235D01*
X19878065Y6766539D01*
X20474384Y5815713D02*
Y5891888D01*
X20436296D01*
X20423599Y5879192D01*
Y5853800D01*
X20436296Y5841104D01*
X20474384D01*
X20448991D02*
X20423599Y5815713D01*
X20398209D02*
X20372816D01*
X20385512D01*
Y5891888D01*
X20398209Y5879192D01*
X19349738Y5361915D02*
X19375128D01*
X19362431D01*
Y5298436D01*
X19375128Y5285740D01*
X19387823D01*
X19400520Y5298436D01*
X19273561Y5361915D02*
X19324345D01*
Y5323828D01*
X19298953Y5336523D01*
X19286256D01*
X19273561Y5323828D01*
Y5298436D01*
X19286256Y5285740D01*
X19311649D01*
X19324345Y5298436D01*
X21935457Y5361915D02*
X21960847D01*
X21948152D01*
Y5298436D01*
X21960847Y5285740D01*
X21973544D01*
X21986240Y5298436D01*
X21871977Y5285740D02*
Y5361915D01*
X21910065Y5323828D01*
X21859280D01*
X20650217Y5361915D02*
X20675607D01*
X20662912D01*
Y5298436D01*
X20675607Y5285740D01*
X20688304D01*
X20700999Y5298436D01*
X20624825Y5349219D02*
X20612129Y5361915D01*
X20586737D01*
X20574042Y5349219D01*
Y5336523D01*
X20586737Y5323828D01*
X20599432D01*
X20586737D01*
X20574042Y5311132D01*
Y5298436D01*
X20586737Y5285740D01*
X20612129D01*
X20624825Y5298436D01*
X19426619Y5574388D02*
Y5498213D01*
X19388531D01*
X19375836Y5510908D01*
Y5561692D01*
X19388531Y5574388D01*
X19426619D01*
X19350444Y5498213D02*
X19325052D01*
X19337749D01*
Y5574388D01*
X19350444Y5561692D01*
X19286964Y5574388D02*
X19236182D01*
Y5561692D01*
X19286964Y5510908D01*
Y5498213D01*
X20220956Y6197579D02*
X20233652Y6210275D01*
X20259044D01*
X20271741Y6197579D01*
Y6146796D01*
X20259044Y6134100D01*
X20233652D01*
X20220956Y6146796D01*
X20195564Y6197579D02*
X20182869Y6210275D01*
X20157477D01*
X20144781Y6197579D01*
Y6184883D01*
X20157477Y6172188D01*
X20170174D01*
X20157477D01*
X20144781Y6159492D01*
Y6146796D01*
X20157477Y6134100D01*
X20182869D01*
X20195564Y6146796D01*
X20197893Y6479804D02*
X20210587Y6467108D01*
Y6441716D01*
X20197893Y6429020D01*
X20147108D01*
X20134412Y6441716D01*
Y6467108D01*
X20147108Y6479804D01*
X20134412Y6555979D02*
Y6505196D01*
X20185196Y6555979D01*
X20197893D01*
X20210587Y6543284D01*
Y6517892D01*
X20197893Y6505196D01*
X19185393Y5879200D02*
X19198088Y5866504D01*
Y5841113D01*
X19185393Y5828417D01*
X19134608D01*
X19121912Y5841113D01*
Y5866504D01*
X19134608Y5879200D01*
X19121912Y5904592D02*
Y5929984D01*
Y5917288D01*
X19198088D01*
X19185393Y5904592D01*
D36*
X19953300Y5965000D02*
G03*
X19953300Y5965000I-12500J0D01*
G01*
%TF.MD5,ef6b469d43b5815a7414eb0f934b04a0*%
M02*
