%TF.GenerationSoftware,Altium Limited,Altium Designer,24.4.1 (13)*%
G04 Layer_Physical_Order=3*
G04 Layer_Color=3707366*
%FSLAX45Y45*%
%MOMM*%
%TF.SameCoordinates,4FF739F8-A24E-4C84-90D3-729B67262028*%
%TF.FilePolarity,Positive*%
%TF.FileFunction,Copper,L3,Inr,Signal*%
%TF.Part,Single*%
G01*
G75*
%TA.AperFunction,ComponentPad*%
%ADD19C,6.99999*%
%ADD20C,1.50800*%
%TA.AperFunction,ViaPad*%
%ADD22C,1.00000*%
%ADD24C,0.40000*%
%ADD25C,0.50000*%
G36*
X31419275Y12137722D02*
X31521158Y12121585D01*
X31621463Y12097504D01*
X31719571Y12065627D01*
X31814874Y12026151D01*
X31906787Y11979320D01*
X31994739Y11925421D01*
X32078195Y11864788D01*
X32156635Y11797794D01*
X32229575Y11724853D01*
X32296570Y11646413D01*
X32357202Y11562958D01*
X32411102Y11475004D01*
X32457932Y11383092D01*
X32497409Y11287789D01*
X32529285Y11189683D01*
X32553366Y11089378D01*
X32569504Y10987492D01*
X32577597Y10884655D01*
Y10784456D01*
X32570404Y10687480D01*
X32556055Y10591301D01*
X32534634Y10496448D01*
X32506253Y10403439D01*
X32471069Y10312784D01*
X32429276Y10224980D01*
X32381100Y10140509D01*
X32326810Y10059833D01*
X32266699Y9983394D01*
X32201099Y9911611D01*
X32130368Y9844877D01*
X32092633Y9814218D01*
X31272412Y8994000D01*
X31271213Y8992942D01*
X31269791Y8990272D01*
X31264844Y8986784D01*
X31262201Y8986391D01*
X31250967Y8989931D01*
X30301898Y9939000D01*
X30298700Y9944359D01*
X30271155Y9974306D01*
X30219876Y10037498D01*
X30172610Y10103745D01*
X30129535Y10172791D01*
X30090823Y10244373D01*
X30056616Y10318215D01*
X30027048Y10394034D01*
X30002234Y10471538D01*
X29982266Y10550430D01*
X29967221Y10630408D01*
X29957162Y10711164D01*
X29952121Y10792388D01*
Y10884655D01*
X29960214Y10987492D01*
X29976352Y11089378D01*
X30000433Y11189683D01*
X30032309Y11287789D01*
X30071786Y11383092D01*
X30118616Y11475004D01*
X30172516Y11562958D01*
X30233148Y11646413D01*
X30300143Y11724853D01*
X30373083Y11797794D01*
X30451523Y11864788D01*
X30534979Y11925421D01*
X30622931Y11979320D01*
X30714844Y12026151D01*
X30810147Y12065627D01*
X30908255Y12097504D01*
X31008560Y12121585D01*
X31110443Y12137722D01*
X31213281Y12145816D01*
X31316437D01*
X31419275Y12137722D01*
D02*
G37*
G36*
X25386775D02*
X25488660Y12121585D01*
X25588965Y12097504D01*
X25687073Y12065627D01*
X25782373Y12026151D01*
X25874286Y11979320D01*
X25962241Y11925421D01*
X26045694Y11864788D01*
X26124136Y11797794D01*
X26197076Y11724853D01*
X26264072Y11646413D01*
X26324704Y11562958D01*
X26378601Y11475004D01*
X26425433Y11383092D01*
X26464908Y11287789D01*
X26496786Y11189683D01*
X26520868Y11089378D01*
X26537003Y10987492D01*
X26545099Y10884655D01*
Y10784456D01*
X26537906Y10687480D01*
X26523557Y10591301D01*
X26502133Y10496448D01*
X26473752Y10403439D01*
X26438568Y10312784D01*
X26396774Y10224980D01*
X26348602Y10140509D01*
X26294312Y10059833D01*
X26234198Y9983394D01*
X26168600Y9911611D01*
X26097870Y9844877D01*
X26060132Y9814218D01*
X25239914Y8994000D01*
X25238715Y8992942D01*
X25237289Y8990272D01*
X25232344Y8986784D01*
X25229703Y8986391D01*
X25218468Y8989931D01*
X24269400Y9939000D01*
X24266202Y9944359D01*
X24238655Y9974306D01*
X24187376Y10037498D01*
X24140109Y10103745D01*
X24097037Y10172791D01*
X24058322Y10244373D01*
X24024117Y10318215D01*
X23994548Y10394034D01*
X23969733Y10471538D01*
X23949767Y10550430D01*
X23934723Y10630408D01*
X23924661Y10711164D01*
X23919621Y10792388D01*
Y10884655D01*
X23927715Y10987492D01*
X23943852Y11089378D01*
X23967934Y11189683D01*
X23999809Y11287789D01*
X24039285Y11383092D01*
X24086118Y11475004D01*
X24140016Y11562958D01*
X24200648Y11646413D01*
X24267644Y11724853D01*
X24340585Y11797794D01*
X24419025Y11864788D01*
X24502480Y11925421D01*
X24590433Y11979320D01*
X24682346Y12026151D01*
X24777647Y12065627D01*
X24875755Y12097504D01*
X24976060Y12121585D01*
X25077945Y12137722D01*
X25180782Y12145816D01*
X25283937D01*
X25386775Y12137722D01*
D02*
G37*
G36*
X19360712Y12135611D02*
X19462598Y12119474D01*
X19562901Y12095393D01*
X19661009Y12063516D01*
X19756313Y12024040D01*
X19848224Y11977209D01*
X19936179Y11923310D01*
X20019632Y11862677D01*
X20098071Y11795683D01*
X20171014Y11722742D01*
X20238008Y11644302D01*
X20298640Y11560847D01*
X20352539Y11472893D01*
X20399371Y11380981D01*
X20438847Y11285678D01*
X20470723Y11187572D01*
X20494804Y11087267D01*
X20510941Y10985381D01*
X20519035Y10882544D01*
Y10782345D01*
X20511842Y10685369D01*
X20497495Y10589190D01*
X20476071Y10494337D01*
X20447690Y10401328D01*
X20412506Y10310673D01*
X20370712Y10222869D01*
X20322539Y10138398D01*
X20268246Y10057722D01*
X20208138Y9981283D01*
X20142537Y9909500D01*
X20071806Y9842766D01*
X20034068Y9812107D01*
X19213850Y8991889D01*
X19212653Y8990831D01*
X19211227Y8988161D01*
X19206281Y8984673D01*
X19203641Y8984280D01*
X19192406Y8987820D01*
X18243336Y9936889D01*
X18240138Y9942248D01*
X18212592Y9972195D01*
X18161313Y10035387D01*
X18114047Y10101634D01*
X18070975Y10170680D01*
X18032260Y10242262D01*
X17998053Y10316104D01*
X17968486Y10391923D01*
X17943671Y10469427D01*
X17923703Y10548319D01*
X17908659Y10628297D01*
X17898599Y10709053D01*
X17893559Y10790277D01*
Y10882544D01*
X17901653Y10985381D01*
X17917789Y11087267D01*
X17941872Y11187572D01*
X17973747Y11285678D01*
X18013223Y11380981D01*
X18060056Y11472893D01*
X18113953Y11560847D01*
X18174586Y11644302D01*
X18241580Y11722742D01*
X18314522Y11795683D01*
X18392963Y11862677D01*
X18476416Y11923310D01*
X18564371Y11977209D01*
X18656282Y12024040D01*
X18751585Y12063516D01*
X18849692Y12095393D01*
X18949997Y12119474D01*
X19051881Y12135611D01*
X19154720Y12143705D01*
X19257875D01*
X19360712Y12135611D01*
D02*
G37*
G36*
X13332774Y12130722D02*
X13434660Y12114585D01*
X13534966Y12090504D01*
X13633072Y12058627D01*
X13728374Y12019151D01*
X13820287Y11972320D01*
X13908241Y11918421D01*
X13991695Y11857788D01*
X14070135Y11790794D01*
X14143077Y11717853D01*
X14210071Y11639413D01*
X14270705Y11555958D01*
X14324602Y11468004D01*
X14371434Y11376092D01*
X14410909Y11280789D01*
X14442786Y11182683D01*
X14466867Y11082378D01*
X14483005Y10980492D01*
X14491098Y10877655D01*
Y10777456D01*
X14483904Y10680480D01*
X14469557Y10584301D01*
X14448134Y10489448D01*
X14419753Y10396439D01*
X14384569Y10305784D01*
X14342775Y10217980D01*
X14294601Y10133509D01*
X14240311Y10052833D01*
X14180199Y9976394D01*
X14114600Y9904611D01*
X14043869Y9837877D01*
X14006133Y9807218D01*
X13185915Y8987000D01*
X13184715Y8985942D01*
X13183290Y8983272D01*
X13178345Y8979784D01*
X13175703Y8979391D01*
X13164468Y8982931D01*
X12215400Y9932000D01*
X12212202Y9937359D01*
X12184655Y9967306D01*
X12133376Y10030498D01*
X12086110Y10096745D01*
X12043037Y10165791D01*
X12004322Y10237373D01*
X11970116Y10311215D01*
X11940548Y10387034D01*
X11915733Y10464538D01*
X11895766Y10543430D01*
X11880723Y10623408D01*
X11870662Y10704164D01*
X11865622Y10785388D01*
Y10877655D01*
X11873715Y10980492D01*
X11889852Y11082378D01*
X11913933Y11182683D01*
X11945810Y11280789D01*
X11985286Y11376092D01*
X12032117Y11468004D01*
X12086016Y11555958D01*
X12146649Y11639413D01*
X12213643Y11717853D01*
X12286585Y11790794D01*
X12365025Y11857788D01*
X12448479Y11918421D01*
X12536433Y11972320D01*
X12628345Y12019151D01*
X12723648Y12058627D01*
X12821754Y12090504D01*
X12922060Y12114585D01*
X13023946Y12130722D01*
X13126782Y12138816D01*
X13229938D01*
X13332774Y12130722D01*
D02*
G37*
G36*
X20332191Y6700000D02*
X20341156Y6691003D01*
X20338828Y6029363D01*
X20326118Y6026858D01*
X20325648Y6027990D01*
X20312990Y6040649D01*
X20296451Y6047500D01*
X20278549D01*
X20262010Y6040649D01*
X20249352Y6027990D01*
X20242500Y6011451D01*
Y5993549D01*
X20240128Y5990000D01*
X18667500D01*
Y6700000D01*
X20332191Y6700000D01*
D02*
G37*
G36*
X20337500Y4415000D02*
X18662500D01*
Y5817500D01*
Y5962500D01*
X20266479D01*
X20278549Y5957500D01*
X20296451D01*
X20308521Y5962500D01*
X20337500D01*
Y4415000D01*
D02*
G37*
G36*
X10162571Y9049320D02*
X10164711Y9047180D01*
X11113780Y8098111D01*
X11116978Y8092752D01*
X11144525Y8062804D01*
X11195803Y7999612D01*
X11243070Y7933366D01*
X11286143Y7864320D01*
X11324857Y7792738D01*
X11359064Y7718896D01*
X11388631Y7643077D01*
X11413446Y7565573D01*
X11433414Y7486680D01*
X11448457Y7406703D01*
X11458518Y7325947D01*
X11463558Y7244723D01*
Y7204033D01*
Y7152456D01*
X11455464Y7049618D01*
X11439327Y6947733D01*
X11415246Y6847428D01*
X11383369Y6749322D01*
X11343894Y6654019D01*
X11297062Y6562107D01*
X11243164Y6474152D01*
X11182531Y6390698D01*
X11115537Y6312258D01*
X11042595Y6239316D01*
X10964155Y6172322D01*
X10880701Y6111689D01*
X10792747Y6057791D01*
X10700834Y6010959D01*
X10605531Y5971484D01*
X10507425Y5939607D01*
X10407120Y5915526D01*
X10305235Y5899389D01*
X10202397Y5891295D01*
X10099242D01*
X9996405Y5899389D01*
X9894520Y5915526D01*
X9794215Y5939607D01*
X9696108Y5971484D01*
X9600805Y6010959D01*
X9508893Y6057791D01*
X9420939Y6111689D01*
X9337484Y6172322D01*
X9259045Y6239316D01*
X9186103Y6312258D01*
X9119109Y6390698D01*
X9058476Y6474152D01*
X9004577Y6562107D01*
X8957746Y6654019D01*
X8918270Y6749322D01*
X8886393Y6847428D01*
X8862312Y6947733D01*
X8846175Y7049618D01*
X8838082Y7152456D01*
Y7204033D01*
Y7252655D01*
X8845275Y7349631D01*
X8859623Y7445810D01*
X8881046Y7540663D01*
X8909427Y7633672D01*
X8944611Y7724327D01*
X8986404Y7812130D01*
X9034579Y7896602D01*
X9088870Y7977278D01*
X9148980Y8053717D01*
X9214580Y8125500D01*
X9285311Y8192233D01*
X9323047Y8222892D01*
X9323048Y8222893D01*
X10143266Y9043111D01*
X10144465Y9044168D01*
X10145889Y9046839D01*
X10150836Y9050327D01*
X10156823Y9051218D01*
X10162571Y9049320D01*
D02*
G37*
G36*
X28250272Y9046209D02*
X28252414Y9044069D01*
X29201483Y8095000D01*
X29204681Y8089641D01*
X29232227Y8059693D01*
X29283505Y7996501D01*
X29330771Y7930255D01*
X29373846Y7861209D01*
X29412558Y7789627D01*
X29446765Y7715785D01*
X29476334Y7639966D01*
X29501151Y7562462D01*
X29521115Y7483569D01*
X29536160Y7403592D01*
X29546219Y7322836D01*
X29551260Y7241612D01*
Y7200922D01*
Y7149345D01*
X29543167Y7046507D01*
X29527029Y6944622D01*
X29502948Y6844317D01*
X29471072Y6746211D01*
X29431595Y6650908D01*
X29384763Y6558996D01*
X29330865Y6471041D01*
X29270233Y6387587D01*
X29203238Y6309147D01*
X29130298Y6236205D01*
X29051859Y6169211D01*
X28968402Y6108578D01*
X28880450Y6054680D01*
X28788538Y6007848D01*
X28693234Y5968373D01*
X28595126Y5936496D01*
X28494821Y5912415D01*
X28392938Y5896278D01*
X28290100Y5888184D01*
X28186945D01*
X28084106Y5896278D01*
X27982224Y5912415D01*
X27881918Y5936496D01*
X27783810Y5968373D01*
X27688507Y6007848D01*
X27596594Y6054680D01*
X27508640Y6108578D01*
X27425186Y6169211D01*
X27346747Y6236205D01*
X27273804Y6309147D01*
X27206812Y6387587D01*
X27146179Y6471041D01*
X27092279Y6558996D01*
X27045447Y6650908D01*
X27005972Y6746211D01*
X26974097Y6844317D01*
X26950015Y6944622D01*
X26933878Y7046507D01*
X26925784Y7149345D01*
Y7200922D01*
Y7249544D01*
X26932977Y7346520D01*
X26947324Y7442699D01*
X26968747Y7537552D01*
X26997128Y7630561D01*
X27032312Y7721216D01*
X27074106Y7809019D01*
X27122281Y7893491D01*
X27176572Y7974167D01*
X27236682Y8050606D01*
X27302283Y8122389D01*
X27373013Y8189122D01*
X27410751Y8219781D01*
X27410751Y8219782D01*
X28230969Y9040000D01*
X28232166Y9041057D01*
X28233591Y9043728D01*
X28238538Y9047216D01*
X28244525Y9048107D01*
X28250272Y9046209D01*
D02*
G37*
G36*
X22221039D02*
X22223180Y9044069D01*
X23172247Y8095000D01*
X23175446Y8089641D01*
X23202992Y8059693D01*
X23254271Y7996501D01*
X23301538Y7930255D01*
X23344611Y7861209D01*
X23383325Y7789627D01*
X23417532Y7715785D01*
X23447099Y7639966D01*
X23471915Y7562462D01*
X23491882Y7483569D01*
X23506924Y7403592D01*
X23516986Y7322836D01*
X23522026Y7241612D01*
Y7200922D01*
Y7149345D01*
X23513931Y7046507D01*
X23497797Y6944622D01*
X23473714Y6844317D01*
X23441838Y6746211D01*
X23402362Y6650908D01*
X23355530Y6558996D01*
X23301633Y6471041D01*
X23240999Y6387587D01*
X23174005Y6309147D01*
X23101064Y6236205D01*
X23022623Y6169211D01*
X22939169Y6108578D01*
X22851215Y6054680D01*
X22759302Y6007848D01*
X22664000Y5968373D01*
X22565894Y5936496D01*
X22465588Y5912415D01*
X22363702Y5896278D01*
X22260866Y5888184D01*
X22157710D01*
X22054874Y5896278D01*
X21952988Y5912415D01*
X21852682Y5936496D01*
X21754576Y5968373D01*
X21659273Y6007848D01*
X21567361Y6054680D01*
X21479407Y6108578D01*
X21395953Y6169211D01*
X21317513Y6236205D01*
X21244571Y6309147D01*
X21177577Y6387587D01*
X21116943Y6471041D01*
X21063046Y6558996D01*
X21016214Y6650908D01*
X20976738Y6746211D01*
X20944862Y6844317D01*
X20920779Y6944622D01*
X20904643Y7046507D01*
X20896550Y7149345D01*
Y7200922D01*
Y7249544D01*
X20903743Y7346520D01*
X20918091Y7442699D01*
X20939514Y7537552D01*
X20967896Y7630561D01*
X21003079Y7721216D01*
X21044873Y7809019D01*
X21093047Y7893491D01*
X21147337Y7974167D01*
X21207448Y8050606D01*
X21273048Y8122389D01*
X21343779Y8189122D01*
X21381516Y8219781D01*
X21381516Y8219782D01*
X22201733Y9040000D01*
X22202933Y9041057D01*
X22204356Y9043728D01*
X22209303Y9047216D01*
X22215291Y9048107D01*
X22221039Y9046209D01*
D02*
G37*
G36*
X16191805D02*
X16193945Y9044069D01*
X17143015Y8095000D01*
X17146211Y8089641D01*
X17173759Y8059693D01*
X17225037Y7996501D01*
X17272304Y7930255D01*
X17315376Y7861209D01*
X17354091Y7789627D01*
X17388298Y7715785D01*
X17417865Y7639966D01*
X17442680Y7562462D01*
X17462648Y7483569D01*
X17477692Y7403592D01*
X17487752Y7322836D01*
X17492792Y7241612D01*
Y7200922D01*
Y7149345D01*
X17484698Y7046507D01*
X17468561Y6944622D01*
X17444479Y6844317D01*
X17412604Y6746211D01*
X17373128Y6650908D01*
X17326295Y6558996D01*
X17272398Y6471041D01*
X17211765Y6387587D01*
X17144771Y6309147D01*
X17071829Y6236205D01*
X16993388Y6169211D01*
X16909935Y6108578D01*
X16821980Y6054680D01*
X16730067Y6007848D01*
X16634766Y5968373D01*
X16536659Y5936496D01*
X16436354Y5912415D01*
X16334470Y5896278D01*
X16231631Y5888184D01*
X16128476D01*
X16025639Y5896278D01*
X15923753Y5912415D01*
X15823450Y5936496D01*
X15725342Y5968373D01*
X15630038Y6007848D01*
X15538127Y6054680D01*
X15450172Y6108578D01*
X15366719Y6169211D01*
X15288280Y6236205D01*
X15215337Y6309147D01*
X15148343Y6387587D01*
X15087711Y6471041D01*
X15033810Y6558996D01*
X14986980Y6650908D01*
X14947504Y6746211D01*
X14915628Y6844317D01*
X14891547Y6944622D01*
X14875409Y7046507D01*
X14867316Y7149345D01*
Y7200922D01*
Y7249544D01*
X14874509Y7346520D01*
X14888857Y7442699D01*
X14910280Y7537552D01*
X14938661Y7630561D01*
X14973845Y7721216D01*
X15015639Y7809019D01*
X15063812Y7893491D01*
X15118105Y7974167D01*
X15178214Y8050606D01*
X15243814Y8122389D01*
X15314545Y8189122D01*
X15352281Y8219781D01*
X15352283Y8219782D01*
X16172501Y9040000D01*
X16173698Y9041057D01*
X16175124Y9043728D01*
X16180070Y9047216D01*
X16186057Y9048107D01*
X16191805Y9046209D01*
D02*
G37*
%LPC*%
G36*
X20283951Y6447500D02*
X20266049D01*
X20249510Y6440649D01*
X20236852Y6427990D01*
X20230000Y6411451D01*
Y6393549D01*
X20236852Y6377010D01*
X20249510Y6364351D01*
X20266049Y6357500D01*
X20283951D01*
X20300491Y6364351D01*
X20313148Y6377010D01*
X20320000Y6393549D01*
Y6411451D01*
X20313148Y6427990D01*
X20300491Y6440649D01*
X20283951Y6447500D01*
D02*
G37*
G36*
X20126451D02*
X20108549D01*
X20092010Y6440649D01*
X20079350Y6427990D01*
X20072501Y6411451D01*
Y6393549D01*
X20079350Y6377010D01*
X20092010Y6364351D01*
X20108549Y6357500D01*
X20126451D01*
X20142990Y6364351D01*
X20155649Y6377010D01*
X20162500Y6393549D01*
Y6411451D01*
X20155649Y6427990D01*
X20142990Y6440649D01*
X20126451Y6447500D01*
D02*
G37*
G36*
X19861452Y6322500D02*
X19843549D01*
X19827010Y6315649D01*
X19814351Y6302990D01*
X19807500Y6286451D01*
Y6268549D01*
X19814351Y6252010D01*
X19827010Y6239351D01*
X19843549Y6232500D01*
X19861452D01*
X19877991Y6239351D01*
X19890649Y6252010D01*
X19897501Y6268549D01*
Y6286451D01*
X19890649Y6302990D01*
X19877991Y6315649D01*
X19861452Y6322500D01*
D02*
G37*
G36*
X20093951Y6220000D02*
X20076048D01*
X20059509Y6213149D01*
X20046851Y6200491D01*
X20039999Y6183951D01*
Y6166049D01*
X20046851Y6149510D01*
X20059509Y6136851D01*
X20076048Y6130000D01*
X20093951D01*
X20110490Y6136851D01*
X20123149Y6149510D01*
X20130000Y6166049D01*
Y6183951D01*
X20123149Y6200491D01*
X20110490Y6213149D01*
X20093951Y6220000D01*
D02*
G37*
G36*
X19931451Y5947500D02*
X19913548D01*
X19897009Y5940649D01*
X19884351Y5927990D01*
X19877499Y5911451D01*
Y5893549D01*
X19884351Y5877010D01*
X19897009Y5864351D01*
X19913548Y5857500D01*
X19931451D01*
X19947990Y5864351D01*
X19960649Y5877010D01*
X19967500Y5893549D01*
Y5911451D01*
X19960649Y5927990D01*
X19947990Y5940649D01*
X19931451Y5947500D01*
D02*
G37*
G36*
X19731451Y5940000D02*
X19713548D01*
X19697009Y5933149D01*
X19684351Y5920490D01*
X19677499Y5903951D01*
Y5886049D01*
X19684351Y5869509D01*
X19697009Y5856851D01*
X19713548Y5850000D01*
X19731451D01*
X19747990Y5856851D01*
X19760649Y5869509D01*
X19767500Y5886049D01*
Y5903951D01*
X19760649Y5920490D01*
X19747990Y5933149D01*
X19731451Y5940000D01*
D02*
G37*
G36*
X19503951D02*
X19486049D01*
X19469510Y5933149D01*
X19456851Y5920490D01*
X19450000Y5903951D01*
Y5886049D01*
X19456851Y5869509D01*
X19469510Y5856851D01*
X19486049Y5850000D01*
X19503951D01*
X19520491Y5856851D01*
X19533150Y5869509D01*
X19539999Y5886049D01*
Y5903951D01*
X19533150Y5920490D01*
X19520491Y5933149D01*
X19503951Y5940000D01*
D02*
G37*
G36*
X19131451Y5772500D02*
X19113548D01*
X19097009Y5765649D01*
X19084351Y5752991D01*
X19077499Y5736451D01*
Y5718549D01*
X19084351Y5702010D01*
X19097009Y5689351D01*
X19113548Y5682500D01*
X19131451D01*
X19147990Y5689351D01*
X19160649Y5702010D01*
X19167500Y5718549D01*
Y5736451D01*
X19160649Y5752991D01*
X19147990Y5765649D01*
X19131451Y5772500D01*
D02*
G37*
G36*
X18776451Y5765000D02*
X18758549D01*
X18742010Y5758149D01*
X18729350Y5745490D01*
X18722501Y5728951D01*
Y5711049D01*
X18729350Y5694510D01*
X18742010Y5681851D01*
X18758549Y5675000D01*
X18776451D01*
X18792990Y5681851D01*
X18805649Y5694510D01*
X18812500Y5711049D01*
Y5728951D01*
X18805649Y5745490D01*
X18792990Y5758149D01*
X18776451Y5765000D01*
D02*
G37*
G36*
X18943951Y5537500D02*
X18926048D01*
X18909509Y5530649D01*
X18896851Y5517990D01*
X18889999Y5501451D01*
Y5483549D01*
X18896851Y5467010D01*
X18909509Y5454351D01*
X18926048Y5447500D01*
X18943951D01*
X18960490Y5454351D01*
X18973149Y5467010D01*
X18980000Y5483549D01*
Y5501451D01*
X18973149Y5517990D01*
X18960490Y5530649D01*
X18943951Y5537500D01*
D02*
G37*
G36*
X19133951Y5450000D02*
X19116049D01*
X19099510Y5443149D01*
X19086852Y5430491D01*
X19080000Y5413951D01*
Y5396049D01*
X19086852Y5379510D01*
X19099510Y5366851D01*
X19116049Y5360000D01*
X19133951D01*
X19150491Y5366851D01*
X19163148Y5379510D01*
X19170000Y5396049D01*
Y5413951D01*
X19163148Y5430491D01*
X19150491Y5443149D01*
X19133951Y5450000D01*
D02*
G37*
G36*
X18763951Y5255000D02*
X18746049D01*
X18729510Y5248149D01*
X18716850Y5235490D01*
X18710001Y5218951D01*
Y5201049D01*
X18716850Y5184510D01*
X18729510Y5171851D01*
X18746049Y5165000D01*
X18763951D01*
X18780492Y5171851D01*
X18793149Y5184510D01*
X18800000Y5201049D01*
Y5218951D01*
X18793149Y5235490D01*
X18780492Y5248149D01*
X18763951Y5255000D01*
D02*
G37*
G36*
X20226060Y5237900D02*
X20200941D01*
X20176677Y5231398D01*
X20154922Y5218839D01*
X20137161Y5201077D01*
X20124602Y5179323D01*
X20118100Y5155060D01*
Y5129940D01*
X20124602Y5105677D01*
X20137161Y5083923D01*
X20154922Y5066161D01*
X20176677Y5053602D01*
X20200941Y5047100D01*
X20226060D01*
X20250323Y5053602D01*
X20272076Y5066161D01*
X20289839Y5083923D01*
X20302399Y5105677D01*
X20308900Y5129940D01*
Y5155060D01*
X20302399Y5179323D01*
X20289839Y5201077D01*
X20272076Y5218839D01*
X20250323Y5231398D01*
X20226060Y5237900D01*
D02*
G37*
G36*
X19972060D02*
X19946941D01*
X19922678Y5231398D01*
X19900923Y5218839D01*
X19883160Y5201077D01*
X19870602Y5179323D01*
X19864101Y5155060D01*
Y5129940D01*
X19870602Y5105677D01*
X19883160Y5083923D01*
X19900923Y5066161D01*
X19922678Y5053602D01*
X19946941Y5047100D01*
X19972060D01*
X19996323Y5053602D01*
X20018077Y5066161D01*
X20035838Y5083923D01*
X20048399Y5105677D01*
X20054900Y5129940D01*
Y5155060D01*
X20048399Y5179323D01*
X20035838Y5201077D01*
X20018077Y5218839D01*
X19996323Y5231398D01*
X19972060Y5237900D01*
D02*
G37*
G36*
X19718060D02*
X19692941D01*
X19668677Y5231398D01*
X19646922Y5218839D01*
X19629161Y5201077D01*
X19616602Y5179323D01*
X19610100Y5155060D01*
Y5129940D01*
X19616602Y5105677D01*
X19629161Y5083923D01*
X19646922Y5066161D01*
X19668677Y5053602D01*
X19692941Y5047100D01*
X19718060D01*
X19742323Y5053602D01*
X19764078Y5066161D01*
X19781839Y5083923D01*
X19794398Y5105677D01*
X19800900Y5129940D01*
Y5155060D01*
X19794398Y5179323D01*
X19781839Y5201077D01*
X19764078Y5218839D01*
X19742323Y5231398D01*
X19718060Y5237900D01*
D02*
G37*
G36*
X18923560D02*
X18898441D01*
X18874178Y5231398D01*
X18852423Y5218839D01*
X18834660Y5201077D01*
X18822102Y5179323D01*
X18815601Y5155060D01*
Y5129940D01*
X18822102Y5105677D01*
X18834660Y5083923D01*
X18852423Y5066161D01*
X18874178Y5053602D01*
X18898441Y5047100D01*
X18923560D01*
X18947823Y5053602D01*
X18969577Y5066161D01*
X18987338Y5083923D01*
X18999898Y5105677D01*
X19006400Y5129940D01*
Y5155060D01*
X18999898Y5179323D01*
X18987338Y5201077D01*
X18969577Y5218839D01*
X18947823Y5231398D01*
X18923560Y5237900D01*
D02*
G37*
%LPD*%
D19*
X37164999Y4732500D02*
D03*
Y12952499D02*
D03*
X2955000Y4732500D02*
D03*
X2937500Y12952499D02*
D03*
D20*
X19164999Y5142500D02*
D03*
X18911000D02*
D03*
X19705499D02*
D03*
X19959500D02*
D03*
X20213499D02*
D03*
X20467500D02*
D03*
X20991000D02*
D03*
X21245000D02*
D03*
X21499001D02*
D03*
X21753000D02*
D03*
D22*
X37485001Y8997500D02*
D03*
X37262500Y9000000D02*
D03*
X37373749D02*
D03*
X37477499Y9847500D02*
D03*
X37254999Y9850000D02*
D03*
X37366251D02*
D03*
X2872500Y9852500D02*
D03*
X2650000Y9855000D02*
D03*
X2761250D02*
D03*
X2870000Y9005000D02*
D03*
X2647500Y9007500D02*
D03*
X2758750D02*
D03*
D24*
X22100012Y13000008D02*
D03*
X22000012Y12800008D02*
D03*
X21900012Y13000008D02*
D03*
X21800012Y12800008D02*
D03*
X21700012Y13000008D02*
D03*
X21600012Y12800008D02*
D03*
X21500012Y13000008D02*
D03*
X21400012Y12800008D02*
D03*
X21300012Y13000008D02*
D03*
X21200011Y12800008D02*
D03*
X21100011Y13000008D02*
D03*
X21000011Y12800008D02*
D03*
X20900011Y13000008D02*
D03*
X20800011Y12800008D02*
D03*
X20700011Y13000008D02*
D03*
X20600011Y12800008D02*
D03*
X20500011Y13000008D02*
D03*
X20400011Y12800008D02*
D03*
X20300011Y13000008D02*
D03*
X20200011Y12800008D02*
D03*
X20100011Y13000008D02*
D03*
X20000011Y12800008D02*
D03*
X19900011Y13000008D02*
D03*
X19800011Y12800008D02*
D03*
X19700011Y13000008D02*
D03*
X19600011Y12800008D02*
D03*
X19500011Y13000008D02*
D03*
X19400011Y12800008D02*
D03*
X19300011Y13000008D02*
D03*
X19200011Y12800008D02*
D03*
D25*
X19922501Y5902500D02*
D03*
X20085001Y6175000D02*
D03*
X20117500Y6402500D02*
D03*
X20287500Y6002500D02*
D03*
X20275000Y6402500D02*
D03*
X19852499Y6277500D02*
D03*
D03*
X19125000Y5405000D02*
D03*
X18935001Y5492500D02*
D03*
X19122501Y5727500D02*
D03*
X18755000Y5210000D02*
D03*
X18767500Y5720000D02*
D03*
X19495000Y5895000D02*
D03*
D03*
X19722501D02*
D03*
X20397501Y6530000D02*
D03*
X13172501Y9010000D02*
D03*
X16185915Y9017000D02*
D03*
X10156680Y9020111D02*
D03*
X31259000Y9017000D02*
D03*
X28244382D02*
D03*
X25226500D02*
D03*
X22215147D02*
D03*
X19200531D02*
D03*
%TF.MD5,06b03684528b52c3586ff9cf2ca16cbd*%
M02*
