%TF.GenerationSoftware,Altium Limited,Altium Designer,24.4.1 (13)*%
G04 Layer_Physical_Order=1*
G04 Layer_Color=255*
%FSLAX45Y45*%
%MOMM*%
%TF.SameCoordinates,4FF739F8-A24E-4C84-90D3-729B67262028*%
%TF.FilePolarity,Positive*%
%TF.FileFunction,Copper,L1,Top,Signal*%
%TF.Part,Single*%
G01*
G75*
%TA.AperFunction,ConnectorPad*%
%ADD10R,5.08000X1.52000*%
%TA.AperFunction,SMDPad,CuDef*%
%ADD11R,1.40000X0.55000*%
%AMCUSTOMSHAPE12*
4,1,4,1.40000,11.50000,-1.40000,11.50000,-1.40000,-11.50000,1.40000,-11.50000,1.40000,11.50000,0.0*%
%ADD12CUSTOMSHAPE12*%

%AMCUSTOMSHAPE13*
4,1,4,12.00000,-1.35000,12.00000,1.35000,-12.00000,1.35000,-12.00000,-1.35000,12.00000,-1.35000,0.0*%
%ADD13CUSTOMSHAPE13*%

%AMCUSTOMSHAPE14*
4,1,4,12.00000,-1.40000,12.00000,1.40000,-12.00000,1.40000,-12.00000,-1.40000,12.00000,-1.40000,0.0*%
%ADD14CUSTOMSHAPE14*%

%AMCUSTOMSHAPE15*
4,1,20,-6.50000,-1.00000,-6.50000,-3.70000,-1.50000,-3.70000,-1.50000,-6.00000,-9.00000,-6.00000,-9.00000,6.00000,-1.50000,6.00000,-1.50000,3.70000,-6.50000,3.70000,-6.50000,1.00000,6.60000,1.00000,6.60000,3.70000,1.50000,3.70000,1.50000,6.00000,9.00000,6.00000,9.00000,-6.00000,1.50000,-6.00000,1.50000,-3.70000,6.60000,-3.70000,6.60000,-1.00000,-6.50000,-1.00000,0.0*%
%ADD15CUSTOMSHAPE15*%

%TA.AperFunction,Conductor*%
%ADD16C,2.00000*%
%ADD17C,4.00000*%
%ADD18C,0.38100*%
%TA.AperFunction,ComponentPad*%
%ADD19C,6.99999*%
%ADD20C,1.50800*%
%ADD21R,1.50800X1.50800*%
%TA.AperFunction,ViaPad*%
%ADD22C,1.00000*%
%ADD23C,1.50000*%
%ADD24C,0.40000*%
%ADD25C,0.50000*%
G36*
X34231500Y10130000D02*
X35435001Y9627500D01*
Y9227500D01*
X34231500Y8735000D01*
Y6942500D01*
X6231500D01*
Y8735000D01*
X4977500Y9237500D01*
Y9627500D01*
X6231500Y10130000D01*
Y11927500D01*
X34231500D01*
Y10130000D01*
D02*
G37*
%LPC*%
G36*
X11426681Y9959911D02*
X8886681D01*
Y8093011D01*
X8899381Y8080311D01*
X11426681D01*
Y9959911D01*
D02*
G37*
G36*
X32529001Y9956800D02*
X29989001D01*
Y8089900D01*
X30001700Y8077200D01*
X32529001D01*
Y9956800D01*
D02*
G37*
G36*
X29514383D02*
X26974384D01*
Y8089900D01*
X26987082Y8077200D01*
X29514383D01*
Y9956800D01*
D02*
G37*
G36*
X26499765D02*
X23959766D01*
Y8089900D01*
X23972466Y8077200D01*
X26499765D01*
Y9956800D01*
D02*
G37*
G36*
X23485149D02*
X20945149D01*
Y8089900D01*
X20957849Y8077200D01*
X23485149D01*
Y9956800D01*
D02*
G37*
G36*
X20470532D02*
X17930531D01*
Y8089900D01*
X17943233Y8077200D01*
X20470532D01*
Y9956800D01*
D02*
G37*
G36*
X17455914D02*
X14915915D01*
Y8089900D01*
X14928615Y8077200D01*
X17455914D01*
Y9956800D01*
D02*
G37*
G36*
X14441298D02*
X11901298D01*
Y8089900D01*
X11913998Y8077200D01*
X14441298D01*
Y9956800D01*
D02*
G37*
%LPD*%
D10*
X2841500Y9008500D02*
D03*
Y9432500D02*
D03*
Y9856500D02*
D03*
X37283499Y8996000D02*
D03*
Y9420000D02*
D03*
Y9844000D02*
D03*
D11*
X32437500Y9012500D02*
D03*
X32182501D02*
D03*
X27327499Y9015000D02*
D03*
X27072501D02*
D03*
X26407501Y9017500D02*
D03*
X26152499D02*
D03*
X9227500Y9015000D02*
D03*
X8972500D02*
D03*
X30337500Y9000000D02*
D03*
X30082501D02*
D03*
X29164999Y9012500D02*
D03*
X29420001D02*
D03*
X24050000Y9005000D02*
D03*
X24305000D02*
D03*
X23137500Y9020000D02*
D03*
X23392500D02*
D03*
X21287500Y9010000D02*
D03*
X21032500D02*
D03*
X20117500Y9025000D02*
D03*
X20372501D02*
D03*
X18277499Y9015000D02*
D03*
X18022501D02*
D03*
X17105000D02*
D03*
X17360001D02*
D03*
X15242500Y9010000D02*
D03*
X14987500D02*
D03*
X14092500D02*
D03*
X14347501D02*
D03*
X12247500Y9012500D02*
D03*
X11992500D02*
D03*
X11077500Y9022500D02*
D03*
X11332500D02*
D03*
D12*
X32598999Y9017000D02*
D03*
X29919000D02*
D03*
X29584381D02*
D03*
X26904382D02*
D03*
X23886499D02*
D03*
X26566498D02*
D03*
X20871883D02*
D03*
X23551881D02*
D03*
X17857265D02*
D03*
X20537265D02*
D03*
X14842648D02*
D03*
X17522649D02*
D03*
X11828031D02*
D03*
X14508031D02*
D03*
X8813414D02*
D03*
X11493414D02*
D03*
D13*
X31259000Y10032000D02*
D03*
X28244382D02*
D03*
X25226498D02*
D03*
X22211882D02*
D03*
X19197266D02*
D03*
X16182648D02*
D03*
X13168031D02*
D03*
X10153414D02*
D03*
D14*
X31259000Y8007000D02*
D03*
X28244382D02*
D03*
X25226498D02*
D03*
X22211882D02*
D03*
X19197266D02*
D03*
X16182648D02*
D03*
X13168031D02*
D03*
X10153414D02*
D03*
D15*
X31259000Y9017000D02*
D03*
X28244382D02*
D03*
X25226498D02*
D03*
X22211882D02*
D03*
X19197266D02*
D03*
X16182648D02*
D03*
X13168031D02*
D03*
X10153414D02*
D03*
D16*
X31272699Y10045700D02*
X32598999D01*
D17*
X37283499Y9428800D02*
X37352499D01*
X32775000Y9428800D02*
X37283499Y9428800D01*
X2841683Y9430669D02*
X2855000Y9432000D01*
X2785000Y9425000D02*
X2841683Y9430669D01*
X2841509Y9425066D02*
X8675015Y9431889D01*
X2785000Y9425000D02*
X2841509Y9425066D01*
D18*
X8816680Y9915842D02*
Y9983620D01*
X8767300Y10033000D02*
X8816680Y9983620D01*
X31259000Y10032000D02*
X31272699Y10045700D01*
D19*
X37164999Y4732500D02*
D03*
Y12952499D02*
D03*
X2955000Y4732500D02*
D03*
X2937500Y12952499D02*
D03*
D20*
X19164999Y5142500D02*
D03*
X19959500D02*
D03*
X20213499D02*
D03*
X20467500D02*
D03*
X21245000D02*
D03*
X21499001D02*
D03*
X21753000D02*
D03*
D21*
X18911000D02*
D03*
X19705499D02*
D03*
X20991000D02*
D03*
D22*
X37485001Y8997500D02*
D03*
X37262500Y9000000D02*
D03*
X37373749D02*
D03*
X37477499Y9847500D02*
D03*
X37254999Y9850000D02*
D03*
X37366251D02*
D03*
X2872500Y9852500D02*
D03*
X2650000Y9855000D02*
D03*
X2761250D02*
D03*
X2870000Y9005000D02*
D03*
X2647500Y9007500D02*
D03*
X2758750D02*
D03*
D23*
X19469598Y7025000D02*
D03*
X18889911D02*
D03*
X19083141D02*
D03*
X19276369D02*
D03*
X18503453D02*
D03*
X18696683D02*
D03*
X20822202D02*
D03*
X20435744D02*
D03*
X20049284D02*
D03*
X19856056D02*
D03*
X20628972D02*
D03*
X20242514D02*
D03*
X10194607D02*
D03*
X10001378D02*
D03*
X9808149D02*
D03*
X9614920D02*
D03*
X9421691D02*
D03*
X9228462D02*
D03*
X8842004D02*
D03*
X8648775D02*
D03*
X8262317D02*
D03*
X8069088D02*
D03*
X8455546D02*
D03*
X9035233D02*
D03*
X7875859D02*
D03*
X7682630D02*
D03*
X7102943D02*
D03*
X6909714D02*
D03*
X6523256D02*
D03*
X7489401D02*
D03*
X6716485D02*
D03*
X6330027D02*
D03*
X7296172D02*
D03*
X12320126D02*
D03*
X11740439D02*
D03*
X11933668D02*
D03*
X12126897D02*
D03*
X11547210D02*
D03*
X11353981D02*
D03*
X11160752D02*
D03*
X10774294D02*
D03*
X10581065D02*
D03*
X10387836D02*
D03*
X10967523D02*
D03*
X18310223D02*
D03*
X18116995D02*
D03*
X17923766D02*
D03*
X17730537D02*
D03*
X17537308D02*
D03*
X17344080D02*
D03*
X17150850D02*
D03*
X15411789D02*
D03*
X16957620D02*
D03*
X16571162D02*
D03*
X16377934D02*
D03*
X16184705D02*
D03*
X15991476D02*
D03*
X15798247D02*
D03*
X15605019D02*
D03*
X16764392D02*
D03*
X15218559D02*
D03*
X15025331D02*
D03*
X14832101D02*
D03*
X14638873D02*
D03*
X14445644D02*
D03*
X14252415D02*
D03*
X14059187D02*
D03*
X13865958D02*
D03*
X13479500D02*
D03*
X13286272D02*
D03*
X13093042D02*
D03*
X12899812D02*
D03*
X12706584D02*
D03*
X12513355D02*
D03*
X13672729D02*
D03*
X26619070D02*
D03*
X26425842D02*
D03*
X26232611D02*
D03*
X25652924D02*
D03*
X25459695D02*
D03*
X25846155D02*
D03*
X26039383D02*
D03*
X25266467D02*
D03*
X33188855D02*
D03*
X32995627D02*
D03*
X32802396D02*
D03*
X32609167D02*
D03*
X32415939D02*
D03*
X32222711D02*
D03*
X31836252D02*
D03*
X31643024D02*
D03*
X31449792D02*
D03*
X31256564D02*
D03*
X31063336D02*
D03*
X32029480D02*
D03*
X30870108D02*
D03*
X23720634D02*
D03*
X22947719D02*
D03*
X23334177D02*
D03*
X22754491D02*
D03*
X23140948D02*
D03*
X23527406D02*
D03*
X23913864D02*
D03*
X25073238D02*
D03*
X24880009D02*
D03*
X24686780D02*
D03*
X24493552D02*
D03*
X24300322D02*
D03*
X24107092D02*
D03*
X22561261D02*
D03*
X22368031D02*
D03*
X22174805D02*
D03*
X21981575D02*
D03*
X21595117D02*
D03*
X21401888D02*
D03*
X21208659D02*
D03*
X21015430D02*
D03*
X21788345D02*
D03*
X28551361D02*
D03*
X28164902D02*
D03*
X27971674D02*
D03*
X27778445D02*
D03*
X27585214D02*
D03*
X27391986D02*
D03*
X26812299D02*
D03*
X27005527D02*
D03*
X27198758D02*
D03*
X28358130D02*
D03*
X28744589D02*
D03*
X30676877D02*
D03*
X30483649D02*
D03*
X30290421D02*
D03*
X30097192D02*
D03*
X29903964D02*
D03*
X29710733D02*
D03*
X29324277D02*
D03*
X29131046D02*
D03*
X29517505D02*
D03*
X28937817D02*
D03*
X33575314D02*
D03*
X33382083D02*
D03*
X33768542Y7030000D02*
D03*
X33961771Y7027500D02*
D03*
X34154999Y7025000D02*
D03*
X19662827Y7030000D02*
D03*
X19655299Y11837500D02*
D03*
X34147473Y11832500D02*
D03*
X33954242Y11835000D02*
D03*
X33761014Y11837500D02*
D03*
X33374557Y11832500D02*
D03*
X33567786D02*
D03*
X28930289D02*
D03*
X29509976D02*
D03*
X29123520D02*
D03*
X29316748D02*
D03*
X29703207D02*
D03*
X29896436D02*
D03*
X30089664D02*
D03*
X30282892D02*
D03*
X30476123D02*
D03*
X30669351D02*
D03*
X28737061D02*
D03*
X28350604D02*
D03*
X27191229D02*
D03*
X26998001D02*
D03*
X26804770D02*
D03*
X27384457D02*
D03*
X27577686D02*
D03*
X27770917D02*
D03*
X27964145D02*
D03*
X28157373D02*
D03*
X28543832D02*
D03*
X21780818D02*
D03*
X21007903D02*
D03*
X21201131D02*
D03*
X21394360D02*
D03*
X21587589D02*
D03*
X21974046D02*
D03*
X22167276D02*
D03*
X22360506D02*
D03*
X22553734D02*
D03*
X24099567D02*
D03*
X24292795D02*
D03*
X24486024D02*
D03*
X24679253D02*
D03*
X24872482D02*
D03*
X25065710D02*
D03*
X23906337D02*
D03*
X23519879D02*
D03*
X23133421D02*
D03*
X22746964D02*
D03*
X23326649D02*
D03*
X22940192D02*
D03*
X23713107D02*
D03*
X30862579D02*
D03*
X32021954D02*
D03*
X31055807D02*
D03*
X31249039D02*
D03*
X31442267D02*
D03*
X31635495D02*
D03*
X31828726D02*
D03*
X32215182D02*
D03*
X32408411D02*
D03*
X32601642D02*
D03*
X32794870D02*
D03*
X32988098D02*
D03*
X33181329D02*
D03*
X25258940D02*
D03*
X26031854D02*
D03*
X25838626D02*
D03*
X25452168D02*
D03*
X25645398D02*
D03*
X26225085D02*
D03*
X26418314D02*
D03*
X26611542D02*
D03*
X13665201D02*
D03*
X12505827D02*
D03*
X12699056D02*
D03*
X12892285D02*
D03*
X13085513D02*
D03*
X13278743D02*
D03*
X13471973D02*
D03*
X13858430D02*
D03*
X14051659D02*
D03*
X14244888D02*
D03*
X14438116D02*
D03*
X14631346D02*
D03*
X14824574D02*
D03*
X15017804D02*
D03*
X15211034D02*
D03*
X16756865D02*
D03*
X15597491D02*
D03*
X15790720D02*
D03*
X15983949D02*
D03*
X16177177D02*
D03*
X16370407D02*
D03*
X16563635D02*
D03*
X16950095D02*
D03*
X15404262D02*
D03*
X17143323D02*
D03*
X17336552D02*
D03*
X17529781D02*
D03*
X17723010D02*
D03*
X17916238D02*
D03*
X18109467D02*
D03*
X18302696D02*
D03*
X10959995D02*
D03*
X10380308D02*
D03*
X10573537D02*
D03*
X10766766D02*
D03*
X11153224D02*
D03*
X11346453D02*
D03*
X11539682D02*
D03*
X12119369D02*
D03*
X11926140D02*
D03*
X11732911D02*
D03*
X12312598D02*
D03*
X7288645D02*
D03*
X6322500D02*
D03*
X6708958D02*
D03*
X7481874D02*
D03*
X6515729D02*
D03*
X6902187D02*
D03*
X7095416D02*
D03*
X7675103D02*
D03*
X7868332D02*
D03*
X9027706D02*
D03*
X8448019D02*
D03*
X8061561D02*
D03*
X8254790D02*
D03*
X8641248D02*
D03*
X8834477D02*
D03*
X9220935D02*
D03*
X9414164D02*
D03*
X9607393D02*
D03*
X9800621D02*
D03*
X9993850D02*
D03*
X10187079D02*
D03*
X20234985D02*
D03*
X20621445D02*
D03*
X19848528D02*
D03*
X20041757D02*
D03*
X20428215D02*
D03*
X20814673D02*
D03*
X18689154D02*
D03*
X18495924D02*
D03*
X19268842D02*
D03*
X19075612D02*
D03*
X18882384D02*
D03*
X19462070D02*
D03*
D24*
X22100012Y13000008D02*
D03*
X22000012Y12800008D02*
D03*
X21900012Y13000008D02*
D03*
X21800012Y12800008D02*
D03*
X21700012Y13000008D02*
D03*
X21600012Y12800008D02*
D03*
X21500012Y13000008D02*
D03*
X21400012Y12800008D02*
D03*
X21300012Y13000008D02*
D03*
X21200011Y12800008D02*
D03*
X21100011Y13000008D02*
D03*
X21000011Y12800008D02*
D03*
X20900011Y13000008D02*
D03*
X20800011Y12800008D02*
D03*
X20700011Y13000008D02*
D03*
X20600011Y12800008D02*
D03*
X20500011Y13000008D02*
D03*
X20400011Y12800008D02*
D03*
X20300011Y13000008D02*
D03*
X20200011Y12800008D02*
D03*
X20100011Y13000008D02*
D03*
X20000011Y12800008D02*
D03*
X19900011Y13000008D02*
D03*
X19800011Y12800008D02*
D03*
X19700011Y13000008D02*
D03*
X19600011Y12800008D02*
D03*
X19500011Y13000008D02*
D03*
X19400011Y12800008D02*
D03*
X19300011Y13000008D02*
D03*
X19200011Y12800008D02*
D03*
D25*
X19922501Y5902500D02*
D03*
X20085001Y6175000D02*
D03*
X20117500Y6402500D02*
D03*
X20287500Y6002500D02*
D03*
X20275000Y6402500D02*
D03*
X19852499Y6277500D02*
D03*
D03*
X19125000Y5405000D02*
D03*
X18935001Y5492500D02*
D03*
X19122501Y5727500D02*
D03*
X18755000Y5210000D02*
D03*
X18767500Y5720000D02*
D03*
X19495000Y5895000D02*
D03*
D03*
X19722501D02*
D03*
X20397501Y6530000D02*
D03*
X13172501Y9010000D02*
D03*
X16185915Y9017000D02*
D03*
X10156680Y9020111D02*
D03*
X31259000Y9017000D02*
D03*
X28244382D02*
D03*
X25226500D02*
D03*
X22215147D02*
D03*
X19200531D02*
D03*
%TF.MD5,b29daf1ad2cf7f3dc212d4ad802cc986*%
M02*
