%TF.GenerationSoftware,Altium Limited,Altium Designer,24.4.1 (13)*%
G04 Layer_Color=65535*
%FSLAX45Y45*%
%MOMM*%
%TF.SameCoordinates,4FF739F8-A24E-4C84-90D3-729B67262028*%
%TF.FilePolarity,Positive*%
%TF.FileFunction,Legend,Top*%
%TF.Part,Single*%
G01*
G75*
%TA.AperFunction,NonConductor*%
%ADD33C,0.10000*%
%ADD34C,0.20000*%
%ADD35C,0.12700*%
D33*
X32489999Y8955000D02*
G03*
X32489999Y8955000I-5000J0D01*
G01*
X27379999Y8957500D02*
G03*
X27379999Y8957500I-5000J0D01*
G01*
X26460001Y8960000D02*
G03*
X26460001Y8960000I-5000J0D01*
G01*
X8930000Y9072500D02*
G03*
X8930000Y9072500I-5000J0D01*
G01*
X30039999Y9057500D02*
G03*
X30039999Y9057500I-5000J0D01*
G01*
X29472501Y8955000D02*
G03*
X29472501Y8955000I-5000J0D01*
G01*
X24357500Y8947500D02*
G03*
X24357500Y8947500I-5000J0D01*
G01*
X23445000Y8962500D02*
G03*
X23445000Y8962500I-5000J0D01*
G01*
X20989999Y9067500D02*
G03*
X20989999Y9067500I-5000J0D01*
G01*
X20425000Y8967500D02*
G03*
X20425000Y8967500I-5000J0D01*
G01*
X17980000Y9072500D02*
G03*
X17980000Y9072500I-5000J0D01*
G01*
X17412500Y8957500D02*
G03*
X17412500Y8957500I-5000J0D01*
G01*
X14945000Y9067500D02*
G03*
X14945000Y9067500I-5000J0D01*
G01*
X14400000Y8952500D02*
G03*
X14400000Y8952500I-5000J0D01*
G01*
X11950000Y9070000D02*
G03*
X11950000Y9070000I-5000J0D01*
G01*
X11385000Y8965000D02*
G03*
X11385000Y8965000I-5000J0D01*
G01*
D34*
X32175000Y8932500D02*
X32445001D01*
X32175000Y9092500D02*
X32445001D01*
Y8932500D02*
Y8955000D01*
X32175000Y8932500D02*
Y8955000D01*
X32445001Y9070000D02*
Y9092500D01*
X32175000Y9070000D02*
Y9092500D01*
X27064999Y8935000D02*
X27335001D01*
X27064999Y9095000D02*
X27335001D01*
Y8935000D02*
Y8957500D01*
X27064999Y8935000D02*
Y8957500D01*
X27335001Y9072500D02*
Y9095000D01*
X27064999Y9072500D02*
Y9095000D01*
X26145001Y8937500D02*
X26414999D01*
X26145001Y9097500D02*
X26414999D01*
Y8937500D02*
Y8960000D01*
X26145001Y8937500D02*
Y8960000D01*
X26414999Y9075000D02*
Y9097500D01*
X26145001Y9075000D02*
Y9097500D01*
X9235000Y8935000D02*
Y8957500D01*
X8965000Y8935000D02*
Y8957500D01*
X9235000Y9072500D02*
Y9095000D01*
X8965000Y9072500D02*
Y9095000D01*
Y8935000D02*
X9235000D01*
X8965000Y9095000D02*
X9235000D01*
X30345001Y8920000D02*
Y8942500D01*
X30075000Y8920000D02*
Y8942500D01*
X30345001Y9057500D02*
Y9080000D01*
X30075000Y9057500D02*
Y9080000D01*
Y8920000D02*
X30345001D01*
X30075000Y9080000D02*
X30345001D01*
X29157501Y9070000D02*
Y9092500D01*
X29427499Y9070000D02*
Y9092500D01*
X29157501Y8932500D02*
Y8955000D01*
X29427499Y8932500D02*
Y8955000D01*
X29157501Y9092500D02*
X29427499D01*
X29157501Y8932500D02*
X29427499D01*
X24042500Y9062500D02*
Y9085000D01*
X24312500Y9062500D02*
Y9085000D01*
X24042500Y8925000D02*
Y8947500D01*
X24312500Y8925000D02*
Y8947500D01*
X24042500Y9085000D02*
X24312500D01*
X24042500Y8925000D02*
X24312500D01*
X23130000Y9077500D02*
Y9100000D01*
X23400000Y9077500D02*
Y9100000D01*
X23130000Y8940000D02*
Y8962500D01*
X23400000Y8940000D02*
Y8962500D01*
X23130000Y9100000D02*
X23400000D01*
X23130000Y8940000D02*
X23400000D01*
X21295000Y8930000D02*
Y8952500D01*
X21025000Y8930000D02*
Y8952500D01*
X21295000Y9067500D02*
Y9090000D01*
X21025000Y9067500D02*
Y9090000D01*
Y8930000D02*
X21295000D01*
X21025000Y9090000D02*
X21295000D01*
X20110001Y9082500D02*
Y9105000D01*
X20380000Y9082500D02*
Y9105000D01*
X20110001Y8945000D02*
Y8967500D01*
X20380000Y8945000D02*
Y8967500D01*
X20110001Y9105000D02*
X20380000D01*
X20110001Y8945000D02*
X20380000D01*
X18285001Y8935000D02*
Y8957500D01*
X18014999Y8935000D02*
Y8957500D01*
X18285001Y9072500D02*
Y9095000D01*
X18014999Y9072500D02*
Y9095000D01*
Y8935000D02*
X18285001D01*
X18014999Y9095000D02*
X18285001D01*
X17097501Y9072500D02*
Y9095000D01*
X17367500Y9072500D02*
Y9095000D01*
X17097501Y8935000D02*
Y8957500D01*
X17367500Y8935000D02*
Y8957500D01*
X17097501Y9095000D02*
X17367500D01*
X17097501Y8935000D02*
X17367500D01*
X15250000Y8930000D02*
Y8952500D01*
X14980000Y8930000D02*
Y8952500D01*
X15250000Y9067500D02*
Y9090000D01*
X14980000Y9067500D02*
Y9090000D01*
Y8930000D02*
X15250000D01*
X14980000Y9090000D02*
X15250000D01*
X14085001Y9067500D02*
Y9090000D01*
X14355000Y9067500D02*
Y9090000D01*
X14085001Y8930000D02*
Y8952500D01*
X14355000Y8930000D02*
Y8952500D01*
X14085001Y9090000D02*
X14355000D01*
X14085001Y8930000D02*
X14355000D01*
X12255000Y8932500D02*
Y8955000D01*
X11985000Y8932500D02*
Y8955000D01*
X12255000Y9070000D02*
Y9092500D01*
X11985000Y9070000D02*
Y9092500D01*
Y8932500D02*
X12255000D01*
X11985000Y9092500D02*
X12255000D01*
X11070000Y9080000D02*
Y9102500D01*
X11340000Y9080000D02*
Y9102500D01*
X11070000Y8942500D02*
Y8965000D01*
X11340000Y8942500D02*
Y8965000D01*
X11070000Y9102500D02*
X11340000D01*
X11070000Y8942500D02*
X11340000D01*
D35*
X37066202Y10096475D02*
X37040811D01*
X37053510D01*
Y10032996D01*
X37040811Y10020300D01*
X37028116D01*
X37015421Y10032996D01*
X37142380Y10020300D02*
X37091595D01*
X37142380Y10071083D01*
Y10083779D01*
X37129684Y10096475D01*
X37104291D01*
X37091595Y10083779D01*
X3012500Y10095588D02*
X2987108D01*
X2999804D01*
Y10032108D01*
X2987108Y10019413D01*
X2974412D01*
X2961716Y10032108D01*
X3037892Y10019413D02*
X3063284D01*
X3050588D01*
Y10095588D01*
X3037892Y10082892D01*
X32110681Y9260815D02*
Y9184640D01*
X32148767D01*
X32161462Y9197336D01*
Y9248119D01*
X32148767Y9260815D01*
X32110681D01*
X32186856Y9184640D02*
X32212247D01*
X32199551D01*
Y9260815D01*
X32186856Y9248119D01*
X32301117Y9260815D02*
X32275726Y9248119D01*
X32250336Y9222728D01*
Y9197336D01*
X32263031Y9184640D01*
X32288422D01*
X32301117Y9197336D01*
Y9210032D01*
X32288422Y9222728D01*
X32250336D01*
X30010101Y9248115D02*
Y9171940D01*
X30048187D01*
X30060883Y9184636D01*
Y9235419D01*
X30048187Y9248115D01*
X30010101D01*
X30086276Y9171940D02*
X30111667D01*
X30098972D01*
Y9248115D01*
X30086276Y9235419D01*
X30200537Y9248115D02*
X30149756D01*
Y9210028D01*
X30175146Y9222723D01*
X30187842D01*
X30200537Y9210028D01*
Y9184636D01*
X30187842Y9171940D01*
X30162451D01*
X30149756Y9184636D01*
X29093161Y9260815D02*
Y9184640D01*
X29131247D01*
X29143942Y9197336D01*
Y9248119D01*
X29131247Y9260815D01*
X29093161D01*
X29169336Y9184640D02*
X29194727D01*
X29182031D01*
Y9260815D01*
X29169336Y9248119D01*
X29270901Y9184640D02*
Y9260815D01*
X29232816Y9222728D01*
X29283597D01*
X27000201Y9263355D02*
Y9187180D01*
X27038287D01*
X27050983Y9199876D01*
Y9250659D01*
X27038287Y9263355D01*
X27000201D01*
X27076376Y9187180D02*
X27101767D01*
X27089072D01*
Y9263355D01*
X27076376Y9250659D01*
X27139856D02*
X27152551Y9263355D01*
X27177942D01*
X27190637Y9250659D01*
Y9237963D01*
X27177942Y9225268D01*
X27165247D01*
X27177942D01*
X27190637Y9212572D01*
Y9199876D01*
X27177942Y9187180D01*
X27152551D01*
X27139856Y9199876D01*
X26080719Y9265895D02*
Y9189720D01*
X26118808D01*
X26131503Y9202416D01*
Y9253199D01*
X26118808Y9265895D01*
X26080719D01*
X26156894Y9189720D02*
X26182288D01*
X26169592D01*
Y9265895D01*
X26156894Y9253199D01*
X26271158Y9189720D02*
X26220374D01*
X26271158Y9240503D01*
Y9253199D01*
X26258463Y9265895D01*
X26233072D01*
X26220374Y9253199D01*
X23977600Y9253195D02*
Y9177020D01*
X24015688D01*
X24028383Y9189716D01*
Y9240499D01*
X24015688Y9253195D01*
X23977600D01*
X24053775Y9177020D02*
X24079167D01*
X24066470D01*
Y9253195D01*
X24053775Y9240499D01*
X24117255Y9177020D02*
X24142647D01*
X24129951D01*
Y9253195D01*
X24117255Y9240499D01*
X23065739Y9268435D02*
Y9192260D01*
X23103828D01*
X23116524Y9204956D01*
Y9255739D01*
X23103828Y9268435D01*
X23065739D01*
X23141914Y9192260D02*
X23167307D01*
X23154611D01*
Y9268435D01*
X23141914Y9255739D01*
X23205396D02*
X23218091Y9268435D01*
X23243483D01*
X23256178Y9255739D01*
Y9204956D01*
X23243483Y9192260D01*
X23218091D01*
X23205396Y9204956D01*
Y9255739D01*
X20960080Y9258275D02*
Y9182100D01*
X20998167D01*
X21010863Y9194796D01*
Y9245579D01*
X20998167Y9258275D01*
X20960080D01*
X21036255Y9194796D02*
X21048952Y9182100D01*
X21074342D01*
X21087039Y9194796D01*
Y9245579D01*
X21074342Y9258275D01*
X21048952D01*
X21036255Y9245579D01*
Y9232883D01*
X21048952Y9220188D01*
X21087039D01*
X20045680Y9270975D02*
Y9194800D01*
X20083768D01*
X20096463Y9207496D01*
Y9258279D01*
X20083768Y9270975D01*
X20045680D01*
X20121855Y9258279D02*
X20134550Y9270975D01*
X20159943D01*
X20172639Y9258279D01*
Y9245583D01*
X20159943Y9232888D01*
X20172639Y9220192D01*
Y9207496D01*
X20159943Y9194800D01*
X20134550D01*
X20121855Y9207496D01*
Y9220192D01*
X20134550Y9232888D01*
X20121855Y9245583D01*
Y9258279D01*
X20134550Y9232888D02*
X20159943D01*
X17950180Y9263355D02*
Y9187180D01*
X17988268D01*
X18000963Y9199876D01*
Y9250659D01*
X17988268Y9263355D01*
X17950180D01*
X18026355D02*
X18077139D01*
Y9250659D01*
X18026355Y9199876D01*
Y9187180D01*
X17033240Y9263355D02*
Y9187180D01*
X17071329D01*
X17084023Y9199876D01*
Y9250659D01*
X17071329Y9263355D01*
X17033240D01*
X17160199D02*
X17134807Y9250659D01*
X17109415Y9225268D01*
Y9199876D01*
X17122112Y9187180D01*
X17147504D01*
X17160199Y9199876D01*
Y9212572D01*
X17147504Y9225268D01*
X17109415D01*
X14914880Y9258275D02*
Y9182100D01*
X14952968D01*
X14965663Y9194796D01*
Y9245579D01*
X14952968Y9258275D01*
X14914880D01*
X15041840D02*
X14991055D01*
Y9220188D01*
X15016447Y9232883D01*
X15029143D01*
X15041840Y9220188D01*
Y9194796D01*
X15029143Y9182100D01*
X15003751D01*
X14991055Y9194796D01*
X14020799Y9258275D02*
Y9182100D01*
X14058888D01*
X14071584Y9194796D01*
Y9245579D01*
X14058888Y9258275D01*
X14020799D01*
X14135063Y9182100D02*
Y9258275D01*
X14096976Y9220188D01*
X14147758D01*
X11920220Y9260815D02*
Y9184640D01*
X11958308D01*
X11971003Y9197336D01*
Y9248119D01*
X11958308Y9260815D01*
X11920220D01*
X11996395Y9248119D02*
X12009091Y9260815D01*
X12034483D01*
X12047179Y9248119D01*
Y9235423D01*
X12034483Y9222728D01*
X12021787D01*
X12034483D01*
X12047179Y9210032D01*
Y9197336D01*
X12034483Y9184640D01*
X12009091D01*
X11996395Y9197336D01*
X11005820Y9268435D02*
Y9192260D01*
X11043908D01*
X11056603Y9204956D01*
Y9255739D01*
X11043908Y9268435D01*
X11005820D01*
X11132779Y9192260D02*
X11081995D01*
X11132779Y9243043D01*
Y9255739D01*
X11120083Y9268435D01*
X11094691D01*
X11081995Y9255739D01*
X8900160Y9263355D02*
Y9187180D01*
X8938248D01*
X8950943Y9199876D01*
Y9250659D01*
X8938248Y9263355D01*
X8900160D01*
X8976335Y9187180D02*
X9001727D01*
X8989031D01*
Y9263355D01*
X8976335Y9250659D01*
X23754080Y10236200D02*
Y10286983D01*
X23779472Y10312375D01*
X23804863Y10286983D01*
Y10236200D01*
Y10274288D01*
X23754080D01*
X23830255Y10236200D02*
Y10312375D01*
X23881039Y10236200D01*
Y10312375D01*
X23906432D02*
X23957214D01*
X23931824D01*
Y10236200D01*
X23982607Y10299679D02*
X23995302Y10312375D01*
X24020694D01*
X24033389Y10299679D01*
Y10286983D01*
X24020694Y10274288D01*
X24033389Y10261592D01*
Y10248896D01*
X24020694Y10236200D01*
X23995302D01*
X23982607Y10248896D01*
Y10261592D01*
X23995302Y10274288D01*
X23982607Y10286983D01*
Y10299679D01*
X23995302Y10274288D02*
X24020694D01*
X20739101Y10236200D02*
Y10286983D01*
X20764491Y10312375D01*
X20789883Y10286983D01*
Y10236200D01*
Y10274288D01*
X20739101D01*
X20815276Y10236200D02*
Y10312375D01*
X20866058Y10236200D01*
Y10312375D01*
X20891451D02*
X20942233D01*
X20916843D01*
Y10236200D01*
X20967625Y10312375D02*
X21018410D01*
Y10299679D01*
X20967625Y10248896D01*
Y10236200D01*
X17724120D02*
Y10286983D01*
X17749512Y10312375D01*
X17774902Y10286983D01*
Y10236200D01*
Y10274288D01*
X17724120D01*
X17800294Y10236200D02*
Y10312375D01*
X17851079Y10236200D01*
Y10312375D01*
X17876471D02*
X17927254D01*
X17901863D01*
Y10236200D01*
X18003430Y10312375D02*
X17978038Y10299679D01*
X17952646Y10274288D01*
Y10248896D01*
X17965343Y10236200D01*
X17990733D01*
X18003430Y10248896D01*
Y10261592D01*
X17990733Y10274288D01*
X17952646D01*
X14709140Y10236200D02*
Y10286983D01*
X14734532Y10312375D01*
X14759923Y10286983D01*
Y10236200D01*
Y10274288D01*
X14709140D01*
X14785315Y10236200D02*
Y10312375D01*
X14836099Y10236200D01*
Y10312375D01*
X14861491D02*
X14912274D01*
X14886884D01*
Y10236200D01*
X14988451Y10312375D02*
X14937666D01*
Y10274288D01*
X14963058Y10286983D01*
X14975754D01*
X14988451Y10274288D01*
Y10248896D01*
X14975754Y10236200D01*
X14950362D01*
X14937666Y10248896D01*
X11696700Y10236200D02*
Y10286983D01*
X11722092Y10312375D01*
X11747483Y10286983D01*
Y10236200D01*
Y10274288D01*
X11696700D01*
X11772875Y10236200D02*
Y10312375D01*
X11823659Y10236200D01*
Y10312375D01*
X11849051D02*
X11899834D01*
X11874443D01*
Y10236200D01*
X11963314D02*
Y10312375D01*
X11925226Y10274288D01*
X11976010D01*
X8681720Y10236200D02*
Y10286983D01*
X8707112Y10312375D01*
X8732503Y10286983D01*
Y10236200D01*
Y10274288D01*
X8681720D01*
X8757895Y10236200D02*
Y10312375D01*
X8808679Y10236200D01*
Y10312375D01*
X8834071D02*
X8884854D01*
X8859463D01*
Y10236200D01*
X8910246Y10299679D02*
X8922942Y10312375D01*
X8948334D01*
X8961030Y10299679D01*
Y10286983D01*
X8948334Y10274288D01*
X8935638D01*
X8948334D01*
X8961030Y10261592D01*
Y10248896D01*
X8948334Y10236200D01*
X8922942D01*
X8910246Y10248896D01*
X29786581Y10236200D02*
Y10286983D01*
X29811972Y10312375D01*
X29837363Y10286983D01*
Y10236200D01*
Y10274288D01*
X29786581D01*
X29862756Y10236200D02*
Y10312375D01*
X29913538Y10236200D01*
Y10312375D01*
X29938931D02*
X29989713D01*
X29964322D01*
Y10236200D01*
X30065891D02*
X30015106D01*
X30065891Y10286983D01*
Y10299679D01*
X30053195Y10312375D01*
X30027802D01*
X30015106Y10299679D01*
X26771600Y10236200D02*
Y10286983D01*
X26796991Y10312375D01*
X26822382Y10286983D01*
Y10236200D01*
Y10274288D01*
X26771600D01*
X26847775Y10236200D02*
Y10312375D01*
X26898560Y10236200D01*
Y10312375D01*
X26923950D02*
X26974734D01*
X26949344D01*
Y10236200D01*
X27000125D02*
X27025519D01*
X27012823D01*
Y10312375D01*
X27000125Y10299679D01*
%TF.MD5,1dfc13dce43596b30654fa509b534eae*%
M02*
